<?xml version="1.0" encoding="iso-8859-1"?>
<!-- Generator: Adobe Illustrator 22.1.0, SVG Export Plug-In . SVG Version: 6.00 Build 0)  -->
<svg version="1.1" id="Layer_1" xmlns="http://www.w3.org/2000/svg" xmlns:xlink="http://www.w3.org/1999/xlink" x="0px" y="0px"
	 width="500px" height="500px" viewBox="0 0 500 500" enable-background="new 0 0 500 500" xml:space="preserve">
<g>
	<path fill="none" d="M176.367,117.039c-0.55-1.283-1.772-3.422-3.911-3.606c-0.489-0.061-1.345-0.061-2.445-0.122
		c-8.189-0.306-33.247-1.283-61.237-11.123C78.95,91.677,63.182,64.053,57.804,52.685c-0.917-1.895-1.528-3.545-2.017-4.828
		c-1.283-3.422-1.589-3.728-2.75-3.667c-2.383,2.995-4.278,29.213,15.034,59.037c21.268,32.758,88.128,45.042,88.8,45.164
		c4.584,0.733,9.351-0.856,11.184-2.261c-2.383-8.678,5.5-25.668,7.884-28.602C176.062,117.345,176.184,117.162,176.367,117.039z"/>
	<path fill="none" d="M251.294,120.89v-9.045c-1.039-0.733-2.078-1.406-3.117-2.078c-2.567-1.711-4.4-4.217-5.378-7.334
		c-2.872,0.733-5.134,1.528-6.967,2.506C239.255,107.994,246.711,114.106,251.294,120.89z"/>
	<path fill="none" d="M67.705,302.768c1.711,1.039,3.422,1.406,4.339,1.345c-1.161-2.139-5.011-7.15-7.517-7.395
		c-0.244,0-0.611-0.061-1.1,0.55C64.038,298.551,65.688,301.423,67.705,302.768z"/>
	<path fill="none" d="M50.959,228.697c-0.856,0.306-1.406,0.856-1.711,1.589c-0.244,0.672-0.122,0.856-0.061,0.917
		c1.344,1.589,8.495,1.406,15.829,0.244c-3.667-1.528-8.312-3.117-11.673-3.117C52.426,228.33,51.632,228.452,50.959,228.697z"/>
	<path fill="none" d="M73.755,215.007c-0.306-0.917-0.794-1.406-1.711-1.589c-0.183-0.061-0.367-0.061-0.489-0.061
		c-0.428,0-0.611,0.122-0.794,0.306c-1.65,1.772-1.161,8.556,0,14.423C72.533,224.357,74.794,218.185,73.755,215.007z"/>
	<path fill="none" d="M64.649,243.792c-0.428,0.306-0.611,0.672-0.611,1.222c0,0.428,0,1.161,1.528,1.589
		c3.728,0.978,10.634-1.161,14.179-2.811c-3.361-0.672-6.845-1.1-9.656-1.1C67.583,242.692,65.627,242.997,64.649,243.792z"/>
	<path fill="none" d="M364.663,118.445c0.061,0,0.061,0.061,0.122,0.122c0,0.061,0.061,0.061,0.061,0.122
		c0,0,0.061,0.061,0.061,0.122c0.061,0.061,0.061,0.061,0.061,0.122c0,0.061,0.061,0.122,0.061,0.183v0.061v0.061
		c0,0.061,0,0.122,0,0.183c0,0.061,0,0.061,0,0.122c0,0.061,0,0.122,0,0.183c0,0.061,0,0.061,0,0.122
		c0,0.122-0.061,0.306-0.183,0.489c-0.244,0.367-5.561,8.312-22.429,8.312c-1.772,0-3.606-0.061-5.623-0.244
		c-0.611-0.061-1.222-0.122-1.833-0.183c1.833,4.889,4.156,12.773,2.689,17.968c1.833,1.345,6.539,2.689,11.123,1.956
		c0.672-0.122,67.349-11.734,88.617-44.492c19.312-29.824,17.54-56.47,15.218-59.465c-1.161-0.061-1.467,0.244-2.75,3.667
		c-0.489,1.283-1.1,2.934-2.017,4.828c-5.378,11.367-21.146,38.991-50.97,49.503c-13.568,4.767-27.257,7.945-41.68,9.717
		c7.028,4.278,9.29,6.356,9.412,6.478L364.663,118.445z"/>
	<path fill="none" d="M243.166,90.577c-4.278-0.733-14.24-2.872-22.062-7.212c-5.745-3.178-12.834-8.067-17.846-11.673
		c4.4,6.723,11.551,16.501,17.846,19.557c8.006,3.911,17.54,4.034,20.962,3.911C242.249,93.51,242.616,91.982,243.166,90.577z"/>
	<path fill="none" d="M325.06,85.749c0.55,0.306,1.039,0.733,1.528,1.222c0.183,0.122,0.306,0.306,0.428,0.489
		c9.778-2.934,16.318-9.84,19.496-20.474c0.794-2.75,1.283-5.378,1.528-7.7C341.684,71.203,329.766,81.837,325.06,85.749z"/>
	<path fill="none" d="M325.549,95.283c0-0.611,0.061-1.222,0.061-1.956c0.183-4.217-2.506-5.439-4.095-5.806
		c-0.122,2.567-0.55,5.195-1.345,7.701c-2.75,8.434-13.14,13.995-27.807,14.79c-0.794,0.061-1.528,0.061-2.261,0.061
		c-0.367,0-0.672,0-0.978,0c0.733,1.589,2.445,4.828,5.073,5.989c3.422,1.528,12.529,4.034,22.368-5.134
		C325.366,102.739,325.427,100.844,325.549,95.283z"/>
	<path fill="none" d="M321.76,110.195c5.5,2.689,22.307,9.901,37.83,8.251c-2.139-1.467-5.623-3.789-11.123-6.906
		c-8.923-5.073-19.068-6.417-22.185-6.723C325.305,106.344,323.838,108.056,321.76,110.195z"/>
	<path fill="none" d="M337.1,125.229c11.184,1.039,17.846-1.345,21.451-3.545c-1.283,0.122-2.506,0.183-3.789,0.183
		c-15.89,0-31.23-7.212-35.324-9.289c-0.244,0.183-0.489,0.428-0.733,0.672c-1.345,1.222-2.628,2.261-3.911,3.117
		C316.565,118.628,322.188,123.823,337.1,125.229z"/>
	<path fill="none" d="M321.577,84.404c0.061,0.061,0.122,0.061,0.183,0.061c3.239-2.689,20.779-17.357,25.913-31.963
		c-7.884,1.833-22.857,12.467-29.396,17.54c0.183,0.428,0.367,0.917,0.55,1.345C320.232,74.931,321.393,79.515,321.577,84.404z"/>
	<path fill="none" d="M257.834,115.756c-1.161-0.611-2.322-1.283-3.422-1.956v6.234C255.389,118.323,256.55,117.773,257.834,115.756
		z"/>
	<path fill="none" d="M283.319,115.389c2.078-2.078,2.322-4.95,2.384-5.623c-7.273-0.917-11.001-3.972-12.59-5.684
		c-2.75,1.345-9.351,3.789-15.89-0.611c-5.195-3.484-6.723-7.212-7.945-10.145c-0.611-1.467-1.161-2.811-2.078-3.911
		c-1.528,1.956-2.75,6.417-1.833,10.817c0.489,2.139,1.65,5.011,4.523,6.967c8.067,5.378,15.645,10.39,26.402,10.512
		C279.346,117.773,281.73,116.978,283.319,115.389z"/>
	<path fill="none" d="M244.694,87.643c0.244-0.306,0.489-0.611,0.733-0.856c-0.55-0.856-0.978-1.772-1.344-2.811
		c-1.528-1.467-12.101-11.367-21.024-13.69c-6.295-1.65-14.851-2.445-20.168-2.811c4.889,3.606,13.323,9.534,19.74,13.079
		C230.638,85.015,241.455,87.093,244.694,87.643z"/>
	<path fill="none" d="M252.15,92.166c1.161,2.872,2.383,5.806,6.845,8.801c6.6,4.4,13.384,0.061,13.69-0.122
		c0.367-0.244,0.795-0.367,1.222-0.244c0.428,0.122,0.733,0.367,0.978,0.733c0.122,0.244,4.095,6.356,17.296,5.623
		c13.323-0.733,22.674-5.439,24.996-12.651c2.445-7.578,0.795-16.44-1.345-21.757c-0.306-0.794-0.611-1.528-0.978-2.261
		c-0.061-0.061-0.061-0.061-0.061-0.122c-2.811-5.928-7.334-11.429-14.056-10.451c5.378,4.645,10.145,12.162,10.879,22.429
		c0.978,13.384-7.395,18.029-7.762,18.212c-0.244,0.122-0.489,0.183-0.733,0.183c-0.55,0-1.039-0.244-1.345-0.794
		c-0.428-0.733-0.122-1.65,0.611-2.078c0.306-0.183,6.967-3.972,6.173-15.279c-0.856-12.101-7.823-19.985-14.118-23.346
		c-5.806-3.117-10.206-0.672-10.39-0.55c-0.55,0.367-1.345,0.306-1.833-0.183c0,0-3.056-2.689-9.351-2.872
		c-4.4-0.122-11.734,1.528-14.851,8.067c0,0.061-0.061,0.061-0.061,0.122c-0.55,1.039-0.917,2.261-1.161,3.606
		c-1.589,8.678,6.05,17.112,6.111,17.173c0.611,0.611,0.55,1.589-0.061,2.2c-0.611,0.611-1.589,0.55-2.2-0.061
		c-0.367-0.367-8.801-9.656-6.906-19.862c0.122-0.672,0.306-1.345,0.489-1.956c-2.445,0.428-6.111,1.711-7.456,5.684
		c-2.261,6.784-0.183,13.445,2.628,16.807C250.744,88.743,251.478,90.516,252.15,92.166z M299.82,73.587
		c-0.306-0.794,0.061-1.711,0.856-2.017s1.711,0.061,2.017,0.856c0.367,0.978,3.667,9.656-0.183,13.873
		c-2.995,3.239-7.578,7.517-13.384,6.784c-3.117-0.367-5.011-1.345-6.234-1.956c-0.183-0.122-0.428-0.244-0.611-0.306
		c-1.467,1.283-3.789,2.567-6.417,2.567c-1.895,0-3.972-0.672-6.05-2.506c-0.611-0.55-0.672-1.528-0.122-2.2
		c0.55-0.611,1.528-0.672,2.2-0.122c4.4,3.85,8.373-0.061,8.801-0.55c0.306-0.306,0.672-0.489,1.1-0.489
		c0.917,0,1.65,0.367,2.506,0.795c1.1,0.55,2.567,1.345,5.195,1.65c3.3,0.428,6.723-1.406,10.756-5.806
		C302.448,81.837,300.614,75.604,299.82,73.587z M295.725,77.865c-0.122,1.1-0.733,2.139-1.772,2.995
		c-1.833,1.528-4.828,2.506-7.517,2.506c-0.367,0-0.733,0-1.1-0.061c-4.217-0.489-8.251-4.4-9.412-6.906
		c-0.672-1.345-0.489-2.811,0.367-3.972c1.039-1.345,2.75-1.895,4.584-1.589c2.2,0.428,5.745,0.55,5.806,0.55
		c0.122,0.061,0.244,0.061,0.367,0.061C290.408,72.487,295.97,74.748,295.725,77.865z M265.595,67.475
		c1.161-2.689,3.545-4.706,7.212-6.05c8.617-3.117,13.262,0,14.484,1.039c1.283,1.039,1.895,2.261,1.711,3.3
		c-0.183,0.794-0.978,1.406-1.833,1.222c-0.733-0.183-1.283-0.794-1.283-1.528c-0.489-0.794-4.156-4.034-12.04-1.161
		c-2.811,0.978-4.584,2.445-5.378,4.278c-0.978,2.322,0,4.645,0,4.645c0.367,0.794,0,1.711-0.795,2.078
		c-0.183,0.061-0.428,0.122-0.611,0.122c-0.611,0-1.161-0.306-1.406-0.856C265.595,74.442,264.067,71.081,265.595,67.475z"/>
	<path fill="none" d="M280.324,73.953c-0.183-0.061-0.306-0.061-0.428-0.061c-0.55,0-0.978,0.244-1.161,0.489
		c-0.061,0.122-0.183,0.306,0,0.733c0.733,1.589,3.85,4.767,6.967,5.134c2.078,0.244,4.828-0.489,6.295-1.711
		c0.367-0.306,0.55-0.55,0.611-0.733c-0.428-0.794-3.361-2.322-6.295-3.239C285.458,74.503,282.402,74.32,280.324,73.953z"/>
	<path fill="none" d="M46.987,214.212c1.161,2.811,4.095,4.889,8.801,6.234c-5.256-5.684-7.823-9.595-8.984-12.345
		C46.315,209.995,46.131,212.196,46.987,214.212z"/>
	<path fill="none" d="M52.854,203.089c-0.428-0.183-1.039-0.367-1.65-0.367c-0.794,0-1.528,0.306-1.956,1.222
		c-1.1,2.261,3.117,8.434,10.573,16.257C61.716,211.095,56.949,204.678,52.854,203.089z"/>
	<path fill="none" d="M220.431,30.012c-0.611-0.244-1.1-0.367-1.467-0.367c-0.244,0-0.489,0.061-0.55,0.183
		c-0.061,0.122-2.078,2.75,7.089,16.807c0.122,0.183,0.244,0.367,0.367,0.55c1.711-3.667,1.344-7.028,0.611-9.289
		C225.198,33.74,222.143,30.745,220.431,30.012z"/>
	<g>
		<path fill="#00B497" d="M243.166,90.577c-4.278-0.733-14.24-2.872-22.062-7.212c-5.745-3.178-12.834-8.067-17.846-11.673
			c4.4,6.723,11.551,16.501,17.846,19.557c8.006,3.911,17.54,4.034,20.962,3.911C242.249,93.51,242.616,91.982,243.166,90.577z"/>
		<path fill="#9E968D" d="M176.367,117.039c-0.55-1.283-1.772-3.422-3.911-3.606c-0.489-0.061-1.345-0.061-2.445-0.122
			c-8.189-0.306-33.247-1.283-61.237-11.123C78.95,91.677,63.182,64.053,57.804,52.685c-0.917-1.895-1.528-3.545-2.017-4.828
			c-1.283-3.422-1.589-3.728-2.75-3.667c-2.383,2.995-4.278,29.213,15.034,59.037c21.268,32.758,88.128,45.042,88.8,45.164
			c4.584,0.733,9.351-0.856,11.184-2.261c-2.383-8.678,5.5-25.668,7.884-28.602C176.062,117.345,176.184,117.162,176.367,117.039z"
			/>
		<path fill="#FF8E6C" d="M252.15,92.166c1.161,2.872,2.383,5.806,6.845,8.801c6.6,4.4,13.384,0.061,13.69-0.122
			c0.367-0.244,0.795-0.367,1.222-0.244c0.428,0.122,0.733,0.367,0.978,0.733c0.122,0.244,4.095,6.356,17.296,5.623
			c13.323-0.733,22.674-5.439,24.996-12.651c2.445-7.578,0.795-16.44-1.345-21.757c-0.306-0.794-0.611-1.528-0.978-2.261
			c-0.061-0.061-0.061-0.061-0.061-0.122c-2.811-5.928-7.334-11.429-14.056-10.451c5.378,4.645,10.145,12.162,10.879,22.429
			c0.978,13.384-7.395,18.029-7.762,18.212c-0.244,0.122-0.489,0.183-0.733,0.183c-0.55,0-1.039-0.244-1.345-0.794
			c-0.428-0.733-0.122-1.65,0.611-2.078c0.306-0.183,6.967-3.972,6.173-15.279c-0.856-12.101-7.823-19.985-14.118-23.346
			c-5.806-3.117-10.206-0.672-10.39-0.55c-0.55,0.367-1.345,0.306-1.833-0.183c0,0-3.056-2.689-9.351-2.872
			c-4.4-0.122-11.734,1.528-14.851,8.067c0,0.061-0.061,0.061-0.061,0.122c-0.55,1.039-0.917,2.261-1.161,3.606
			c-1.589,8.678,6.05,17.112,6.111,17.173c0.611,0.611,0.55,1.589-0.061,2.2c-0.611,0.611-1.589,0.55-2.2-0.061
			c-0.367-0.367-8.801-9.656-6.906-19.862c0.122-0.672,0.306-1.345,0.489-1.956c-2.445,0.428-6.111,1.711-7.456,5.684
			c-2.261,6.784-0.183,13.445,2.628,16.807C250.744,88.743,251.478,90.516,252.15,92.166z"/>
		<path fill="#FF8E6C" d="M283.319,115.389c2.078-2.078,2.322-4.95,2.384-5.623c-7.273-0.917-11.001-3.972-12.59-5.684
			c-2.75,1.345-9.351,3.789-15.89-0.611c-5.195-3.484-6.723-7.212-7.945-10.145c-0.611-1.467-1.161-2.811-2.078-3.911
			c-1.528,1.956-2.75,6.417-1.833,10.817c0.489,2.139,1.65,5.011,4.523,6.967c8.067,5.378,15.645,10.39,26.402,10.512
			C279.346,117.773,281.73,116.978,283.319,115.389z"/>
		<path fill="#00B497" d="M157.911,271.049c0.183-0.061,0.428-0.061,0.611-0.122c10.023-8.434,11.062-26.218,10.878-35.141
			c-1.65,5.134-4.339,11.123-12.223,12.773c-2.078,2.445-13.201,16.195-14.484,28.663c2.2,0,4.339,0.611,6.234,1.467
			C150.21,276.305,153.083,272.088,157.911,271.049z"/>
		<path fill="#00B497" d="M244.694,87.643c0.244-0.306,0.489-0.611,0.733-0.856c-0.55-0.856-0.978-1.772-1.344-2.811
			c-1.528-1.467-12.101-11.367-21.024-13.69c-6.295-1.65-14.851-2.445-20.168-2.811c4.889,3.606,13.323,9.534,19.74,13.079
			C230.638,85.015,241.455,87.093,244.694,87.643z"/>
		<path fill="#FFAB4D" d="M154.427,179.866c0.367,2.017,0.733,3.911,1.406,4.584c0.183,0.183,0.794,0.489,1.406,0.794
			c2.445,1.222,6.723,3.422,8.434,9.412c2.689,0,4.828-0.917,6.295-2.567c-0.183-1.711-0.244-3.667,0-5.928
			c0.306-3.239,0.978-5.806,1.772-8.006c-1.1-3.239-4.4-10.817-11.551-11.429c-6.173-0.55-9.534,2.689-10.817,4.278
			c0.978,1.467,1.65,2.872,1.956,3.972C153.816,176.749,154.183,178.399,154.427,179.866z"/>
		<path fill="#FFAB4D" d="M134.442,253.631c5.5-3.911,7.7-9.717,7.823-10.084c0.183-0.611,0.672-0.978,1.283-1.039
			c0.55-0.061,1.161,0.244,1.467,0.733c0.122,0.122,2.811,4.034,11.184,2.506c7.517-1.406,9.351-7.456,10.94-12.773
			c0.244-0.733,0.428-1.528,0.672-2.2c0.55-1.833,1.589-3.361,2.689-4.767c0.244-8.189,2.139-13.384,3.545-17.357
			c0-0.061,0.061-0.122,0.061-0.183c-2.261-4.4-6.478-5.561-8.312-5.867c-1.467,3.972-5.134,6.417-8.067,7.639
			c0.917,2.75,2.322,8.556,0,14.118c-1.833,4.339-5.623,7.578-11.184,9.595c-0.856,0.306-1.711-0.122-2.017-0.917
			c-0.306-0.856,0.122-1.711,0.917-2.017c4.706-1.711,7.884-4.339,9.351-7.884c2.628-6.111-0.489-13.14-0.55-13.201
			c-0.183-0.367-0.183-0.856,0-1.283c0.183-0.428,0.55-0.733,0.978-0.856c0.367-0.122,9.106-2.628,8.006-10.267
			c-0.917-6.234-4.767-8.189-7.273-9.473c-0.917-0.489-1.65-0.856-2.2-1.406c-1.345-1.345-1.772-3.484-2.261-6.234
			c-0.306-1.406-0.55-2.995-1.039-4.645c-0.244-0.978-0.917-2.261-1.895-3.606c-0.183-0.183-0.306-0.306-0.367-0.489
			c-3.606-4.706-11.245-10.328-21.574-8.862c-4.828,0.672-8.128,2.75-10.39,5.195c-0.061,0.061-0.183,0.183-0.244,0.244
			c-2.322,2.628-3.484,5.561-4.034,7.578c0,0.061,0,0.183-0.061,0.244c-0.244,1.161-0.367,1.895-0.367,2.017
			c-0.061,0.794-0.733,1.406-1.528,1.406c-0.061,0-0.061,0-0.122,0c-0.55,0-3.361,0.061-6.6,1.283
			c-0.183,0.061-0.306,0.122-0.489,0.183c-3.545,1.467-7.456,4.278-9.412,9.901c-4.095,11.673,3.911,22.551,3.972,22.674
			c0.244,0.306,0.367,0.733,0.306,1.161c-0.061,0.428-0.306,0.794-0.672,1.039c-0.183,0.183-5.195,3.728-4.278,11.429
			c0.489,3.911,3.117,7.823,7.028,10.512c5.011,3.484,11.49,4.4,18.151,2.689c14.179-3.667,18.518-12.406,18.579-12.467
			c0.367-0.795,1.283-1.1,2.078-0.733c0.794,0.367,1.1,1.283,0.733,2.078c-0.183,0.367-4.95,10.084-20.596,14.118
			c-2.445,0.611-4.889,0.917-7.212,0.917c-4.95,0-9.595-1.345-13.506-4.034c-2.445-1.711-4.4-3.789-5.867-6.05
			c0.306,1.895,1.161,3.667,1.956,5.134c4.523,8.006,15.951,16.746,27.196,17.601c5.378,0.428,9.473-1.039,12.834-3.056
			C134.198,253.815,134.32,253.693,134.442,253.631z M98.69,197.1c3.3-18.334,25.791-18.518,26.035-18.518
			c0.856,0,1.528,0.672,1.528,1.528c0,0.856-0.672,1.528-1.528,1.528c-0.794,0-20.107,0.244-22.979,15.951
			c-2.811,15.462,8.984,18.212,9.473,18.335c0.856,0.183,1.406,0.978,1.222,1.833c-0.183,0.733-0.794,1.222-1.528,1.222
			c-0.061,0-0.183-0.061-0.306-0.061C110.485,218.857,95.329,215.496,98.69,197.1z M116.047,213.662
			c0.856,0.183,1.406,0.978,1.283,1.833c-0.122,0.733-0.794,1.283-1.528,1.283c-0.061,0-0.183,0-0.244,0
			c-5.195-0.917-8.312-5.745-8.434-13.262c-0.122-7.273,4.217-10.878,8.617-11.245c2.995-0.244,6.234-1.039,6.295-1.039
			c0.856-0.183,1.711,0.306,1.895,1.161c0.183,0.856-0.306,1.711-1.161,1.895c-0.122,0.061-3.545,0.856-6.723,1.1
			c-2.75,0.244-5.867,2.506-5.867,8.006C110.241,206.879,111.097,212.807,116.047,213.662z M116.414,227.169
			c-0.122,0.061-0.856,0.122-1.956,0.122c-3.606,0-11.184-0.856-14.545-7.762c-0.367-0.794-0.061-1.711,0.733-2.078
			c0.795-0.367,1.711-0.061,2.078,0.733c3.361,6.967,13.14,5.928,13.262,5.928c0.856-0.061,1.589,0.55,1.772,1.345
			C117.88,226.313,117.269,227.046,116.414,227.169z M126.375,206.879c-1.406,0.917-3.606,1.1-5.5,1.1
			c-1.406,0-2.628-0.122-3.056-0.183c-0.367-0.061-0.733-0.183-0.978-0.489c-1.711-1.833-1.772-4.217-0.183-6.539
			c2.078-3.056,7.578-6.05,10.267-4.95c1.345,0.55,2.2,1.895,2.383,3.728C129.553,202.05,128.392,205.656,126.375,206.879z
			 M129.003,221.485c-0.856,0-1.528-0.672-1.528-1.528c0-0.856,0.672-1.528,1.528-1.528c0.061,0,7.212-0.122,7.762-4.645
			c0.611-5.134-1.711-7.762-1.833-7.884c-0.367-0.367-0.489-0.978-0.367-1.467c0.122-0.55,0.55-0.978,1.039-1.1
			c0.244-0.061,6.784-2.139,5.928-9.534c-0.856-7.395-7.823-7.517-8.128-7.517c-0.856-0.061-1.528-0.733-1.528-1.589
			c0-0.856,0.672-1.528,1.528-1.528c3.422,0,10.206,2.139,11.184,10.267c0.794,6.6-3.056,10.451-6.234,12.101
			c0.917,1.711,1.895,4.584,1.528,8.556C139.026,221.424,129.431,221.485,129.003,221.485z"/>
		<path fill="#FF8E6C" d="M80.661,266.955c1.406,0,9.534,0.611,13.995,2.567c0-0.061-0.061-0.122-0.061-0.183
			c-1.039-2.689-2.567-3.545-2.628-3.606c0-0.061-0.061-0.061-0.061-0.061c0-0.061-0.061-0.061-0.061-0.061
			c-8.251-5.439-29.274-6.234-39.419-1.528c-1.956,0.917-4.4,2.445-4.645,4.584c-0.917,7.15,4.584,9.84,6.661,10.634
			C62.204,271.538,76.383,266.955,80.661,266.955z"/>
		<path fill="#FF8E6C" d="M67.705,302.768c1.711,1.039,3.422,1.406,4.339,1.345c-1.161-2.139-5.011-7.15-7.517-7.395
			c-0.244,0-0.611-0.061-1.1,0.55C64.038,298.551,65.688,301.423,67.705,302.768z"/>
		<path fill="#FF8E6C" d="M103.396,284.006c-0.367-0.733-0.611-1.528-0.611-2.567c-0.306-0.733-3.667-1.283-4.95-1.467
			c-2.689-0.428-4.645-0.733-4.95-2.445c-0.183-1.039,0.306-2.139,0.917-3.422c0.183-0.489,0.428-0.978,0.611-1.467
			c-1.833-1.1-8.984-2.689-13.629-2.689c-4.339,0-27.013,7.884-28.174,19.068c-0.367,3.361,0.244,5.867,1.833,7.456
			c2.322,2.322,6.05,1.956,6.111,1.956c0.061,0,0.061,0,0.122,0c-0.183-0.428-0.306-0.672-0.306-0.733
			c-0.183-0.428-0.183-0.856,0-1.283c1.161-2.506,3.3-3.422,5.745-2.628c4.217,1.406,9.84,9.045,9.412,11.184
			c-0.183,0.856-0.733,1.467-1.589,1.833c-0.611,0.244-1.283,0.367-2.017,0.367c-1.833,0-4.034-0.672-5.867-1.833
			c-1.589-0.978-2.934-2.628-3.911-4.095c0,2.628,0.367,7.334,2.261,9.534c2.689,3.178,10.451,5.806,22.49-4.278
			C97.468,297.451,102.235,286.817,103.396,284.006z"/>
		<path fill="#FFAB4D" d="M125.764,198.628c-0.917-0.244-5.073,1.467-6.662,4.034c-0.611,0.978-0.55,1.589-0.306,2.078
			c2.078,0.183,4.95,0.122,5.928-0.489c0.672-0.428,1.65-2.628,1.467-4.523C126.192,199.3,126.009,198.75,125.764,198.628z"/>
		<path fill="#00B497" d="M96.979,151.875c7.028,7.884,11.184,15.401,13.262,19.618c0.733-1.589,1.65-3.239,2.995-4.828
			c-2.567-13.812-18.335-22.49-29.274-26.891C87.873,142.83,92.518,146.864,96.979,151.875z"/>
		<path fill="#00B497" d="M108.591,176.443c0.061-0.244,0.122-0.489,0.183-0.733c-0.856-2.017-5.134-11.673-14.118-21.757
			c-7.028-7.945-14.729-13.445-18.823-16.134c3.728,18.457,10.512,28.296,15.707,33.369c5.134,4.95,9.656,6.356,10.817,6.662
			C104.924,176.932,107.185,176.565,108.591,176.443z"/>
		<path fill="#00B497" d="M321.577,84.404c0.061,0.061,0.122,0.061,0.183,0.061c3.239-2.689,20.779-17.357,25.913-31.963
			c-7.884,1.833-22.857,12.467-29.396,17.54c0.183,0.428,0.367,0.917,0.55,1.345C320.232,74.931,321.393,79.515,321.577,84.404z"/>
		<path fill="#00B497" d="M136.215,255.77c-0.122,0.244-0.306,0.611-0.611,1.1c-1.833,3.3-7.089,12.773-7.7,25.485
			c2.995-2.445,6.845-4.034,11.551-4.828c0.978-11.245,9.167-23.101,13.323-28.48c-4.339,0.061-7.15-1.283-8.739-2.506
			C142.754,248.926,140.31,252.776,136.215,255.77z"/>
		<path fill="#FF8E6C" d="M206.314,436.06c0.733-0.306,1.528-2.689,0.733-5.134c-0.794-2.383-5.011-5.5-8.739-7.823
			c0.794,2.383,2.261,5.867,4.767,9.901C204.664,435.571,205.886,436.243,206.314,436.06z"/>
		<path fill="#FF8E6C" d="M202.28,437.16c-0.55-0.611-1.161-1.467-1.833-2.506c-1.711-2.689-2.934-5.195-3.85-7.273
			c-0.244,3.484,0.061,7.395,1.895,9.045C199.347,437.221,200.63,437.465,202.28,437.16z"/>
		<path fill="#FF8E6C" d="M46.987,214.212c1.161,2.811,4.095,4.889,8.801,6.234c-5.256-5.684-7.823-9.595-8.984-12.345
			C46.315,209.995,46.131,212.196,46.987,214.212z"/>
		<path fill="#FF8E6C" d="M105.718,286.145c-1.711,3.972-6.723,13.995-16.99,22.735c-2.383,2.017-4.645,3.606-6.784,4.767
			c-0.061,1.039,0.061,3.117,1.283,4.767c0.978,1.345,2.567,2.2,4.706,2.506c7.395,1.1,12.712-2.261,16.929-10.573
			c3.422-6.784,2.078-20.474,1.406-24.018C106.085,286.267,105.902,286.206,105.718,286.145z"/>
		<path fill="#FF8E6C" d="M52.854,203.089c-0.428-0.183-1.039-0.367-1.65-0.367c-0.794,0-1.528,0.306-1.956,1.222
			c-1.1,2.261,3.117,8.434,10.573,16.257C61.716,211.095,56.949,204.678,52.854,203.089z"/>
		<path fill="#FF8E6C" d="M312.593,385.273c0.611,3.056,2.261,4.584,3.545,5.317c1.161,0.733,2.628,0.978,3.911,0.794
			c-2.872-5.989-5.073-15.523-6.234-21.268C313.632,370.972,311.431,379.467,312.593,385.273z"/>
		<path fill="#FF8E6C" d="M426.878,228.941c0.55-1.222,1.283-2.689,1.344-3.3c-0.061,0-0.061-0.061-0.061-0.061
			c-0.244-0.061-0.733-0.183-1.833-0.183c-2.934,0-7.7,6.906-9.289,15.89c4.95-5.073,8.556-9.595,9.473-11.551L426.878,228.941z"/>
		<path fill="#00B497" d="M325.06,85.749c0.55,0.306,1.039,0.733,1.528,1.222c0.183,0.122,0.306,0.306,0.428,0.489
			c9.778-2.934,16.318-9.84,19.496-20.474c0.794-2.75,1.283-5.378,1.528-7.7C341.684,71.203,329.766,81.837,325.06,85.749z"/>
		<path fill="#00B497" d="M337.1,125.229c11.184,1.039,17.846-1.345,21.451-3.545c-1.283,0.122-2.506,0.183-3.789,0.183
			c-15.89,0-31.23-7.212-35.324-9.289c-0.244,0.183-0.489,0.428-0.733,0.672c-1.345,1.222-2.628,2.261-3.911,3.117
			C316.565,118.628,322.188,123.823,337.1,125.229z"/>
		<path fill="#FF8E6C" d="M325.549,95.283c0-0.611,0.061-1.222,0.061-1.956c0.183-4.217-2.506-5.439-4.095-5.806
			c-0.122,2.567-0.55,5.195-1.345,7.701c-2.75,8.434-13.14,13.995-27.807,14.79c-0.794,0.061-1.528,0.061-2.261,0.061
			c-0.367,0-0.672,0-0.978,0c0.733,1.589,2.445,4.828,5.073,5.989c3.422,1.528,12.529,4.034,22.368-5.134
			C325.366,102.739,325.427,100.844,325.549,95.283z"/>
		<path fill="#00B497" d="M321.76,110.195c5.5,2.689,22.307,9.901,37.83,8.251c-2.139-1.467-5.623-3.789-11.123-6.906
			c-8.923-5.073-19.068-6.417-22.185-6.723C325.305,106.344,323.838,108.056,321.76,110.195z"/>
		<path fill="#FF8E6C" d="M317.36,366.694c-0.367-0.55-0.917-1.1-1.283-1.345c0.489,3.056,3.178,17.846,7.028,25.302
			c3.789,7.334,13.384,13.934,17.051,15.523c-0.306-1.833-1.222-5.195-2.75-9.351c-0.061-0.122-0.122-0.183-0.122-0.306
			c-3.545-9.717-9.962-23.529-17.173-31.596c0,0.244,0.061,0.55,0.061,0.733c0.061,0.672-0.367,1.345-1.039,1.589
			S317.726,367.244,317.36,366.694z"/>
		<path fill="#FF8E6C" d="M343.089,388.818c1.467-2.872-0.061-7.517-4.4-13.445c-4.706-6.478-10.817-10.328-12.834-11.49
			c-0.55,0-1.222-0.183-2.017-0.428c-0.306-0.061-0.672-0.183-1.161-0.306c6.723,7.7,12.895,20.168,16.684,30.13
			C340.767,391.874,342.539,389.979,343.089,388.818z"/>
		<path fill="#FF8E6C" d="M429.322,235.908c0.856-1.65,1.039-3.667,0.55-5.989c-0.061,0.122-0.122,0.244-0.183,0.367l-0.367,0.733
			c-0.978,2.139-4.156,6.111-8.373,10.634C424.005,240.736,427.672,239.025,429.322,235.908z"/>
		<path fill="#00B497" d="M191.402,341.515c-1.467,2.567-3.178,4.95-5.195,6.967c2.383,1.833,6.539,6.234,9.412,14.973
			c2.628,8.067,7.639,16.195,10.39,20.535c-0.367-8.495-4.461-31.413-11.123-39.908
			C193.663,342.493,192.502,341.637,191.402,341.515z"/>
		<path fill="#FF8E6C" d="M381.531,262.921c0.306-0.489,0.795-1.711,0.489-2.75c-1.528,0.183-2.995,0.306-4.339,0.306
			c-5.5,0-9.228-1.589-12.101-3.178c-4.339-2.383-8.923-7.028-10.023-8.128c-0.306-0.122-0.55-0.183-0.795-0.306
			c-0.061,0.061-0.122,0.122-0.183,0.244c-0.183,0.428-0.428,1.467,0.428,3.667c2.2,5.867,8.312,14.79,15.89,15.462
			C375.847,268.666,380.003,265.854,381.531,262.921z"/>
		<path fill="#FF8E6C" d="M385.564,218.979c-0.55-0.061-1.1-0.061-1.528-0.061c-1.589,0-2.567,0.306-2.811,0.733
			c-0.978,1.772-0.917,6.478-0.183,7.273c2.139,0,4.889-0.856,6.295-1.65C387.397,224.541,386.97,222.463,385.564,218.979z"/>
		<path fill="#00B497" d="M386.053,281.194c-13.445-2.934-21.207-2.628-24.324-2.322c0,0.122,0.061,0.306,0.061,0.428
			c1.467,0.55,2.75,1.283,3.728,2.2c1.161,1.161,2.139,2.078,2.995,2.934c2.2,2.139,3.545,3.422,4.278,3.422
			c0.183-0.061,0.672-0.122,1.039-0.244c3.422-0.856,11.49-2.811,18.823,6.539c0.244,0.306,0.489,0.611,0.733,0.978
			c8.189-0.489,17.662-5.684,23.59-9.412c-0.306,0-0.611,0-0.978,0C408.91,285.717,398.826,283.944,386.053,281.194z"/>
		<path fill="#FF8E6C" d="M376.519,231.386c-8.434-1.345-17.907,2.322-19.312,2.934c-1.1,0.917-3.545,3.545-2.934,5.806
			c0.367,1.589,1.039,2.383,1.711,3.178c0.733,0.917,1.589,2.017,1.895,3.85c1.161,1.222,5.378,5.378,9.167,7.456
			c3.911,2.139,9.167,4.034,18.701,1.65c3.3-0.856,5.745-2.689,7.334-5.5c1.895-3.3,1.956-7.15,1.222-9.473
			C392.959,237.008,385.503,232.852,376.519,231.386z"/>
		<path fill="#00B497" d="M381.53,267.81c-2.322,2.017-5.623,3.545-9.534,3.545c-0.428,0-0.917,0-1.345-0.061
			c-2.017-0.122-3.911-0.733-5.623-1.65c-2.75,0.122-5.806,1.1-8.067,1.956c1.833,1.345,2.934,2.811,3.667,4.156
			c2.995-0.428,11.184-0.978,26.096,2.261c14.484,3.117,28.541,5.684,34.774,3.911C409.521,267.688,385.381,267.749,381.53,267.81z"
			/>
		<path fill="#FFAB4D" d="M390.331,326.481c-0.122-0.122-0.122-0.244-0.183-0.367c-1.772-3.3-4.095-5.378-4.278-5.561
			c0-0.061,0-0.061,0-0.061c-0.122-0.061-0.183-0.122-0.244-0.244c-0.061-0.061-0.122-0.183-0.183-0.306v-0.061
			c-0.061-0.061-0.061-0.061-0.061-0.122s0-0.122,0-0.183v-0.061c-0.061-0.122,0-0.244,0-0.367c0.061-0.122,0.061-0.183,0.122-0.306
			c0.061,0,0.061-0.061,0.061-0.061c0.061-0.061,0.122-0.183,0.183-0.244c0.061,0,0.061-0.061,0.061-0.061
			c0.122-0.122,0.183-0.183,0.306-0.244c0-0.061,0.061-0.061,0.061-0.061c0.061-0.061,0.122-0.061,0.244-0.122h0.061
			c0.978-0.428,4.767-4.95,6.05-10.512c1.039-4.461,0.244-8.312-2.261-11.551c-6.112-7.762-12.529-6.173-15.645-5.439
			c-0.733,0.183-1.283,0.306-1.772,0.306c-2.078,0-3.545-1.467-6.478-4.339c-0.795-0.794-1.772-1.772-2.934-2.872
			c-4.156-3.972-19.373-3.85-28.724,3.728c-7.578,6.173-8.678,12.59-9.289,16.073c-0.183,0.794-0.244,1.406-0.428,1.956
			c-0.733,2.567-3.728,5.5-10.206,10.206c-0.611,0.489-1.344,2.995-0.733,8.006c1.222,10.084,6.6,22.613,13.201,25.302
			c10.328,4.217,15.401-0.061,15.584-0.244c0.306-0.244,0.672-0.367,1.039-0.367c0.122,0,0.306,0,0.428,0.061
			c0.489,0.122,0.856,0.55,1.039,1.039c0,0.122,0.55,1.772,2.322,3.728c0.122,0.061,0.244,0.183,0.306,0.306
			c2.322,2.384,6.417,5.134,13.568,6.05c3.728,0.489,6.784-0.244,8.984-2.139c3.3-2.872,4.034-7.578,4.217-9.289
			c-1.1-0.306-2.078-0.611-2.75-0.856c-0.367-0.122-0.733-0.244-0.978-0.306c-2.628-0.795-6.478-0.367-12.895,1.283
			c-7.212,1.895-23.346-0.367-27.441-11.123c-0.306-0.794,0.122-1.711,0.917-2.017s1.711,0.122,2.017,0.917
			c3.3,8.678,17.234,10.94,23.713,9.228c6.967-1.772,11.367-2.2,14.545-1.283c0.306,0.061,0.672,0.183,1.161,0.367
			c6.723,2.261,14.912,3.789,18.212-4.4c2.017-5.134,0.917-9.717-0.795-13.262C390.392,326.542,390.331,326.542,390.331,326.481z
			 M327.138,323.914c0,0.856-0.672,1.589-1.528,1.589s-1.528-0.672-1.528-1.528c-0.183-16.929,6.478-26.157,12.04-30.924
			c6.111-5.195,12.223-6.295,12.467-6.356c0.856-0.122,1.711,0.428,1.833,1.283c0.122,0.856-0.428,1.711-1.283,1.833
			C348.223,289.995,326.955,294.212,327.138,323.914z M374.808,329.842c-3.056,6.173-8.067,8.434-11.795,8.434
			c-2.567,0-4.706-1.406-6.112-2.567c-1.1,1.833-2.995,4.156-5.623,4.156c-8.801,0-10.756-3.911-11.184-6.234
			c-0.794-4.645,2.628-18.885,11.184-23.957c7.823-4.645,11.429-3.545,12.101-3.3l-1.217,2.859c0.033,0.008,0.055,0.013,0.055,0.013
			h-0.061l0.006-0.013c-0.402-0.09-3.255-0.544-9.295,3.069c-6.906,4.095-10.39,16.868-9.717,20.779
			c0.55,3.056,4.706,3.667,8.128,3.667c1.161,0,2.383-1.65,3.178-3.056c-1.528-1.222-3.728-4.034-2.567-9.778
			c1.161-5.989,6.6-8.923,10.023-8.801c2.139,0.061,2.995,1.283,3.117,2.383c0.244,2.322-3.239,11.917-6.356,15.645
			c0.978,0.856,2.567,2.017,4.278,2.017c3.178,0,7.639-2.322,9.901-8.862c2.2-6.295-4.461-13.751-4.523-13.812
			c-0.55-0.611-0.489-1.65,0.122-2.2c0.611-0.55,1.65-0.489,2.2,0.122c0.306,0.306,5.5,6.112,5.806,12.651
			c1.161-2.261,2.017-4.889,1.467-6.784c-0.55-2.017-1.1-2.689-1.711-3.422c-0.733-0.856-1.589-1.895-2.2-4.461
			c-0.611-2.689-1.772-3.178-4.095-4.156c-0.672-0.306-1.467-0.611-2.261-1.039c-2.078-1.039-3.972-2.75-5.684-4.278
			c-1.345-1.161-2.628-2.322-3.484-2.689c-2.078-0.917-8.984,2.995-12.712,5.134c-5.011,2.872-4.706,6.295-4.461,8.801
			c0.061,0.672,0.122,1.222,0.061,1.772c-0.244,1.65-1.65,2.078-2.567,2.384c-1.345,0.428-3.117,0.978-4.95,4.4
			c-2.628,4.767,2.445,8.006,3.056,8.373c0.733,0.428,0.978,1.406,0.55,2.139c-0.428,0.733-1.406,0.978-2.139,0.55
			c-2.872-1.711-7.456-6.539-4.217-12.529c2.445-4.461,5.134-5.378,6.723-5.867c0.122,0,0.306-0.061,0.428-0.122
			c0-0.244-0.061-0.55-0.061-0.794c-0.244-2.567-0.733-7.945,6.05-11.795c8.067-4.645,12.467-6.662,15.462-5.317
			c1.345,0.611,2.689,1.833,4.278,3.239c1.528,1.406,3.3,2.995,5.011,3.85c0.733,0.428,1.406,0.672,2.078,0.978
			c2.567,1.1,4.95,2.139,5.928,6.356c0.428,1.833,0.917,2.445,1.528,3.178c0.733,0.856,1.589,1.895,2.384,4.461
			C382.386,320.613,377.925,327.886,374.808,329.842z"/>
		<path fill="#FFAB4D" d="M361.668,318.352c-0.55,0-1.406,0.122-2.445,0.611c-1.1,0.489-3.606,2.078-4.339,5.623
			c-0.856,4.156,0.489,5.989,1.406,6.723c1.895-2.139,5.378-10.451,5.623-12.956C361.851,318.352,361.729,318.352,361.668,318.352z"
			/>
		<path fill="#00B497" d="M416.977,314.93c3.056,0.55,5.745,0.733,7.884,0.733c-5.195-2.445-13.017-5.989-17.846-6.845
			c-5.439-0.917-9.901-0.244-11.673,0.122c-0.061,0.244-0.122,0.428-0.183,0.672c-0.795,2.75-2.2,5.378-3.606,7.456
			C398.398,315.785,410.682,313.769,416.977,314.93z"/>
		<path fill="#00B497" d="M389.964,320.552c0.917,1.039,1.956,2.506,2.934,4.278c0.061,0,0.061,0.061,0.122,0.122
			c1.344,2.139,8.251,5.256,21.146,1.222c7.212-2.261,11.245-5.317,13.384-7.456c-2.628,0.183-6.478,0.122-11.123-0.733
			C409.949,316.824,395.892,319.391,389.964,320.552z"/>
		<path fill="#00B497" d="M379.697,204.495c0,0.367-0.061,0.794-0.122,1.161c1.528,0.367,2.995,0.856,4.4,1.467
			c4.95-0.611,12.651-9.778,15.279-13.384c2.2-2.872,3.3-7.334,3.85-11.001c-2.628,3.484-6.295,8.189-9.84,11.917
			C388.07,200.095,382.019,203.334,379.697,204.495z"/>
		<path fill="#00B497" d="M391.064,192.516c4.339-4.523,8.984-10.756,11.306-14.056c-7.456,0.733-20.046,11.184-25.852,16.562
			c1.467,1.895,2.383,4.034,2.872,6.111C382.019,199.789,386.909,196.856,391.064,192.516z"/>
		<path fill="#FF8E6C" d="M366.741,208.345c-10.023,2.261-16.44,11.917-18.273,14.973c0.367,0.55,0.489,1.222,0.611,1.833
			c0.183,1.1,0.428,2.261,1.833,3.422c2.139,1.772,4.461,2.445,5.378,2.689c2.261-0.917,11.856-4.522,20.779-3.056
			c0.428,0.061,0.917,0.183,1.344,0.244l-0.061-0.061c-1.528-2.628-0.917-8.189,0.244-10.328c1.345-2.322,4.767-2.506,7.395-2.2
			c1.161,0.122,2.139,0.856,2.567,1.956c1.589,4.034,2.078,6.417,1.956,7.823c1.772,0.795,3.361,1.161,3.972,0.978
			c0.489-1.833,0.611-4.034-0.367-6.356C390.942,212.501,378.536,205.778,366.741,208.345z"/>
		<path fill="#00B497" d="M372.608,359.727c-1.589,1.406-3.484,2.322-5.623,2.75c4.828,4.278,14.79,13.445,21.207,21.146
			c-1.895-7.212-5.989-18.396-14.362-25.118C373.463,358.933,373.035,359.36,372.608,359.727z"/>
		<path fill="#FF8E6C" d="M365.946,205.412c3.606-0.795,7.15-0.856,10.573-0.367c0.061-0.367,0.122-0.856,0.061-1.467v-0.061
			c-0.061-1.222-0.428-2.811-1.222-4.461c-0.489-0.917-1.161-2.017-2.139-2.934c-1.222-1.283-2.995-2.261-5.439-2.506
			c-7.7-0.794-13.995,4.156-19.862,15.584c-2.628,5.073-1.895,8.617-0.978,10.634C349.873,215.435,356.351,207.551,365.946,205.412z
			"/>
		<path fill="#FF8E6C" d="M383.547,229.919c2.567,0.794,4.889,1.833,6.845,2.995c0.489-0.489,1.65-1.589,2.75-3.178
			c-1.711-0.244-3.422-0.917-4.523-1.467C387.214,229.002,385.381,229.613,383.547,229.919z"/>
		<path fill="#9E968D" d="M449.857,47.857c-0.489,1.283-1.1,2.934-2.017,4.828c-5.378,11.367-21.146,38.991-50.97,49.503
			c-13.568,4.767-27.257,7.945-41.68,9.717c7.028,4.278,9.29,6.356,9.412,6.478l0.061,0.061c0.061,0,0.061,0.061,0.122,0.122
			c0,0.061,0.061,0.061,0.061,0.122c0,0,0.061,0.061,0.061,0.122c0.061,0.061,0.061,0.061,0.061,0.122
			c0,0.061,0.061,0.122,0.061,0.183v0.061v0.061c0,0.061,0,0.122,0,0.183c0,0.061,0,0.061,0,0.122c0,0.061,0,0.122,0,0.183
			c0,0.061,0,0.061,0,0.122c0,0.122-0.061,0.306-0.183,0.489c-0.244,0.367-5.561,8.312-22.429,8.312
			c-1.772,0-3.606-0.061-5.623-0.244c-0.611-0.061-1.222-0.122-1.833-0.183c1.833,4.889,4.156,12.773,2.689,17.968
			c1.833,1.345,6.539,2.689,11.123,1.956c0.672-0.122,67.349-11.734,88.617-44.492c19.312-29.824,17.54-56.47,15.218-59.465
			C451.446,44.129,451.141,44.435,449.857,47.857z"/>
		<path fill="#FFAB4D" d="M183.212,328.192c4.278-14.668-1.65-19.007-1.711-19.068c-0.489-0.367-0.733-1.039-0.611-1.65
			c0.183-0.672,0.672-1.1,1.283-1.222c0.122,0,2.995-0.55,3.972-3.484c0.611-1.833,1.161-6.173-0.489-11.184
			c-0.306-0.244-0.611-0.489-0.917-0.733c-1.1-0.978-2.383-3.667-3.667-7.395c-0.183-0.061-0.428-0.183-0.611-0.367
			c-0.733-0.733-1.528-1.528-2.383-2.2c-9.84-8.006-14.056-7.823-19.801-6.6c-3.667,0.794-5.928,4.156-6.906,6.05
			c3.178,1.956,5.195,4.217,5.378,4.4c0.55,0.611,0.489,1.65-0.122,2.2c-0.611,0.55-1.65,0.489-2.2-0.122
			c0-0.061-2.139-2.384-5.256-4.217c-0.122,0-0.244,0-0.367-0.061c-0.306-0.122-0.489-0.306-0.672-0.489
			c-2.2-1.1-4.645-1.895-7.212-1.528c-7.701,1.039-17.968,4.523-18.457,23.04c-0.489,18.396,5.317,27.624,17.784,28.113
			c5.806,0.244,10.145-2.75,12.773-5.256c1.406-1.406,2.567-2.811,3.484-4.156c-0.428,0.122-0.856,0.244-1.283,0.244
			c-2.506,0.183-4.461-0.856-5.745-1.833c-1.039,1.772-2.995,3.484-6.295,3.972c-0.244,0.061-0.489,0.061-0.733,0.061
			c-1.589,0-3.3-0.733-4.889-2.2c-3.85-3.545-7.089-11.184-6.906-16.318c0.244-6.784,3.545-11.49,3.667-11.673
			c0.55-0.672,1.467-0.856,2.2-0.367c0.672,0.55,0.856,1.528,0.367,2.2c-0.061,0-2.872,4.156-3.117,9.962
			c-0.183,4.278,2.628,10.878,5.928,13.873c0.794,0.733,2.017,1.589,3.117,1.406c3.972-0.55,4.523-3.545,4.584-3.85
			c0.061-0.611,0.55-1.161,1.161-1.283c0.672-0.122,1.283,0.122,1.65,0.611c0.061,0.122,1.956,2.628,4.889,2.384
			c2.995-0.183,6.111-5.011,5.867-11.612c-0.244-6.845-4.523-12.162-4.584-12.223c-0.55-0.672-0.489-1.65,0.183-2.2
			c0.672-0.55,1.65-0.489,2.2,0.183c0.183,0.244,5.011,6.112,5.317,14.056c0.122,3.3-0.489,6.356-1.65,8.862
			c-0.183,2.811-2.995,8.128-7.089,12.101c-2.934,2.811-7.762,6.112-14.24,6.112c-0.306,0-0.55,0-0.794,0
			c-6.05-0.244-10.756-2.261-14.179-5.989c-0.672,0.367-1.65,1.1-2.322,2.383c-1.039,2.078-0.856,5.073,0.55,8.739
			c4.034,10.328,10.94,14.912,23.163,15.462c10.756,0.489,13.14-9.84,13.262-10.267c0.183-0.672,0.672-1.161,1.345-1.222
			s1.283,0.244,1.589,0.856c0.122,0.183,0.978,0.55,2.811,0.244C171.6,344.143,180.34,339.009,183.212,328.192z M146.054,311.569
			c-0.428,0.183-0.856,0.306-1.283,0.306c-0.611,0-1.283-0.183-1.895-0.611c-2.261-1.467-3.361-5.134-2.995-9.778
			c0.183-2.872,1.161-5.011,2.75-6.356c1.65-1.345,3.422-1.345,4.034-1.345c0.489,0,1.161,0.122,1.772,0.672
			c1.772,1.528,2.628,5.745,2.628,7.639C151.066,304.785,148.316,310.407,146.054,311.569z M158.888,340.904
			c-2.75,0.917-5.684,1.222-8.556,1.222c-7.273,0-13.812-2.2-14.179-2.322c-0.794-0.244-1.222-1.161-0.978-1.956
			s1.161-1.222,1.956-0.978c0.122,0.061,11.979,3.973,20.779,1.039c4.4-1.467,10.451-6.234,13.995-13.506
			c2.078-4.217,3.972-10.878,1.222-18.396c-0.122-0.244-0.122-0.55-0.061-0.794c-0.55-0.489-0.733-1.283-0.367-1.956
			c0.122-0.244,3.056-5.684-1.345-12.651c-1.345-2.078-2.872-3.361-4.584-3.667c-2.506-0.489-4.767,1.1-4.767,1.1
			c-0.733,0.489-1.711,0.306-2.2-0.367c-0.55-0.672-0.367-1.65,0.306-2.139c0.183-0.061,3.361-2.384,7.212-1.65
			c2.628,0.489,4.828,2.2,6.662,5.073c4.706,7.517,2.445,13.69,1.65,15.401c0.183,0.183,0.367,0.367,0.428,0.611
			c3.117,8.556,0.978,16.073-1.345,20.84C171.295,332.836,164.939,338.887,158.888,340.904z"/>
		<path fill="#FFAB4D" d="M195.007,312.974c-0.856-5.623-4.828-6.967-6.6-7.334c-0.856,1.283-1.956,2.078-2.934,2.628
			c2.017,2.811,4.461,8.923,1.1,20.596c-3.361,11.429-11.979,17.234-18.029,18.823c0.917,1.222,2.322,2.628,4.339,3.178
			c2.445,0.672,5.256-0.122,8.434-2.383C191.83,341.148,196.23,321.041,195.007,312.974z"/>
		<path fill="#00B497" d="M108.224,340.904c5.317-9.717,11.184-10.94,12.712-11.123c0.061-0.061,0.061-0.122,0.122-0.183
			c0.856-1.711,2.139-2.75,3.178-3.422c-0.733-1.161-1.406-2.384-1.956-3.789c-0.122,0-0.183,0-0.244,0
			c-0.122,0-7.578-1.65-12.59,1.161c-4.767,2.689-11.734,20.535-13.384,29.946c-0.489,2.872-1.161,6.295-1.833,9.595
			c-0.794,4.095-1.833,9.351-2.261,12.467c3.056-3.606,7.089-13.384,9.901-20.351C104.13,349.704,106.269,344.509,108.224,340.904z"
			/>
		<path fill="#FFAB4D" d="M146.421,296.901c-0.733,0-2.995,0.367-3.361,4.828c-0.428,4.889,1.161,6.845,1.711,7.028
			c0.978-0.672,3.178-4.767,3.239-6.6c0-1.895-0.917-4.584-1.467-5.256C146.482,296.901,146.482,296.901,146.421,296.901z"/>
		<path fill="#00B497" d="M120.081,333.264c-1.895,0.611-5.5,2.689-9.106,9.228c-1.895,3.484-3.972,8.556-6.234,13.995
			c-4.034,9.901-7.15,17.051-10.206,20.779c5.195-0.489,14.606-3.3,19.679-12.529c6.6-11.979,8.617-18.64,8.984-19.923
			c-0.611-1.222-1.222-2.445-1.711-3.789C120.325,338.154,119.897,335.526,120.081,333.264z"/>
		<path fill="#FFAB4D" d="M332.7,284.983c7.273-5.928,18.029-7.945,25.668-6.662c0-0.061-0.061-0.061-0.061-0.122
			s-0.061-0.122-0.061-0.183c-0.55-1.467-1.895-3.422-4.828-4.95c-0.122,0.061-0.244,0.061-0.367,0.061
			c-0.55,0-1.039-0.306-1.345-0.856c-1.406-0.55-2.995-0.978-4.95-1.283c-7.945-1.283-10.573,1.345-12.651,3.484
			c-1.222,1.283-2.506,2.567-4.523,2.261c-2.383-0.306-4.156,3.3-4.156,3.361c0,0.061,0,0.061,0,0.061
			c-1.283,4.034-2.506,7.273-3.667,9.167c-0.122,3.056,1.161,5.561,2.261,7.15C325.366,292.99,327.871,288.895,332.7,284.983z"/>
		<path fill="#00B497" d="M362.585,362.783c-0.428,0-0.917-0.061-1.406-0.122c-5.011-0.672-8.678-2.078-11.428-3.789
			c1.711,4.4,5.195,11.306,11.673,17.784c8.006,8.006,20.596,10.756,26.524,11.734C380.98,379.039,365.274,365.105,362.585,362.783z
			"/>
		<path fill="#00B497" d="M183.885,350.499c-0.244,0.183-0.489,0.428-0.794,0.611c-1.1,0.794-2.2,1.406-3.239,1.895
			c-0.061,1.772,0,5.623,0.733,9.901c0.672,3.911,13.873,15.279,21.512,20.596c-2.934-4.645-7.028-11.856-9.412-19.129
			C189.874,355.694,185.657,351.782,183.885,350.499z"/>
		<path fill="#353535" d="M453.157,41.073c-3.911-0.367-4.95,2.261-6.234,5.623c-0.489,1.283-1.1,2.811-1.956,4.645
			c-5.256,11.062-20.474,37.769-49.198,47.914c-14.606,5.134-29.396,8.373-45.164,9.901c0,0,0,0-0.061,0
			c-0.183-0.122-0.367-0.244-0.611-0.367c-8.617-4.889-18.029-6.478-22.246-7.028c0.672-1.956,0.795-3.911,0.856-6.417
			c0-0.611,0.061-1.222,0.061-1.956c0.061-1.161-0.061-2.2-0.306-3.178c10.512-3.361,17.784-11.123,21.146-22.551
			c2.628-8.984,1.895-16.929,1.895-17.296c0,0,0,0,0-0.061c0-0.061,0-0.122,0-0.122c0-0.061,0-0.122-0.061-0.122
			c0-0.061-0.061-0.061-0.061-0.122s-0.061-0.122-0.061-0.122c0-0.061-0.061-0.061-0.061-0.122c0-0.061-0.061-0.061-0.122-0.122
			c0-0.061-0.061-0.061-0.061-0.122c-0.061-0.061-0.061-0.061-0.122-0.122c-0.061,0-0.061-0.061-0.122-0.061
			c-0.061-0.061-0.122-0.061-0.122-0.061c-0.061,0-0.061-0.061-0.122-0.061s-0.122-0.061-0.183-0.061h-0.061c0,0,0,0-0.061,0
			s-0.122,0-0.183,0c-0.061,0-0.061,0-0.122,0c0,0,0,0-0.061,0c-0.061,0-0.061,0-0.122,0c-8.556,0-27.257,13.751-33.002,18.151
			c-4.828-8.862-11.612-12.406-19.19-9.84c-0.55-0.367-1.1-0.672-1.65-0.978c-5.745-3.056-10.512-1.772-12.467-0.978
			c-1.528-1.039-4.95-2.872-10.512-3.056c-0.244,0-0.428,0-0.672,0c-6.234,0-13.201,2.811-16.623,9.045
			c-2.383,0.122-8.251,1.039-11.062,6.234c-1.528-0.978-4.217-2.995-7.639-6.539c0.489-0.306,1.1-0.733,1.711-1.283
			c0.061-0.061,0.122-0.122,0.183-0.183c1.956-1.65,4.278-4.278,6.356-8.495c4.034-8.067,5.317-13.629,3.911-16.44
			c-0.55-1.161-1.528-1.833-2.811-2.078c-1.528-0.306-2.995,0.183-4.217,1.283c-2.628,2.383-4.095,7.578-3.667,13.262
			c0.428,5.745-1.344,9.412-1.772,10.328c-0.733,0.611-1.344,0.978-1.772,1.222c-2.139-2.383-4.461-5.256-6.906-8.739
			c3.117-5.073,2.567-9.901,1.589-13.079c-1.528-4.889-5.073-8.617-7.823-9.84c-2.322-1.039-4.4-0.794-5.623,0.672
			c-2.506,2.934-0.244,9.656,6.845,20.535c2.689,4.156,5.317,7.639,7.7,10.451c-0.978-0.183-1.895-0.428-2.628-0.733
			c-1.65-0.794-6.111-2.017-9.534-2.811c-8.067-1.895-8.739-1.222-9.289-0.672c-0.794,0.733-1.1,2.017-0.856,3.422
			c0.367,1.711,1.833,4.828,8.128,7.089c1.711,0.611,3.484,0.856,5.256,0.856c5.195,0,10.206-2.139,12.345-3.178
			c4.4,4.584,7.762,6.967,9.412,8.006c-0.733,2.75-0.856,5.5-0.611,8.006c-4.4-3.728-11.979-9.534-19.007-11.367
			c-10.206-2.689-25.424-3.117-26.035-3.178h-0.061c-0.122,0-0.244,0-0.306,0.061c0,0,0,0-0.061,0
			c-0.244,0.061-0.489,0.183-0.672,0.367c0,0,0,0-0.061,0.061c-0.061,0.061-0.122,0.122-0.122,0.183l-0.061,0.061
			c0,0,0,0-0.061,0.061v0.061c-0.061,0.061-0.061,0.183-0.122,0.306v0.061c-0.061,0.122-0.061,0.244-0.061,0.367v0.061
			c0,0.122,0,0.183,0.061,0.306c0,0.061,0,0.061,0,0.122c0,0.122,0.061,0.183,0.122,0.306c0.611,1.1,12.59,22.307,23.285,27.563
			c7.517,3.667,16.073,4.278,20.596,4.278c0.672,0,1.222,0,1.65,0c0,0.367,0.061,0.733,0.122,1.161
			c-3.422,0.856-6.173,1.833-8.312,3.117c-2.934,1.711-8.189,2.2-13.201,2.628c-5.073,0.428-9.84,0.917-12.406,2.628
			c-5.011,3.361-13.384,7.028-17.418,7.028c-0.917,0-1.833-0.061-2.811-0.061c-2.995-0.122-6.173-0.244-8.801,0.672
			c-0.917-1.895-2.811-4.767-6.356-5.073c-0.55-0.061-1.406-0.061-2.628-0.122c-8.128-0.306-32.758-1.222-60.321-10.94
			C80.967,89.354,65.75,62.586,60.494,51.524c-0.856-1.772-1.467-3.361-1.956-4.645c-1.283-3.361-2.322-5.989-6.234-5.623
			c-0.978,0.061-1.772,0.733-2.384,2.017c-3.056,6.295-2.811,35.63,15.829,64.415c22.001,33.919,89.778,45.47,90.45,45.531
			c0.611,0.122,1.222,0.122,1.833,0.122c4.645,0,8.923-2.567,11.123-4.156c2.017,3.239,4.461,3.239,6.111,3.3
			c1.406,0,1.833,0.061,2.383,1.222c2.017,4.584,3.422,10.817,2.078,13.873c-0.367,0.856-1.039,1.833-1.833,2.934
			c-0.794,1.1-1.65,2.383-2.567,3.911c-1.956-4.278-5.928-10.023-13.079-10.634c-6.967-0.611-11.062,2.689-12.956,4.828
			c-4.523-5.134-12.59-10.267-23.407-8.739c-4.4,0.611-7.762,2.261-10.267,4.339c-5.989-21.818-40.336-30.558-41.864-30.924h-0.061
			c-0.061,0-0.183,0-0.244,0c-0.061,0-0.061,0-0.122,0c-0.061,0-0.183,0-0.244,0.061h-0.061c-0.122,0-0.244,0.061-0.306,0.122
			l-0.061,0.061c-0.061,0.061-0.122,0.122-0.183,0.122c0,0-0.061,0-0.061,0.061c0,0,0,0.061-0.061,0.061
			c-0.061,0.061-0.122,0.122-0.183,0.183c0,0.061-0.061,0.061-0.061,0.122c0,0,0,0-0.061,0.061
			c-0.061,0.061-0.061,0.122-0.061,0.183c0,0,0,0.061-0.061,0.061c-0.061,0.122-0.061,0.244-0.061,0.367v0.061
			c0,0.061,0,0.183,0,0.244v0.061c5.439,31.902,19.496,41.864,26.341,44.858c-3.178,1.956-6.234,5.073-8.006,10.084
			c-3.85,11.001,1.406,20.962,3.545,24.385c-1.895,1.833-5.256,6.173-4.461,13.323c0,0.183,0.061,0.306,0.061,0.489
			c-1.589,3.667-1.039,8.067,1.65,12.895c1.711,2.995,4.339,6.173,7.517,8.984c-5.5-2.383-12.223-5.867-17.968-10.512
			c-3.056-2.506-5.989-4.95-8.739-7.395c2.2-3.545,5.989-12.345,4.767-17.418c-0.55-2.261-2.017-3.728-4.217-4.156
			c-2.078-0.428-3.361,0.428-4.095,1.161c-2.811,2.995-2.017,10.878-1.039,16.257c-1.833-1.711-3.545-3.361-5.134-4.95
			c3.484-11.917-2.995-20.535-8.434-22.613c-2.384-0.917-4.584-0.672-6.173,0.611c-0.55-0.061-6.478,8.006-3.667,14.606
			c1.956,4.645,7.212,7.7,15.523,9.045c0.917,0.917,1.833,1.833,2.75,2.689c-4.217-1.467-9.106-2.506-12.467-1.283
			c-1.65,0.611-2.872,1.772-3.545,3.3c-0.856,2.078-0.061,3.422,0.428,4.095c1.406,1.711,4.767,2.261,8.556,2.261
			c5.134,0,11.123-1.039,14.24-1.65c2.934,2.567,5.5,4.767,7.334,6.295c-5.134-0.794-11.367-1.1-14.301,1.222
			c-1.161,0.917-1.772,2.2-1.772,3.667c0,1.283,0.489,4.278,5.195,4.828c0.489,0.061,1.039,0.061,1.589,0.061
			c5.011,0,12.651-2.322,15.707-4.95c11.551,7.762,24.385,11.49,24.996,11.673c0.122,0.061,0.306,0.061,0.428,0.061
			s0.244,0,0.367-0.061c3.789,1.833,7.884,3.056,11.917,3.361c0.672,0.061,1.345,0.061,1.956,0.061c0.244,0,0.489,0,0.733,0
			c-6.784,4.339-18.885,5.378-23.285,3.545c-4.217-1.772-6.539-1.711-7.762-1.222c-10.451-6.05-31.535-5.745-41.497-1.161
			c-4.828,2.261-6.173,5.011-6.417,7.028c-0.978,7.578,3.728,11.734,7.578,13.506c-1.589,2.139-2.628,4.461-2.934,6.967
			c-0.489,4.4,0.428,7.762,2.75,10.023c2.2,2.139,5.073,2.75,6.906,2.811c0,2.75,0.428,8.128,2.995,11.184
			c1.711,2.017,4.95,3.911,9.412,3.911c2.2,0,4.706-0.489,7.456-1.589c0.122,1.528,0.611,3.422,1.833,5.134
			c1.528,2.078,3.789,3.3,6.784,3.789c1.1,0.183,2.139,0.244,3.117,0.244c7.212,0,12.773-4.095,16.99-12.467
			c4.034-7.945,2.445-22.979,1.528-26.768c0.489-1.283,2.2-5.195,5.011-8.251c2.322-2.506,9.167-7.089,13.568-9.901
			c-1.711,5.134-3.117,11.551-2.995,18.823c-3.3,4.278-5.011,10.145-5.195,17.723c-0.183,6.111,0.367,11.367,1.589,15.707
			c-2.811-0.367-8.617-0.794-13.201,1.772c-6.295,3.545-13.384,23.101-14.973,32.146c-0.489,2.811-1.161,6.234-1.833,9.534
			c-2.811,14.362-2.934,15.951-2.139,16.99c0.244,0.306,0.733,0.978,3.422,0.978c0.489,0,0.978,0,1.589-0.061
			c7.578-0.55,17.479-4.584,22.796-14.179c4.828-8.739,7.273-14.729,8.434-17.968c4.767,6.539,11.795,9.717,22.062,10.206
			c0.306,0,0.55,0,0.856,0c9.473,0,13.445-6.967,14.912-10.573c0.55,0.183,1.161,0.244,1.956,0.306
			c0.917,1.589,3.178,4.645,6.906,5.684c0.856,0.244,1.772,0.367,2.628,0.367c0.672,0,1.345-0.061,2.017-0.183
			c0,0.489,0,1.1,0.061,1.711c-0.061,0.061-0.122,0.122-0.122,0.183c-0.122,0.244-3.361,6.906-1.1,22.062
			c0.489,3.361,1.711,7.273,3.239,11.428c-2.078,2.139-13.201,13.934-8.556,20.535c0.856,1.222,1.956,1.895,3.117,1.895
			c0.489,0,0.978-0.122,1.406-0.306c3.3-1.467,6.112-8.801,6.906-15.034c2.139,4.828,4.523,9.534,6.662,13.506
			c-4.034,1.833-13.995,7.334-11.551,15.462c0.917,3.056,2.811,3.667,4.095,3.667c0.489,0,0.917-0.061,1.161-0.122
			c3.667-0.978,8.128-7.028,9.656-12.773c1.283,2.261,2.2,3.789,2.567,4.4c0,0.122,0.061,0.244,0.061,0.367
			c-0.55,2.383-2.75,13.506,2.078,17.846c1.222,1.1,2.75,1.65,4.584,1.65c1.345,0,2.872-0.306,4.584-0.917
			c0.183-0.061,0.306-0.122,0.428-0.244c0.061,0,0.061,0,0.122,0c0.55,0,1.1-0.122,1.467-0.306c2.75-1.222,3.484-5.623,2.445-8.923
			c-1.589-5.011-10.817-9.962-13.14-11.184c-0.428-0.733-1.467-2.445-2.811-4.889c2.628,0.917,4.889,1.283,6.906,1.283
			c3.667,0,6.295-1.345,7.7-2.995c1.772-2.078,1.833-4.889,0.244-6.967c-3.361-4.4-13.14,0.611-17.784,3.3
			c-1.956-3.667-4.095-7.945-6.111-12.284c4.095,2.017,10.512,4.278,15.157,4.278c1.589,0,2.995-0.244,4.034-0.917
			c1.283-0.794,1.956-2.078,1.895-3.667c-0.061-1.467-0.672-2.75-1.895-3.789c-4.645-4.156-17.479-3.85-22.49-3.606
			c-1.528-4.034-2.75-7.884-3.178-11.062c-0.794-5.439-0.856-9.656-0.672-12.834c3.361,7.456,23.957,23.774,28.663,24.69
			c0.122,0,0.244,0.061,0.367,0.061c0.061,0,0.061,0,0.122,0c0.672-0.061,1.283-0.489,1.589-1.1
			c0.978-1.956,0.428-9.534-1.222-18.273c1.895,1.895,3.911,3.606,5.684,5.073c1.711,1.467,4.095,3.422,4.278,4.156
			c0,0.672,5.011,76.822,9.656,83.85c4.461,6.662,18.579,10.39,19.19,10.573c0.122,0.061,0.244,0.061,0.367,0.061
			c0.306,0,0.55-0.061,0.795-0.244c0.367-0.244,0.611-0.611,0.672-1.039l4.706-23.224l4.706,23.224
			c0.061,0.428,0.367,0.794,0.672,1.039c0.367,0.244,0.795,0.306,1.222,0.183c0.611-0.183,14.729-3.85,19.19-10.573
			c4.645-7.028,9.656-83.116,9.656-83.789c0.183-0.733,2.567-2.75,4.278-4.156c2.872-2.445,6.478-5.439,8.984-9.045
			c1.589-2.322,2.995-9.289,4.217-18.64c4.461,8.923,4.889,20.412,4.889,22.001c-0.367,1.467-2.506,10.084-1.222,16.44
			c0.672,3.3,2.445,5.928,5.073,7.395c1.467,0.856,3.117,1.283,4.767,1.283c0.795,0,1.589-0.122,2.322-0.306
			c5.256,7.823,16.379,15.279,19.74,15.279c0.061,0,0.122,0,0.183,0c0.733-0.061,1.345-0.55,1.589-1.345
			c0.489-1.406-0.55-5.928-2.567-11.734c1.406-1.345,4.339-4.339,5.317-6.295c2.017-4.034,0.428-9.595-4.706-16.623
			c-5.745-7.884-13.262-12.101-14.484-12.712c-0.428-0.367-1.039-0.611-2.017-1.1c-2.811-1.345-8.128-3.789-11.062-9.289
			c-3.789-7.028-5.745-17.662-6.05-19.129c0.611-6.356,1.222-13.14,1.772-19.923c0.55-6.906,1.039-12.284,1.283-13.69
			c0.428-2.139,1.467-2.628,3.911-3.545c1.222-0.489,2.689-1.039,4.217-2.017c0.733,3.911,2.995,6.723,4.095,7.945
			c-0.244,1.1-0.428,2.078-0.55,2.872c-0.122,0.672-0.183,1.222-0.306,1.589c-0.795,2.567-6.784,6.967-9.045,8.556
			c-2.506,1.833-2.506,6.906-2.017,10.878c1.039,8.801,6.05,24.14,15.095,27.807c8.739,3.606,14.484,1.772,17.112,0.306
			c0.428,0.794,1.1,1.833,2.078,2.934c0.55,2.384,3.606,13.445,13.934,23.774c11.49,11.49,30.985,12.895,31.78,12.956
			c0.061,0,0.061,0,0.122,0c0.122,0,0.244,0,0.367-0.061c0.061,0,0.061,0,0.122-0.061c0.061,0,0.183-0.061,0.244-0.122h0.061
			c0,0,0.061,0,0.061-0.061c0.061,0,0.061-0.061,0.122-0.061c0.061-0.061,0.061-0.061,0.122-0.122c0,0,0,0,0.061-0.061
			c0,0,0-0.061,0.061-0.061c0.061-0.061,0.061-0.122,0.122-0.183c0-0.061,0.061-0.061,0.061-0.122
			c0.061-0.061,0.061-0.122,0.061-0.183s0-0.061,0.061-0.122c0-0.061,0.061-0.122,0.061-0.183s0-0.061,0-0.122
			c0-0.061,0-0.183,0-0.244c0,0,0,0,0-0.061c-0.122-1.161-2.995-22.979-17.051-34.163c1.467-2.689,2.017-5.561,2.2-7.089
			c5.623,1.039,12.956,0.611,16.318-7.762c1.589-4.034,1.589-7.762,0.795-11.001c2.017,0.794,4.584,1.283,7.639,1.283
			c3.545,0,7.762-0.611,12.529-2.139c13.812-4.339,17.234-11.429,17.357-11.734c0,0,0,0,0-0.061s0.061-0.122,0.061-0.183
			c0-0.061,0-0.061,0.061-0.122c0-0.061,0-0.122,0-0.183s0-0.122,0-0.183s0-0.061,0-0.122c0-0.061,0-0.122,0-0.183v-0.061
			c0-0.061-0.061-0.183-0.061-0.244s-0.061-0.122-0.061-0.183s-0.061-0.061-0.061-0.122c-0.061-0.061-0.061-0.061-0.122-0.122
			c-0.061-0.061-0.061-0.061-0.061-0.122c-0.061-0.061-0.122-0.061-0.122-0.122c-0.061,0-0.061-0.061-0.122-0.061
			c-0.061-0.061-0.122-0.061-0.183-0.061c-0.061,0-0.061-0.061-0.122-0.061h-0.061c-0.55-0.183-2.261-0.978-4.156-1.895
			c-5.317-2.506-14.179-6.662-19.801-7.578c-5.011-0.856-9.167-0.489-11.612-0.122c0.306-2.689-0.061-5.256-0.978-7.578
			c13.812-1.528,29.274-13.812,30.007-14.362c0,0,0,0,0.061-0.061c0.061-0.061,0.061-0.061,0.122-0.122
			c0.061-0.061,0.061-0.061,0.122-0.122c0.061-0.061,0.061-0.061,0.061-0.122c0-0.061,0.061-0.061,0.061-0.122
			c0-0.061,0.061-0.061,0.061-0.122c0-0.061,0.061-0.122,0.061-0.122c0-0.061,0-0.061,0.061-0.122c0-0.061,0-0.122,0-0.122
			c0-0.061,0-0.122,0-0.122c0-0.061,0-0.122,0-0.122c0-0.061,0-0.122,0-0.122c0-0.061,0-0.122-0.061-0.122
			c0-0.061,0-0.122-0.061-0.122c0-0.061-0.061-0.122-0.061-0.122s0-0.061-0.061-0.061c0,0,0-0.061-0.061-0.061
			c0,0,0-0.061-0.061-0.061c-8.739-12.04-24.385-15.584-34.591-16.562c2.811-1.039,6.295-2.811,10.512-5.745
			c1.711-1.222,3.484-2.567,5.256-3.972l0.061-0.061c0.183-0.183,0.367-0.306,0.611-0.489c4.339,2.872,8.312,3.789,11.612,3.789
			c5.195,0,8.617-2.2,8.801-2.383c0.428-0.306,0.672-0.794,0.672-1.283c0-0.55-0.244-0.978-0.672-1.283
			c-5.317-3.545-11.245-3.728-15.401-3.178c1.345-1.222,2.628-2.445,3.85-3.606c0.122-0.061,0.244-0.183,0.306-0.306
			c0.244-0.244,0.55-0.489,0.795-0.794c2.384-0.306,11.673-1.956,15.034-8.312c1.833-3.484,1.589-7.762-0.795-12.59
			c-0.061-0.306-0.183-0.611-0.367-0.856c-0.061-0.122-0.183-0.244-0.306-0.367c0-0.061-0.061-0.061-0.061-0.122
			c-0.306-0.489-0.795-0.794-1.283-0.794c-0.856-0.306-1.895-0.367-2.872-0.367c-6.417,0-12.162,12.162-12.834,22.551
			c-1.345,1.283-2.75,2.628-4.156,3.911c0.795-2.567,1.283-5.684,0.795-8.678c-1.161-7.334-5.195-8.495-5.623-8.556
			c-0.733-0.183-1.467,0.183-1.772,0.856c-2.872,5.989-0.122,17.723,0.795,21.268c-1.406,1.1-2.811,2.2-4.217,3.178
			c-7.334,5.134-12.101,6.295-14.545,6.478c0.428-1.283,0.55-2.506,0.306-3.667c0.489-0.122,0.978-0.183,1.467-0.367
			c4.095-1.039,7.334-3.422,9.289-6.967c2.506-4.4,2.322-9.228,1.467-11.979c-0.611-2.017-2.139-3.911-4.278-5.684
			c1.467-1.467,3.178-3.667,4.156-6.356c0.061-0.122,0.122-0.306,0.183-0.489c0.856-2.567,0.978-5.561-0.306-8.739
			c-1.528-3.789-4.889-7.395-9.228-10.023c6.417-3.3,13.14-12.284,13.995-13.506c4.706-6.05,5.011-17.907,5.011-18.396v-0.061
			c0-0.061,0-0.122,0-0.183c0-0.061,0-0.061,0-0.122c0-0.061,0-0.122-0.061-0.183c0-0.061,0-0.061-0.061-0.122
			c0-0.061-0.061-0.122-0.061-0.183l-0.061-0.061c-0.061-0.061-0.061-0.122-0.122-0.183l-0.061-0.061
			c-0.061-0.061-0.122-0.122-0.244-0.183c0,0,0,0-0.061,0c-0.061-0.061-0.122-0.061-0.183-0.122c-0.061,0-0.061,0-0.122-0.061
			c0,0-0.061,0-0.061-0.061h-0.061h-0.061c-9.351-2.567-26.524,12.834-31.23,17.234c-1.65-1.283-3.728-2.139-6.234-2.383
			c-11.979-1.222-18.823,9.289-22.918,17.296c-3.789,7.334-1.711,12.406-0.244,14.668c-1.283,0.856-2.322,2.872-3.728,5.928
			c-0.55,1.1-1.039,2.139-1.406,2.811c-0.672,1.1-2.811,2.628-4.889,3.911c0.244-2.139,0.428-3.972,0.489-5.378
			c0.428-10.39-1.833-16.562-3.484-21.085c-0.55-1.467-0.978-2.75-1.222-3.85c-0.367-1.528,0.244-2.934,1.039-4.95
			c1.161-2.934,2.75-6.967,2.139-13.69c-0.795-8.312-3.85-12.59-6.112-15.768c-0.795-1.1-1.467-2.078-1.833-2.934
			c-1.345-3.056,0.061-9.289,2.078-13.873c0.733-1.772,1.161-1.772,2.566-1.833c1.711,0,4.095-0.061,6.112-3.3
			c2.2,1.589,6.478,4.156,11.123,4.156c0.611,0,1.222-0.061,1.833-0.122c0.672-0.122,68.449-11.673,90.45-45.531
			c18.64-28.785,18.885-58.12,15.829-64.415C454.93,41.868,454.135,41.196,453.157,41.073z M46.987,214.212
			c-0.856-2.017-0.672-4.217-0.183-6.111c1.161,2.75,3.728,6.662,8.984,12.345C51.082,219.102,48.148,217.024,46.987,214.212z
			 M59.821,220.202c-7.456-7.823-11.673-13.995-10.573-16.257c0.428-0.917,1.161-1.222,1.956-1.222c0.611,0,1.222,0.183,1.65,0.367
			C56.949,204.678,61.716,211.095,59.821,220.202z M207.047,430.926c0.794,2.445,0,4.828-0.733,5.134
			c-0.428,0.183-1.65-0.489-3.239-3.056c-2.506-4.034-3.972-7.517-4.767-9.901C202.036,425.426,206.253,428.543,207.047,430.926z
			 M196.597,427.381c0.917,2.078,2.139,4.584,3.85,7.273c0.672,1.039,1.283,1.895,1.833,2.506c-1.65,0.306-2.934,0.061-3.789-0.733
			C196.658,434.776,196.352,430.865,196.597,427.381z M316.137,390.59c-1.283-0.733-2.934-2.261-3.545-5.317
			c-1.161-5.806,1.039-14.301,1.222-15.157c1.161,5.745,3.361,15.279,6.234,21.268C318.765,391.568,317.299,391.324,316.137,390.59z
			 M323.838,363.455c0.795,0.244,1.467,0.428,2.017,0.428c2.017,1.161,8.128,5.011,12.834,11.49
			c4.339,5.928,5.867,10.573,4.4,13.445c-0.55,1.161-2.322,3.056-3.728,4.461c-3.789-9.962-9.962-22.429-16.684-30.13
			C323.166,363.272,323.532,363.394,323.838,363.455z M319.132,367.244c0.672-0.244,1.1-0.917,1.039-1.589
			c0-0.183-0.061-0.489-0.061-0.733c7.212,8.067,13.629,21.879,17.173,31.596c0,0.122,0.061,0.183,0.122,0.306
			c1.528,4.156,2.445,7.517,2.75,9.351c-3.667-1.589-13.262-8.189-17.051-15.523c-3.85-7.456-6.539-22.246-7.028-25.302
			c0.367,0.244,0.917,0.794,1.283,1.345C317.726,367.244,318.46,367.489,319.132,367.244z M429.322,231.019l0.367-0.733
			c0.061-0.122,0.122-0.244,0.183-0.367c0.489,2.322,0.306,4.339-0.55,5.989c-1.65,3.117-5.317,4.828-8.373,5.745
			C425.167,237.13,428.345,233.158,429.322,231.019z M426.328,225.396c1.1,0,1.589,0.122,1.833,0.183c0,0,0,0.061,0.061,0.061
			c-0.061,0.611-0.795,2.078-1.344,3.3l-0.367,0.794c-0.917,1.956-4.523,6.478-9.473,11.551
			C418.627,232.302,423.394,225.396,426.328,225.396z M348.467,111.539c5.5,3.117,8.984,5.439,11.123,6.906
			c-15.523,1.65-32.33-5.561-37.83-8.251c2.078-2.139,3.545-3.85,4.523-5.378C329.399,105.122,339.544,106.467,348.467,111.539z
			 M318.704,113.25c0.244-0.244,0.489-0.489,0.733-0.672c4.095,2.078,19.435,9.289,35.324,9.289c1.283,0,2.506-0.061,3.789-0.183
			c-3.606,2.2-10.267,4.584-21.451,3.545c-14.912-1.406-20.535-6.6-22.307-8.862C316.076,115.512,317.36,114.473,318.704,113.25z
			 M294.197,116.062c-2.628-1.161-4.339-4.4-5.073-5.989c0.306,0,0.611,0,0.978,0c0.733,0,1.467,0,2.261-0.061
			c14.668-0.795,25.057-6.356,27.807-14.79c0.795-2.506,1.222-5.134,1.345-7.701c1.589,0.367,4.278,1.589,4.095,5.806
			c0,0.733-0.061,1.345-0.061,1.956c-0.122,5.561-0.183,7.456-8.984,15.645C306.726,120.095,297.62,117.589,294.197,116.062z
			 M346.512,66.986c-3.178,10.634-9.717,17.54-19.496,20.474c-0.122-0.183-0.244-0.367-0.428-0.489
			c-0.489-0.489-0.978-0.917-1.528-1.222c4.706-3.911,16.623-14.545,22.979-26.463C347.795,61.608,347.306,64.236,346.512,66.986z
			 M347.673,52.502c-5.134,14.607-22.674,29.274-25.913,31.963c-0.061,0-0.122,0-0.183-0.061c-0.183-4.889-1.345-9.473-2.75-13.017
			c-0.183-0.428-0.367-0.917-0.55-1.345C324.816,64.969,339.789,54.335,347.673,52.502z M246.772,70.409
			c1.345-3.972,5.011-5.256,7.456-5.684c-0.183,0.611-0.367,1.283-0.489,1.956c-1.895,10.206,6.539,19.496,6.906,19.862
			c0.611,0.611,1.589,0.672,2.2,0.061c0.611-0.611,0.672-1.589,0.061-2.2c-0.061-0.061-7.7-8.495-6.111-17.173
			c0.244-1.344,0.611-2.567,1.161-3.606c0-0.061,0.061-0.061,0.061-0.122c3.117-6.539,10.451-8.189,14.851-8.067
			c6.295,0.183,9.351,2.872,9.351,2.872c0.489,0.489,1.283,0.55,1.833,0.183c0.183-0.122,4.584-2.567,10.39,0.55
			c6.295,3.361,13.262,11.245,14.118,23.346c0.795,11.306-5.867,15.095-6.173,15.279c-0.733,0.428-1.039,1.344-0.611,2.078
			c0.306,0.55,0.795,0.794,1.345,0.794c0.244,0,0.489-0.061,0.733-0.183c0.367-0.183,8.74-4.828,7.762-18.212
			c-0.733-10.267-5.5-17.784-10.879-22.429c6.723-0.978,11.245,4.523,14.056,10.451c0,0.061,0,0.061,0.061,0.122
			c0.367,0.733,0.672,1.467,0.978,2.261c2.139,5.317,3.789,14.179,1.345,21.757c-2.322,7.212-11.673,11.917-24.996,12.651
			c-13.201,0.733-17.173-5.378-17.296-5.623c-0.244-0.367-0.55-0.611-0.978-0.733c-0.428-0.122-0.856,0-1.222,0.244
			c-0.306,0.183-7.089,4.523-13.69,0.122c-4.461-2.995-5.684-5.928-6.845-8.801c-0.672-1.65-1.406-3.422-2.75-4.95
			C246.589,83.854,244.511,77.192,246.772,70.409z M249.889,107.2c-2.872-1.956-4.034-4.828-4.523-6.967
			c-0.917-4.4,0.306-8.862,1.833-10.817c0.917,1.1,1.467,2.445,2.078,3.911c1.222,2.934,2.75,6.662,7.945,10.145
			c6.539,4.4,13.14,1.956,15.89,0.611c1.589,1.711,5.317,4.767,12.59,5.684c-0.061,0.672-0.306,3.545-2.384,5.623
			c-1.589,1.589-3.972,2.384-7.028,2.322C265.534,117.589,257.956,112.578,249.889,107.2z M257.834,115.756
			c-1.283,2.017-2.445,2.567-3.422,4.278V113.8C255.511,114.473,256.673,115.145,257.834,115.756z M223.059,70.286
			c8.923,2.322,19.496,12.223,21.024,13.69c0.367,1.039,0.795,1.956,1.344,2.811c-0.244,0.244-0.489,0.55-0.733,0.856
			c-3.239-0.55-14.056-2.628-22.062-7.089c-6.417-3.545-14.851-9.473-19.74-13.079C208.208,67.842,216.764,68.636,223.059,70.286z
			 M221.104,91.249c-6.295-3.056-13.445-12.834-17.846-19.557c5.011,3.606,12.101,8.495,17.846,11.673
			c7.823,4.339,17.784,6.478,22.062,7.212c-0.55,1.406-0.917,2.934-1.1,4.584C238.644,95.283,229.11,95.16,221.104,91.249z
			 M242.799,102.433c0.978,3.117,2.811,5.623,5.378,7.334c1.039,0.672,2.078,1.345,3.117,2.078v9.045
			c-4.584-6.784-12.04-12.895-15.462-15.951C237.666,103.961,239.927,103.166,242.799,102.433z M168.056,146.13
			c-1.833,1.406-6.6,2.995-11.184,2.261c-0.672-0.122-67.532-12.406-88.8-45.164C48.759,73.403,50.654,47.185,53.037,44.19
			c1.161-0.061,1.467,0.244,2.75,3.667c0.489,1.283,1.1,2.934,2.017,4.828c5.378,11.367,21.146,38.991,50.97,49.503
			c27.991,9.84,53.048,10.817,61.237,11.123c1.1,0.061,1.956,0.061,2.445,0.122c2.139,0.183,3.361,2.322,3.911,3.606
			c-0.183,0.122-0.306,0.306-0.428,0.489C173.556,120.462,165.672,137.452,168.056,146.13z M175.206,204.556
			c-2.872-3.545-6.784-4.706-8.862-5.073c0.061-0.55,0.061-1.161,0-1.772c2.506-0.122,4.645-0.794,6.417-2.078
			c0.428,1.65,0.978,2.995,1.467,4.156C174.901,201.745,175.451,203.15,175.206,204.556z M157.177,248.559
			c7.884-1.65,10.573-7.639,12.223-12.773c0.183,8.923-0.856,26.707-10.878,35.141c-0.183,0.061-0.428,0.061-0.611,0.122
			c-4.828,1.039-7.7,5.256-8.984,7.639c-1.895-0.856-4.034-1.467-6.234-1.467C143.976,264.754,155.099,251.004,157.177,248.559z
			 M139.454,277.527c-4.706,0.794-8.556,2.383-11.551,4.828c0.611-12.712,5.867-22.185,7.7-25.485
			c0.306-0.489,0.489-0.856,0.611-1.1c4.095-2.995,6.539-6.845,7.823-9.228c1.589,1.222,4.4,2.567,8.739,2.506
			C148.621,254.426,140.432,266.282,139.454,277.527z M172.273,244.586c1.772,10.573,4.523,23.59,7.334,33.185
			c-7.212-5.745-11.917-7.334-16.134-7.395C169.461,263.288,171.6,253.02,172.273,244.586z M162.189,166.726
			c7.15,0.611,10.451,8.189,11.551,11.429c-0.794,2.2-1.467,4.767-1.772,8.006c-0.244,2.261-0.183,4.217,0,5.928
			c-1.467,1.65-3.606,2.567-6.295,2.567c-1.711-5.989-5.989-8.189-8.434-9.412c-0.611-0.306-1.222-0.611-1.406-0.794
			c-0.672-0.672-1.039-2.567-1.406-4.584c-0.244-1.467-0.611-3.117-1.1-4.889c-0.306-1.1-0.978-2.506-1.956-3.972
			C152.655,169.415,156.016,166.176,162.189,166.726z M113.236,166.665c-1.345,1.589-2.261,3.239-2.995,4.828
			c-2.078-4.217-6.234-11.734-13.262-19.618c-4.461-5.011-9.106-9.045-13.017-12.101
			C94.901,144.175,110.669,152.853,113.236,166.665z M91.54,171.187c-5.195-5.073-11.979-14.912-15.707-33.369
			c4.095,2.689,11.795,8.189,18.823,16.134c8.984,10.084,13.262,19.74,14.118,21.757c-0.061,0.244-0.122,0.489-0.183,0.733
			c-1.406,0.122-3.667,0.489-6.234,1.406C101.196,177.543,96.673,176.138,91.54,171.187z M121.242,256.932
			c-11.245-0.856-22.674-9.595-27.196-17.601c-0.794-1.467-1.65-3.239-1.956-5.134c1.467,2.261,3.422,4.339,5.867,6.05
			c3.911,2.689,8.556,4.034,13.506,4.034c2.322,0,4.767-0.306,7.212-0.917c15.645-4.034,20.412-13.751,20.596-14.118
			c0.367-0.794,0.061-1.711-0.733-2.078c-0.794-0.367-1.711-0.061-2.078,0.733c-0.061,0.061-4.4,8.801-18.579,12.467
			c-6.662,1.711-13.14,0.794-18.151-2.689c-3.911-2.689-6.539-6.6-7.028-10.512c-0.917-7.701,4.095-11.245,4.278-11.429
			c0.367-0.244,0.611-0.611,0.672-1.039c0.061-0.428-0.061-0.856-0.306-1.161c-0.061-0.122-8.067-11.001-3.972-22.674
			c1.956-5.623,5.867-8.434,9.412-9.901c0.183-0.061,0.306-0.122,0.489-0.183c3.239-1.222,6.05-1.283,6.6-1.283
			c0.061,0,0.061,0,0.122,0c0.794,0,1.467-0.611,1.528-1.406c0-0.122,0.122-0.856,0.367-2.017c0.061-0.061,0.061-0.183,0.061-0.244
			c0.55-2.017,1.711-4.95,4.034-7.578c0.061-0.061,0.183-0.183,0.244-0.244c2.261-2.445,5.561-4.523,10.39-5.195
			c10.328-1.467,17.968,4.156,21.574,8.862c0.061,0.183,0.183,0.306,0.367,0.489c0.978,1.345,1.65,2.628,1.895,3.606
			c0.489,1.65,0.733,3.239,1.039,4.645c0.489,2.75,0.917,4.889,2.261,6.234c0.55,0.55,1.283,0.917,2.2,1.406
			c2.506,1.283,6.356,3.239,7.273,9.473c1.1,7.639-7.639,10.145-8.006,10.267c-0.428,0.122-0.794,0.428-0.978,0.856
			c-0.183,0.428-0.183,0.917,0,1.283c0.061,0.061,3.178,7.089,0.55,13.201c-1.467,3.545-4.645,6.173-9.351,7.884
			c-0.794,0.306-1.222,1.161-0.917,2.017c0.306,0.794,1.161,1.222,2.017,0.917c5.561-2.017,9.351-5.256,11.184-9.595
			c2.322-5.561,0.917-11.367,0-14.118c2.934-1.222,6.6-3.667,8.067-7.639c1.833,0.306,6.05,1.467,8.312,5.867
			c0,0.061-0.061,0.122-0.061,0.183c-1.406,3.972-3.3,9.167-3.545,17.357c-1.1,1.406-2.139,2.934-2.689,4.767
			c-0.244,0.672-0.428,1.467-0.672,2.2c-1.589,5.317-3.422,11.367-10.94,12.773c-8.373,1.528-11.062-2.383-11.184-2.506
			c-0.306-0.489-0.917-0.794-1.467-0.733c-0.611,0.061-1.1,0.428-1.283,1.039c-0.122,0.367-2.322,6.173-7.823,10.084
			c-0.122,0.061-0.244,0.183-0.367,0.244C130.715,255.893,126.62,257.359,121.242,256.932z M47.781,268.666
			c0.244-2.139,2.689-3.667,4.645-4.584c10.145-4.706,31.169-3.911,39.419,1.528c0,0,0.061,0,0.061,0.061c0,0,0.061,0,0.061,0.061
			c0.061,0.061,1.589,0.917,2.628,3.606c0,0.061,0.061,0.122,0.061,0.183c-4.461-1.956-12.59-2.567-13.995-2.567
			c-4.278,0-18.457,4.584-26.218,12.345C52.365,278.505,46.865,275.816,47.781,268.666z M64.405,310.774
			c-1.895-2.2-2.261-6.906-2.261-9.534c0.978,1.467,2.322,3.117,3.911,4.095c1.833,1.161,4.034,1.833,5.867,1.833
			c0.733,0,1.406-0.122,2.017-0.367c0.856-0.367,1.406-0.978,1.589-1.833c0.428-2.139-5.195-9.778-9.412-11.184
			c-2.445-0.794-4.584,0.122-5.745,2.628c-0.183,0.428-0.183,0.856,0,1.283c0,0.061,0.122,0.306,0.306,0.733
			c-0.061,0-0.061,0-0.122,0c-0.061,0-3.789,0.367-6.111-1.956c-1.589-1.589-2.2-4.095-1.833-7.456
			c1.161-11.184,23.835-19.068,28.174-19.068c4.645,0,11.795,1.589,13.629,2.689c-0.183,0.489-0.428,0.978-0.611,1.467
			c-0.611,1.283-1.1,2.383-0.917,3.422c0.306,1.711,2.261,2.017,4.95,2.445c1.283,0.183,4.645,0.733,4.95,1.467
			c0,1.039,0.244,1.833,0.611,2.567c-1.161,2.811-5.928,13.445-16.501,22.49C74.855,316.58,67.094,313.952,64.405,310.774z
			 M63.427,297.268c0.489-0.611,0.856-0.55,1.1-0.55c2.506,0.244,6.356,5.256,7.517,7.395c-0.917,0.061-2.628-0.306-4.339-1.345
			C65.688,301.423,64.038,298.551,63.427,297.268z M104.863,310.346c-4.217,8.312-9.534,11.673-16.929,10.573
			c-2.139-0.306-3.728-1.161-4.706-2.506c-1.222-1.65-1.345-3.728-1.283-4.767c2.139-1.161,4.4-2.75,6.784-4.767
			c10.267-8.739,15.279-18.762,16.99-22.735c0.183,0.061,0.367,0.122,0.55,0.183C106.941,289.873,108.285,303.562,104.863,310.346z
			 M91.968,375.556c0.428-3.117,1.467-8.373,2.261-12.467c0.672-3.3,1.345-6.723,1.833-9.595c1.65-9.412,8.617-27.257,13.384-29.946
			c5.011-2.811,12.467-1.161,12.59-1.161c0.061,0,0.122,0,0.244,0c0.55,1.406,1.222,2.628,1.956,3.789
			c-1.039,0.672-2.322,1.711-3.178,3.422c-0.061,0.061-0.061,0.122-0.122,0.183c-1.528,0.183-7.395,1.406-12.712,11.123
			c-1.956,3.606-4.095,8.801-6.356,14.301C99.057,362.172,95.023,371.95,91.968,375.556z M114.213,364.739
			c-5.073,9.228-14.484,12.04-19.679,12.529c3.056-3.728,6.173-10.878,10.206-20.779c2.261-5.439,4.339-10.512,6.234-13.995
			c3.606-6.539,7.212-8.617,9.106-9.228c-0.183,2.261,0.244,4.889,1.406,7.762c0.489,1.345,1.1,2.567,1.711,3.789
			C122.831,346.098,120.814,352.76,114.213,364.739z M166.528,344.937c-1.833,0.306-2.689-0.061-2.811-0.244
			c-0.306-0.611-0.917-0.917-1.589-0.856s-1.161,0.55-1.345,1.222c-0.122,0.428-2.506,10.756-13.262,10.267
			c-12.223-0.55-19.129-5.134-23.163-15.462c-1.406-3.667-1.589-6.662-0.55-8.739c0.672-1.283,1.65-2.017,2.322-2.383
			c3.422,3.728,8.128,5.745,14.179,5.989c0.244,0,0.489,0,0.794,0c6.478,0,11.306-3.3,14.24-6.112
			c4.095-3.972,6.906-9.289,7.089-12.101c1.161-2.506,1.772-5.561,1.65-8.862c-0.306-7.945-5.134-13.812-5.317-14.056
			c-0.55-0.672-1.528-0.733-2.2-0.183c-0.672,0.55-0.733,1.528-0.183,2.2c0.061,0.061,4.339,5.378,4.584,12.223
			c0.244,6.6-2.872,11.429-5.867,11.612c-2.934,0.244-4.828-2.261-4.889-2.384c-0.367-0.489-0.978-0.733-1.65-0.611
			c-0.611,0.122-1.1,0.672-1.161,1.283c-0.061,0.306-0.611,3.3-4.584,3.85c-1.1,0.183-2.322-0.672-3.117-1.406
			c-3.3-2.995-6.112-9.595-5.928-13.873c0.244-5.806,3.056-9.962,3.117-9.962c0.489-0.672,0.306-1.65-0.367-2.2
			c-0.733-0.489-1.65-0.306-2.2,0.367c-0.122,0.183-3.422,4.889-3.667,11.673c-0.183,5.134,3.056,12.773,6.906,16.318
			c1.589,1.467,3.3,2.2,4.889,2.2c0.244,0,0.489,0,0.733-0.061c3.3-0.489,5.256-2.2,6.295-3.972
			c1.283,0.978,3.239,2.017,5.745,1.833c0.428,0,0.856-0.122,1.283-0.244c-0.917,1.345-2.078,2.75-3.484,4.156
			c-2.628,2.506-6.967,5.5-12.773,5.256c-12.467-0.489-18.273-9.717-17.784-28.113c0.489-18.518,10.756-22.001,18.457-23.04
			c2.567-0.367,5.011,0.428,7.212,1.528c0.183,0.183,0.367,0.367,0.672,0.489c0.122,0.061,0.244,0.061,0.367,0.061
			c3.117,1.833,5.256,4.156,5.256,4.217c0.55,0.611,1.589,0.672,2.2,0.122c0.611-0.55,0.672-1.589,0.122-2.2
			c-0.183-0.183-2.2-2.445-5.378-4.4c0.978-1.895,3.239-5.256,6.906-6.05c5.745-1.222,9.962-1.406,19.801,6.6
			c0.856,0.672,1.65,1.467,2.383,2.2c0.183,0.183,0.428,0.306,0.611,0.367c1.283,3.728,2.567,6.417,3.667,7.395
			c0.306,0.244,0.611,0.489,0.917,0.733c1.65,5.011,1.1,9.351,0.489,11.184c-0.978,2.934-3.85,3.484-3.972,3.484
			c-0.611,0.122-1.1,0.55-1.283,1.222c-0.122,0.611,0.122,1.283,0.611,1.65c0.061,0.061,5.989,4.4,1.711,19.068
			C180.34,339.009,171.6,344.143,166.528,344.937z M172.884,350.865c-2.017-0.55-3.422-1.956-4.339-3.178
			c6.05-1.589,14.668-7.395,18.029-18.823c3.361-11.673,0.917-17.784-1.1-20.596c0.978-0.55,2.078-1.345,2.934-2.628
			c1.772,0.367,5.745,1.711,6.6,7.334c1.222,8.067-3.178,28.174-13.69,35.508C178.14,350.743,175.328,351.538,172.884,350.865z
			 M189.69,293.601c0.489,0.183,0.917,0.367,1.345,0.55c2.445,0.978,3.484,1.406,3.911,3.545c0.183,1.039,0.55,4.584,0.917,9.351
			c-1.772-2.506-4.217-3.789-6.295-4.339C190.179,300.568,190.424,297.268,189.69,293.601z M197.452,324.586
			c0.672,7.578,1.406,14.79,2.2,21.024c-0.55-1.039-1.161-2.017-1.772-2.872c-1.589-2.139-3.178-3.484-4.889-4.095
			C195.13,334.059,196.596,329.109,197.452,324.586z M180.584,362.905c-0.733-4.278-0.794-8.128-0.733-9.901
			c1.039-0.489,2.139-1.1,3.239-1.895c0.306-0.183,0.55-0.428,0.794-0.611c1.772,1.283,5.989,5.195,8.801,13.873
			c2.383,7.273,6.478,14.484,9.412,19.129C194.457,378.184,181.257,366.816,180.584,362.905z M195.619,363.455
			c-2.872-8.739-7.028-13.14-9.412-14.973c2.017-2.017,3.728-4.4,5.195-6.967c1.1,0.122,2.261,0.978,3.484,2.567
			c6.662,8.495,10.756,31.413,11.123,39.908C203.258,379.651,198.247,371.522,195.619,363.455z M321.76,289.323
			c1.161-1.895,2.384-5.134,3.667-9.167c0,0,0,0,0-0.061c0-0.061,1.772-3.667,4.156-3.361c2.017,0.306,3.3-0.978,4.523-2.261
			c2.078-2.139,4.706-4.767,12.651-3.484c1.956,0.306,3.545,0.733,4.95,1.283c0.306,0.55,0.795,0.856,1.345,0.856
			c0.122,0,0.244,0,0.367-0.061c2.934,1.528,4.278,3.484,4.828,4.95c0,0.061,0.061,0.122,0.061,0.183s0.061,0.061,0.061,0.122
			c-7.639-1.283-18.396,0.733-25.668,6.662c-4.828,3.911-7.334,8.006-8.678,11.49C322.921,294.884,321.638,292.378,321.76,289.323z
			 M361.424,376.656c-6.478-6.478-9.962-13.384-11.673-17.784c2.75,1.711,6.417,3.117,11.428,3.789
			c0.489,0.061,0.978,0.122,1.406,0.122c2.689,2.322,18.396,16.257,25.363,25.607C382.019,387.412,369.43,384.662,361.424,376.656z
			 M388.192,383.623c-6.417-7.7-16.379-16.868-21.207-21.146c2.139-0.428,4.034-1.345,5.623-2.75
			c0.428-0.367,0.856-0.794,1.222-1.222C382.203,365.227,386.297,376.411,388.192,383.623z M391.248,339.865
			c-3.3,8.189-11.49,6.662-18.212,4.4c-0.489-0.183-0.856-0.306-1.161-0.367c-3.178-0.917-7.578-0.489-14.545,1.283
			c-6.478,1.711-20.412-0.55-23.713-9.228c-0.306-0.794-1.222-1.222-2.017-0.917s-1.222,1.222-0.917,2.017
			c4.095,10.756,20.229,13.017,27.441,11.123c6.417-1.65,10.267-2.078,12.895-1.283c0.244,0.061,0.611,0.183,0.978,0.306
			c0.672,0.244,1.65,0.55,2.75,0.856c-0.183,1.711-0.917,6.417-4.217,9.289c-2.2,1.895-5.256,2.628-8.984,2.139
			c-7.15-0.917-11.245-3.667-13.568-6.05c-0.061-0.122-0.183-0.244-0.306-0.306c-1.772-1.956-2.322-3.606-2.322-3.728
			c-0.183-0.489-0.55-0.917-1.039-1.039c-0.122-0.061-0.306-0.061-0.428-0.061c-0.367,0-0.733,0.122-1.039,0.367
			c-0.183,0.183-5.256,4.461-15.584,0.244c-6.6-2.689-11.979-15.218-13.201-25.302c-0.611-5.011,0.122-7.517,0.733-8.006
			c6.478-4.706,9.473-7.639,10.206-10.206c0.183-0.55,0.244-1.161,0.428-1.956c0.611-3.484,1.711-9.901,9.289-16.073
			c9.351-7.578,24.568-7.701,28.724-3.728c1.161,1.1,2.139,2.078,2.934,2.872c2.934,2.872,4.4,4.339,6.478,4.339
			c0.489,0,1.039-0.122,1.772-0.306c3.117-0.733,9.534-2.322,15.645,5.439c2.506,3.239,3.3,7.089,2.261,11.551
			c-1.283,5.561-5.073,10.084-6.05,10.512h-0.061c-0.122,0.061-0.183,0.061-0.244,0.122c0,0-0.061,0-0.061,0.061
			c-0.122,0.061-0.183,0.122-0.306,0.244c0,0,0,0.061-0.061,0.061c-0.061,0.061-0.122,0.183-0.183,0.244c0,0,0,0.061-0.061,0.061
			c-0.061,0.122-0.061,0.183-0.122,0.306c0,0.122-0.061,0.244,0,0.367v0.061c0,0.061,0,0.122,0,0.183s0,0.061,0.061,0.122v0.061
			c0.061,0.122,0.122,0.244,0.183,0.306c0.061,0.122,0.122,0.183,0.244,0.244c0,0,0,0,0,0.061c0.183,0.183,2.506,2.261,4.278,5.561
			c0.061,0.122,0.061,0.244,0.183,0.367c0,0.061,0.061,0.061,0.122,0.122C392.164,330.147,393.265,334.731,391.248,339.865z
			 M427.55,318.719c-2.139,2.139-6.173,5.195-13.384,7.456c-12.895,4.034-19.801,0.917-21.146-1.222
			c-0.061-0.061-0.061-0.122-0.122-0.122c-0.978-1.772-2.017-3.239-2.934-4.278c5.928-1.161,19.985-3.728,26.463-2.567
			C421.072,318.841,424.922,318.902,427.55,318.719z M395.159,309.613c0.061-0.244,0.122-0.428,0.183-0.672
			c1.772-0.367,6.234-1.039,11.673-0.122c4.828,0.856,12.651,4.4,17.846,6.845c-2.139,0-4.828-0.183-7.884-0.733
			c-6.295-1.161-18.579,0.856-25.424,2.139C392.959,314.991,394.365,312.363,395.159,309.613z M393.387,295.129
			c-0.244-0.367-0.489-0.672-0.733-0.978c-7.334-9.351-15.401-7.395-18.823-6.539c-0.367,0.122-0.856,0.183-1.039,0.244
			c-0.733,0-2.078-1.283-4.278-3.422c-0.856-0.856-1.833-1.772-2.995-2.934c-0.978-0.917-2.261-1.65-3.728-2.2
			c0-0.122-0.061-0.306-0.061-0.428c3.117-0.306,10.879-0.611,24.324,2.322c12.773,2.75,22.857,4.523,29.946,4.523
			c0.367,0,0.672,0,0.978,0C411.049,289.445,401.576,294.64,393.387,295.129z M421.5,281.928c-6.234,1.772-20.29-0.794-34.774-3.911
			c-14.912-3.239-23.102-2.689-26.096-2.261c-0.733-1.345-1.833-2.811-3.667-4.156c2.261-0.856,5.317-1.833,8.067-1.956
			c1.711,0.917,3.606,1.528,5.623,1.65c0.428,0.061,0.917,0.061,1.345,0.061c3.911,0,7.212-1.528,9.534-3.545
			C385.381,267.749,409.521,267.688,421.5,281.928z M355.007,252.776c-0.856-2.2-0.611-3.239-0.428-3.667
			c0.061-0.122,0.122-0.183,0.183-0.244c0.244,0.122,0.489,0.183,0.795,0.306c1.1,1.1,5.684,5.745,10.023,8.128
			c2.872,1.589,6.6,3.178,12.101,3.178c1.345,0,2.811-0.122,4.339-0.306c0.306,1.039-0.183,2.261-0.489,2.75
			c-1.528,2.934-5.684,5.745-10.634,5.317C363.318,267.566,357.207,258.643,355.007,252.776z M394.303,241.286
			c0.733,2.322,0.672,6.173-1.222,9.473c-1.589,2.811-4.034,4.645-7.334,5.5c-9.534,2.383-14.79,0.489-18.701-1.65
			c-3.789-2.078-8.006-6.234-9.167-7.456c-0.306-1.833-1.161-2.934-1.895-3.85c-0.672-0.794-1.345-1.589-1.711-3.178
			c-0.611-2.261,1.833-4.889,2.934-5.806c1.406-0.611,10.879-4.278,19.312-2.934C385.503,232.852,392.959,237.008,394.303,241.286z
			 M381.225,219.652c0.244-0.428,1.222-0.733,2.811-0.733c0.428,0,0.978,0,1.528,0.061c1.406,3.484,1.833,5.561,1.772,6.295
			c-1.406,0.794-4.156,1.65-6.295,1.65C380.308,226.13,380.247,221.424,381.225,219.652z M390.392,232.913
			c-1.956-1.161-4.278-2.2-6.845-2.995c1.833-0.306,3.667-0.917,5.073-1.65c1.1,0.55,2.811,1.222,4.523,1.467
			C392.042,231.325,390.881,232.425,390.392,232.913z M394.12,220.263c0.978,2.322,0.856,4.523,0.367,6.356
			c-0.611,0.183-2.2-0.183-3.972-0.978c0.122-1.406-0.367-3.789-1.956-7.823c-0.428-1.1-1.406-1.833-2.567-1.956
			c-2.628-0.306-6.05-0.122-7.395,2.2c-1.161,2.139-1.772,7.7-0.244,10.328l0.061,0.061c-0.428-0.061-0.917-0.183-1.344-0.244
			c-8.923-1.467-18.518,2.139-20.779,3.056c-0.917-0.244-3.239-0.917-5.378-2.689c-1.406-1.161-1.65-2.322-1.833-3.422
			c-0.122-0.611-0.244-1.283-0.611-1.833c1.833-3.056,8.251-12.712,18.273-14.973C378.536,205.778,390.942,212.501,394.12,220.263z
			 M399.254,193.739c-2.628,3.606-10.328,12.773-15.279,13.384c-1.406-0.611-2.872-1.1-4.4-1.467
			c0.061-0.367,0.122-0.794,0.122-1.161c2.322-1.161,8.373-4.4,13.568-9.84c3.545-3.728,7.212-8.434,9.84-11.917
			C402.554,186.405,401.454,190.866,399.254,193.739z M402.371,178.46c-2.322,3.3-6.967,9.534-11.306,14.056
			c-4.156,4.339-9.045,7.273-11.673,8.617c-0.489-2.078-1.406-4.217-2.872-6.111C382.325,189.644,394.915,179.193,402.371,178.46z
			 M347.917,209.201c5.867-11.429,12.162-16.379,19.862-15.584c2.445,0.244,4.217,1.222,5.439,2.506
			c0.978,0.917,1.65,2.017,2.139,2.934c0.795,1.65,1.161,3.239,1.222,4.461v0.061c0.061,0.611,0,1.1-0.061,1.467
			c-3.422-0.489-6.967-0.428-10.573,0.367c-9.595,2.139-16.073,10.023-19.007,14.423
			C346.023,217.818,345.289,214.273,347.917,209.201z M340.828,245.198c1.895-0.367,6.784,1.039,11.001,2.567
			c-0.733,1.528-0.672,3.606,0.306,6.111c1.344,3.606,4.523,9.29,9.106,13.201c-3.178,0.733-6.173,1.956-7.7,2.628
			c-1.711-0.733-3.789-1.345-6.234-1.711c-9.534-1.467-13.201,2.2-15.34,4.4c-0.978,1.039-1.467,1.467-1.895,1.345
			c-1.039-0.122-2.017,0-2.872,0.367c2.078-7.7,4.034-16.929,5.561-25.24C334.105,248.009,337.956,245.809,340.828,245.198z
			 M334.533,145.825c-1.344,3.117-2.567,3.178-4.217,3.178c-1.711,0.244-3.972,0.244-5.317,3.239
			c-1.711,3.85-4.095,11.673-2.078,16.379c0.489,1.161,1.283,2.261,2.2,3.545c2.139,3.056,4.828,6.784,5.561,14.24
			c0.55,5.928-2.689,9.412-3.789,12.223c-0.856,2.2-1.711,4.278-1.161,6.723c0.306,1.283,0.795,2.689,1.345,4.278
			c1.528,4.278,5.561,10.145,5.195,19.862c-0.061,2.139-0.367,4.889-0.795,8.067c0,0.061,0,0.122,0,0.244
			c-0.428,2.934-0.917,6.173-1.528,9.595c0,0.061,0,0.122-0.061,0.244c-1.895,10.695-4.645,22.857-7.15,31.169
			c-0.061,0.122-0.061,0.244-0.122,0.367c-1.283,4.156-2.445,7.273-3.422,8.678c-0.061,0.061-0.122,0.122-0.183,0.244
			c-0.122,0.122-0.183,0.244-0.306,0.306c-1.711,1.528-3.422,2.2-5.073,2.811c-2.506,0.978-6.295,1.956-7.089,5.867
			c-0.306,1.528-0.733,6.784-1.345,13.995c-1.406,16.99-2.872,48.648-5.989,53.231c-2.261,3.3-5.684,6.173-8.434,8.434
			c-0.061,0.061-0.122,0.122-0.244,0.183c0.061-0.183,0.061-0.428,0-0.611c-0.489-2.261-7.639-35.386-13.506-61.848
			c3.3-4.828,29.641-43.269,33.552-44.247c4.156-1.039,8.678,6.234,10.451,6.967c1.711,0.672,5.561-20.168,7.334-29.213
			c1.711-9.045-3.85-9.045-3.85-9.045c-1.65-0.489-15.279,23.652-18.09,30.619c-2.506,6.234-25.607,33.919-30.557,39.847
			c-3.239-14.484-4.95-26.157-5.5-27.624c-1.528-4.034-13.873-21.574-15.768-24.507c0,0-0.672-73.094-1.528-73.094
			c-0.856,0-1.528,0.672-1.528,1.528v71.566c-1.283,2.261-8.006,14.423-11.245,25.363c-1.039,3.606-3.117,13.018-5.623,24.752
			c-5.134-10.817-16.807-27.868-17.357-28.724c-0.489-0.733-1.467-0.917-2.139-0.428c-0.733,0.489,15.401,25.241,18.396,34.469
			c-0.428,1.956-0.856,3.972-1.283,6.05c-4.95,23.529-11.734,55.737-13.69,58.67c-0.489,0.733-0.306,1.711,0.428,2.139
			c0.244,0.183,0.55,0.244,0.856,0.244c0.489,0,0.978-0.244,1.283-0.672c2.139-3.178,7.212-26.768,14.179-59.77
			c3.422-16.134,6.6-31.413,7.945-35.997c2.078-6.967,5.684-14.668,8.251-19.618v16.746c0,0.856,0.672,1.528,1.528,1.528
			c0.856,0,1.528-17.234,1.528-17.234c4.461,6.967,10.94,15.34,11.917,17.968c1.283,3.361,15.584,68.999,20.962,94.056
			c0.183,0.733-1.528,4.645-1.528,6.295c0,3.789-7.212,76.455-11.001,82.077c-2.995,4.523-10.817,7.701-14.545,8.801l-4.645-22.918
			c-0.244-1.345-1.467-2.261-2.75-2.261c-1.283,0-2.506,0.978-2.75,2.261l-4.645,22.918c-3.667-1.1-11.49-4.278-14.545-8.801
			c-3.789-5.623-11.001-78.288-11.001-82.077c0-2.017-1.528-3.789-4.767-6.539c-2.75-2.322-6.173-5.134-8.434-8.434
			c-3.178-4.584-3.972-36.241-5.378-53.231c-0.611-7.273-1.039-12.467-1.345-13.995c-0.794-3.911-5.256-4.889-7.7-5.867
			c-1.65-0.611-3.361-1.283-5.073-2.811c-4.034-3.606-11.184-44.797-11.673-58.915c-0.367-9.778,1.772-15.584,3.3-19.862
			c0.55-1.589,1.039-2.934,1.345-4.278c0.55-2.445-0.306-4.522-1.161-6.723c-1.1-2.811-4.4-6.295-3.789-12.223
			c0.733-7.456,3.361-11.245,5.561-14.24c0.917-1.283,1.65-2.322,2.2-3.545c2.017-4.706-0.367-12.529-2.078-16.379
			c-1.345-2.995-3.606-3.056-5.134-3.056c-1.711,0-2.872-0.061-4.217-3.178c-2.811-6.6,4.706-23.713,7.089-26.585
			c1.589-1.956,5.745-0.489,9.412-0.367c1.039,0.061,2.017,0.061,2.934,0.061c5.317,0,14.545-5.745,19.129-8.801
			c1.956-1.283,6.539-1.711,11.001-2.139c4.217-0.367,8.495-0.794,11.856-1.895c2.995,2.628,15.34,13.69,18.518,21.818
			c0,0,0.672,24.568,1.528,24.568s1.528-0.672,1.528-1.528v-22.979c0.611-1.222,2.995-6.05,6.173-11.062
			c4.584,2.139,9.656,3.606,15.584,3.728c0.122,0,0.244,0,0.306,0c3.789,0,6.784-1.1,8.984-3.239c1.1-1.1,1.833-2.322,2.322-3.422
			c1.161,1.772,2.872,3.728,5.073,4.706c3.239,1.406,10.634,3.606,19.129-0.917c1.833,2.506,6.906,7.456,19.312,9.656
			C334.166,133.907,336.244,141.913,334.533,145.825z M437.39,103.655c-21.268,32.758-87.944,44.369-88.617,44.492
			c-4.584,0.733-9.289-0.611-11.123-1.956c1.467-5.195-0.856-13.079-2.689-17.968c0.611,0.061,1.222,0.122,1.833,0.183
			c2.017,0.183,3.85,0.244,5.623,0.244c16.868,0,22.185-7.945,22.429-8.312c0.122-0.183,0.183-0.367,0.183-0.489
			c0-0.061,0-0.061,0-0.122c0-0.061,0-0.122,0-0.183c0-0.061,0-0.061,0-0.122c0-0.061,0-0.122,0-0.183v-0.061v-0.061
			c0-0.061-0.061-0.122-0.061-0.183c0-0.061,0-0.061-0.061-0.122c0-0.061-0.061-0.122-0.061-0.122c0-0.061-0.061-0.061-0.061-0.122
			c-0.061-0.061-0.061-0.122-0.122-0.122l-0.061-0.061c-0.122-0.122-2.384-2.2-9.412-6.478c14.423-1.772,28.113-4.95,41.68-9.717
			c29.824-10.512,45.592-38.136,50.97-49.503c0.917-1.895,1.528-3.545,2.017-4.828c1.283-3.422,1.589-3.728,2.75-3.667
			C454.93,47.185,456.702,73.831,437.39,103.655z"/>
		<path fill="#353535" d="M267.307,454.211c1.589-0.611,2.628-2.078,2.75-3.728l4.706-71.443
			c-1.711,0.367-6.967,21.574-8.006,20.535c-1.039-1.039-5.928-10.756-5.928-10.756v62.948
			C262.662,455.067,265.351,454.944,267.307,454.211z"/>
		<path fill="#353535" d="M238.399,454.211c1.956,0.733,4.706,0.856,6.478-2.506v-62.948c0,0-4.889,9.717-5.928,10.756
			c-1.039,1.039-6.234-20.168-8.006-20.535l4.706,71.443C235.771,452.072,236.81,453.6,238.399,454.211z"/>
		<path fill="#353535" d="M254.411,375.862c0,0-0.672-88.495-1.528-88.495c-0.856,0-1.528,0.672-1.528,1.528
			c0,0,0.672,88.495,1.528,88.495C253.739,377.389,254.411,376.717,254.411,375.862z"/>
		<path fill="#353535" d="M184.312,235.908c-2.934,0.367-1.283,35.508,1.406,36.852c2.689,1.345,13.568-10.145,13.506-12.467
			C199.224,260.293,187.246,235.603,184.312,235.908z"/>
		<path fill="#353535" d="M205.947,189.216c-7.395-19.557-19.862-16.746-20.351-16.623c-0.794,0.244-1.283,1.039-1.1,1.895
			c0.183,0.856,1.039,1.345,1.895,1.1c0.367-0.061,9.106-2.017,15.401,14.668c6.845,18.151,16.379,57.693,17.112,57.693
			c0.122,0,0.244,0,0.367-0.061c0.856-0.183,1.344-1.039,1.161-1.833C220.37,245.748,212.914,207.551,205.947,189.216z"/>
		<path fill="#353535" d="M320.477,169.476c-0.55,0.122-14.423,3.545-16.257,15.523c-1.711,11.001-9.473,60.687-9.534,61.176
			c-0.122,0.856,0.428,1.65,1.283,1.833c0.122,0,0.183,0,0.306,0c0.733,0,10.573-51.52,12.345-62.521
			c1.528-9.901,12.59-12.956,12.773-13.017c0.856-0.244,1.345-1.039,1.1-1.895C322.127,169.782,321.332,169.293,320.477,169.476z"/>
		<path fill="#353535" d="M349.139,289.812c0.856-0.122,1.406-0.978,1.283-1.833c-0.122-0.856-0.978-1.406-1.833-1.283
			c-0.244,0.061-6.356,1.161-12.467,6.356c-5.561,4.767-12.223,13.995-12.04,30.924c0,0.856,0.672,1.528,1.528,1.528
			s1.528-0.733,1.528-1.589C326.955,294.212,348.223,289.995,349.139,289.812z"/>
		<path fill="#353535" d="M378.536,310.957c-0.611-0.733-1.1-1.345-1.528-3.178c-0.978-4.217-3.361-5.256-5.928-6.356
			c-0.672-0.306-1.344-0.55-2.078-0.978c-1.711-0.856-3.484-2.445-5.011-3.85c-1.589-1.406-2.934-2.628-4.278-3.239
			c-2.995-1.345-7.395,0.672-15.462,5.317c-6.784,3.85-6.295,9.228-6.05,11.795c0,0.244,0.061,0.55,0.061,0.794
			c-0.122,0.061-0.306,0.122-0.428,0.122c-1.589,0.489-4.278,1.406-6.723,5.867c-3.239,5.989,1.344,10.817,4.217,12.529
			c0.733,0.428,1.711,0.183,2.139-0.55c0.428-0.733,0.183-1.711-0.55-2.139c-0.611-0.367-5.684-3.606-3.056-8.373
			c1.833-3.422,3.606-3.972,4.95-4.4c0.917-0.306,2.322-0.733,2.567-2.384c0.061-0.55,0-1.1-0.061-1.772
			c-0.244-2.506-0.55-5.928,4.461-8.801c3.728-2.139,10.634-6.05,12.712-5.134c0.856,0.367,2.139,1.528,3.484,2.689
			c1.711,1.528,3.606,3.239,5.684,4.278c0.795,0.428,1.589,0.733,2.261,1.039c2.322,0.978,3.484,1.467,4.095,4.156
			c0.611,2.567,1.467,3.606,2.2,4.461c0.611,0.733,1.161,1.406,1.711,3.422c0.55,1.895-0.306,4.523-1.467,6.784
			c-0.306-6.539-5.5-12.345-5.806-12.651c-0.55-0.611-1.589-0.672-2.2-0.122c-0.611,0.55-0.672,1.589-0.122,2.2
			c0.061,0.061,6.723,7.517,4.523,13.812c-2.261,6.539-6.723,8.862-9.901,8.862c-1.711,0-3.3-1.161-4.278-2.017
			c3.117-3.728,6.6-13.323,6.356-15.645c-0.122-1.1-0.978-2.322-3.117-2.383c-3.422-0.122-8.862,2.811-10.023,8.801
			c-1.161,5.745,1.039,8.556,2.567,9.778c-0.795,1.406-2.017,3.056-3.178,3.056c-3.422,0-7.578-0.611-8.128-3.667
			c-0.672-3.911,2.811-16.684,9.717-20.779c6.04-3.613,8.894-3.159,9.295-3.069l1.217-2.859c-0.672-0.244-4.278-1.345-12.101,3.3
			c-8.556,5.073-11.979,19.312-11.184,23.957c0.428,2.322,2.383,6.234,11.184,6.234c2.628,0,4.523-2.322,5.623-4.156
			c1.406,1.161,3.545,2.567,6.112,2.567c3.728,0,8.739-2.261,11.795-8.434c3.117-1.956,7.578-9.228,6.111-14.423
			C380.125,312.852,379.269,311.813,378.536,310.957z M356.29,331.309c-0.917-0.733-2.261-2.567-1.406-6.723
			c0.733-3.545,3.239-5.134,4.339-5.623c1.039-0.489,1.895-0.611,2.445-0.611c0.061,0,0.183,0,0.244,0
			C361.668,320.858,358.185,329.17,356.29,331.309z"/>
		<path fill="#353535" d="M362.218,309.246c0,0-0.022-0.006-0.055-0.013l-0.006,0.013H362.218z"/>
		<path fill="#353535" d="M138.354,205.534c3.178-1.65,7.028-5.5,6.234-12.101c-0.978-8.128-7.762-10.267-11.184-10.267
			c-0.856,0-1.528,0.672-1.528,1.528c0,0.856,0.672,1.528,1.528,1.589c0.306,0,7.273,0.122,8.128,7.517
			c0.856,7.395-5.684,9.473-5.928,9.534c-0.489,0.122-0.917,0.55-1.039,1.1c-0.122,0.489,0,1.1,0.367,1.467
			c0.122,0.122,2.445,2.75,1.833,7.884c-0.55,4.522-7.7,4.645-7.762,4.645c-0.856,0-1.528,0.672-1.528,1.528
			c0,0.856,0.672,1.528,1.528,1.528c0.428,0,10.023-0.061,10.878-7.395C140.248,210.118,139.271,207.245,138.354,205.534z"/>
		<path fill="#353535" d="M115.986,224.113c-0.122,0-9.901,1.039-13.262-5.928c-0.367-0.794-1.283-1.1-2.078-0.733
			c-0.794,0.367-1.1,1.283-0.733,2.078c3.361,6.906,10.94,7.762,14.545,7.762c1.1,0,1.833-0.061,1.956-0.122
			c0.856-0.122,1.467-0.856,1.345-1.711C117.575,224.663,116.841,224.052,115.986,224.113z"/>
		<path fill="#353535" d="M110.608,218.918c0.122,0,0.244,0.061,0.306,0.061c0.733,0,1.345-0.489,1.528-1.222
			c0.183-0.856-0.367-1.65-1.222-1.833c-0.489-0.122-12.284-2.872-9.473-18.335c2.872-15.707,22.185-15.951,22.979-15.951
			c0.856,0,1.528-0.672,1.528-1.528c0-0.856-0.672-1.528-1.528-1.528c-0.244,0-22.735,0.183-26.035,18.518
			C95.329,215.496,110.485,218.857,110.608,218.918z"/>
		<path fill="#353535" d="M116.047,195.389c3.178-0.244,6.6-1.039,6.723-1.1c0.856-0.183,1.345-1.039,1.161-1.895
			c-0.183-0.856-1.039-1.345-1.895-1.161c-0.061,0-3.3,0.794-6.295,1.039c-4.4,0.367-8.739,3.972-8.617,11.245
			c0.122,7.517,3.239,12.345,8.434,13.262c0.061,0,0.183,0,0.244,0c0.733,0,1.406-0.55,1.528-1.283
			c0.122-0.856-0.428-1.65-1.283-1.833c-4.95-0.856-5.806-6.784-5.867-10.267C110.18,197.895,113.297,195.633,116.047,195.389z"/>
		<path fill="#353535" d="M129.309,199.545c-0.183-1.833-1.039-3.178-2.383-3.728c-2.689-1.1-8.189,1.895-10.267,4.95
			c-1.589,2.322-1.528,4.706,0.183,6.539c0.244,0.306,0.611,0.428,0.978,0.489c0.428,0.061,1.65,0.183,3.056,0.183
			c1.895,0,4.095-0.183,5.5-1.1C128.392,205.656,129.553,202.05,129.309,199.545z M124.725,204.251
			c-0.978,0.611-3.85,0.672-5.928,0.489c-0.244-0.489-0.306-1.1,0.306-2.078c1.589-2.567,5.745-4.278,6.662-4.034
			c0.244,0.122,0.428,0.672,0.428,1.1C126.375,201.623,125.397,203.823,124.725,204.251z"/>
		<path fill="#353535" d="M148.438,294.456c-0.611-0.55-1.283-0.672-1.772-0.672c-0.611,0-2.383,0-4.034,1.345
			c-1.589,1.345-2.567,3.484-2.75,6.356c-0.367,4.645,0.733,8.312,2.995,9.778c0.611,0.428,1.283,0.611,1.895,0.611
			c0.428,0,0.856-0.122,1.283-0.306c2.261-1.161,5.011-6.784,5.011-9.473C151.066,300.201,150.21,295.984,148.438,294.456z
			 M144.771,308.757c-0.55-0.183-2.139-2.139-1.711-7.028c0.367-4.461,2.628-4.828,3.361-4.828c0.061,0,0.061,0,0.122,0
			c0.55,0.672,1.467,3.361,1.467,5.256C147.949,303.99,145.749,308.085,144.771,308.757z"/>
		<path fill="#353535" d="M176.062,304.968c-0.061-0.244-0.244-0.428-0.428-0.611c0.794-1.711,3.056-7.884-1.65-15.401
			c-1.833-2.872-4.034-4.584-6.662-5.073c-3.85-0.733-7.028,1.589-7.212,1.65c-0.672,0.489-0.856,1.467-0.306,2.139
			c0.489,0.672,1.467,0.856,2.2,0.367c0,0,2.261-1.589,4.767-1.1c1.711,0.306,3.239,1.589,4.584,3.667
			c4.4,6.967,1.467,12.406,1.345,12.651c-0.367,0.672-0.183,1.467,0.367,1.956c-0.061,0.244-0.061,0.55,0.061,0.794
			c2.75,7.517,0.856,14.179-1.222,18.396c-3.545,7.273-9.595,12.04-13.995,13.506c-8.801,2.934-20.657-0.978-20.779-1.039
			c-0.794-0.244-1.711,0.183-1.956,0.978s0.183,1.711,0.978,1.956c0.367,0.122,6.906,2.322,14.179,2.322
			c2.872,0,5.806-0.306,8.556-1.222c6.05-2.017,12.406-8.067,15.829-15.095C177.04,321.041,179.179,313.524,176.062,304.968z"/>
	</g>
	<path fill="#353535" d="M267.062,75.42c0.183,0,0.428-0.061,0.611-0.122c0.795-0.367,1.161-1.283,0.795-2.078
		c0,0-0.978-2.322,0-4.645c0.795-1.833,2.567-3.3,5.378-4.278c7.884-2.872,11.551,0.367,12.04,1.161c0,0.733,0.55,1.345,1.283,1.528
		c0.856,0.183,1.65-0.428,1.833-1.222c0.183-1.039-0.428-2.261-1.711-3.3c-1.222-1.039-5.867-4.156-14.484-1.039
		c-3.667,1.345-6.05,3.361-7.212,6.05c-1.528,3.606,0,6.967,0.061,7.089C265.901,75.115,266.451,75.42,267.062,75.42z"/>
	<path fill="#353535" d="M286.68,71.387c-0.061,0-3.606-0.122-5.806-0.55c-1.833-0.306-3.545,0.244-4.584,1.589
		c-0.856,1.161-1.039,2.628-0.367,3.972c1.161,2.506,5.195,6.417,9.412,6.906c0.367,0.061,0.733,0.061,1.1,0.061
		c2.689,0,5.684-0.978,7.517-2.506c1.039-0.856,1.65-1.895,1.772-2.995c0.244-3.117-5.317-5.378-8.678-6.417
		C286.924,71.448,286.802,71.448,286.68,71.387z M292.608,77.804c-0.061,0.183-0.244,0.428-0.611,0.733
		c-1.467,1.222-4.217,1.956-6.295,1.711c-3.117-0.367-6.234-3.545-6.967-5.134c-0.183-0.428-0.061-0.611,0-0.733
		c0.183-0.244,0.611-0.489,1.161-0.489c0.122,0,0.244,0,0.428,0.061c2.078,0.367,5.134,0.55,5.989,0.611
		C289.247,75.481,292.18,77.009,292.608,77.804z"/>
	<path fill="#353535" d="M289.491,89.965c-2.628-0.306-4.095-1.1-5.195-1.65c-0.856-0.428-1.589-0.795-2.506-0.795
		c-0.428,0-0.795,0.183-1.1,0.489c-0.428,0.489-4.4,4.4-8.801,0.55c-0.672-0.55-1.65-0.489-2.2,0.122
		c-0.55,0.672-0.489,1.65,0.122,2.2c2.078,1.833,4.156,2.506,6.05,2.506c2.628,0,4.95-1.283,6.417-2.567
		c0.183,0.061,0.428,0.183,0.611,0.306c1.222,0.611,3.117,1.589,6.234,1.956c5.806,0.733,10.39-3.545,13.384-6.784
		c3.85-4.217,0.55-12.895,0.183-13.873c-0.306-0.795-1.222-1.161-2.017-0.856s-1.161,1.222-0.856,2.017
		c0.795,2.017,2.628,8.251,0.428,10.573C296.214,88.56,292.792,90.393,289.491,89.965z"/>
</g>
<g>
</g>
<g>
</g>
<g>
</g>
<g>
</g>
<g>
</g>
<g>
</g>
<g>
</g>
<g>
</g>
<g>
</g>
<g>
</g>
<g>
</g>
<g>
</g>
<g>
</g>
<g>
</g>
<g>
</g>
</svg>
