<?xml version="1.0" encoding="iso-8859-1"?>
<!-- Generator: Adobe Illustrator 22.1.0, SVG Export Plug-In . SVG Version: 6.00 Build 0)  -->
<svg version="1.1" id="Layer_1" xmlns="http://www.w3.org/2000/svg" xmlns:xlink="http://www.w3.org/1999/xlink" x="0px" y="0px"
	 width="100px" height="100px" viewBox="0 0 500 500" enable-background="new 0 0 500 500" xml:space="preserve">
<g>
	<path fill="#00B497" d="M157.695,409.349c0.198,0.264,0.396,0.593,0.396,0.989c0,0.132,1.055,14.374,9.89,25.121
		c1.846,2.308,4.418,5.143,7.055,8.176c7.055,7.912,15.824,17.802,21.362,26.967c-7.055-37.318-28.945-65.934-37.516-75.89
		C158.948,398.272,158.816,403.283,157.695,409.349z"/>
	<path fill="#00B497" d="M165.278,437.634c-5.604-6.725-8.242-14.505-9.56-20.044c-1.121,3.758-2.703,7.846-4.813,12.132
		c0.066,0.066,0.066,0.198,0.066,0.264c2.506,19.055,15.824,32.176,26.505,39.89c8.044,5.802,15.956,9.494,20.176,11.143
		c-3.297-10.418-15.824-24.593-25.187-35.143C169.761,442.843,167.256,440.008,165.278,437.634z"/>
	<path fill="#FF8E6C" d="M145.63,397.085c1.253-0.659,2.505-1.451,3.758-2.44c15.297-11.868,5.802-27.428,5.407-28.088
		c-0.264-0.462-0.33-1.055-0.132-1.582c0.198-0.527,0.659-0.923,1.187-1.055c0.198-0.066,16.549-4.549,16.22-16.615
		c-0.396-12-13.582-14.637-14.176-14.769c-0.527-0.066-0.989-0.396-1.253-0.857c-0.264-0.462-0.33-1.055-0.132-1.516
		c0.066-0.198,1.846-5.934-7.846-10.615c-9.758-4.747-15.56,4.22-15.824,4.615c-0.33,0.593-0.989,0.923-1.648,0.857
		c-0.725-0.066-1.253-0.462-1.516-1.121c-0.396-0.923-3.363-3.429-7.78-4.747c-2.242-0.659-5.077-1.055-8.11-0.593h-0.066
		c-2.176,0.33-4.418,1.187-6.659,2.769c-9.363,6.725-2.835,18.725-2.571,19.253c0.33,0.593,0.264,1.319-0.132,1.912
		c-0.396,0.527-1.121,0.791-1.78,0.659c-0.462-0.132-11.934-2.44-15.099,10.483c-3.165,12.989,7.978,16.747,8.439,16.879
		c0.725,0.198,1.253,0.857,1.253,1.648c0.066,0.791-0.396,1.451-1.121,1.714c-2.176,0.857-4.088,5.802-3.231,11.011
		c0.659,3.824,3.231,10.22,13.187,10.483c6.132,0.132,10.747-1.253,13.714-4.088c3.429-3.231,3.494-7.451,3.494-7.516
		c0-0.659,0.396-1.319,0.923-1.582c0.527-0.264,1.253-0.264,1.78,0.066c0.132,0.132,4.681,2.703,11.538-1.912
		c6.527-4.418,4.22-10.022,3.956-10.615c-0.396-0.923-0.066-1.978,0.857-2.374c0.923-0.396,1.978,0,2.374,0.857
		c1.385,3.033,2.11,10.088-5.209,15.033c-5.736,3.89-10.417,3.692-13.055,2.967c-0.462,2.044-1.582,5.011-4.22,7.582
		c-0.066,0.066-0.066,0.066-0.132,0.132c2.374,2.176,11.67,9.692,23.538,3.165C145.63,397.085,145.63,397.085,145.63,397.085z
		 M131.256,361.745c-0.264,0.066-7.055,1.451-11.407,1.451c-0.132,0-0.264,0-0.33,0c-2.374,0-4.352-1.912-5.341-5.011
		c-1.187-3.56-0.857-8.44,1.912-10.483c1.978-1.451,5.407-1.187,8.901,0.725c3.758,2.044,7.978,6.396,7.714,11.67
		C132.641,360.888,132.047,361.613,131.256,361.745z M140.157,346.25c-0.132,0.989-1.055,1.648-2.044,1.516
		c-0.989-0.198-1.648-1.055-1.516-2.044c0-0.066,0.989-7.846-3.165-8.769c-4.286-0.923-7.582,6.989-7.582,7.055
		c-0.198,0.593-0.725,1.055-1.385,1.121c-0.593,0.066-1.253-0.132-1.648-0.659c0-0.066-3.363-4.22-7.121-4.549
		c-1.451-0.132-2.769,0.396-4.088,1.516c-5.341,4.747-1.121,11.077-0.923,11.341c0.33,0.462,0.396,1.121,0.132,1.714
		c-0.264,0.593-0.791,0.989-1.385,1.055c0,0.066-3.429,0.527-5.077,3.231c-1.253,1.978-1.319,4.747-0.198,8.242
		c0.923,2.901,2.308,4.681,4.022,5.143c2.703,0.725,6.198-1.582,7.319-2.571c0.725-0.593,1.846-0.527,2.505,0.198
		c0.593,0.725,0.527,1.846-0.198,2.505c-0.132,0.132-4.088,3.56-8.505,3.56c-0.725,0-1.385-0.066-2.11-0.264
		c-2.967-0.857-5.143-3.363-6.461-7.516c-1.451-4.549-1.253-8.374,0.593-11.275c1.451-2.308,3.56-3.494,5.209-4.154
		c-1.648-3.626-2.44-9.428,2.637-13.912c2.044-1.78,4.286-2.571,6.791-2.374c3.231,0.264,6,2.308,7.714,3.89
		c1.714-3.165,5.341-7.978,10.483-6.857C140.157,334.646,140.751,342.031,140.157,346.25z M145.102,353.173
		c-0.593,0-1.187-0.264-1.516-0.791c-0.527-0.857-0.264-1.978,0.527-2.505c3.363-2.176,5.275-4.879,5.736-7.846
		c0.791-5.209-2.967-10.022-3.033-10.088c-0.593-0.791-0.527-1.912,0.264-2.505c0.791-0.593,1.912-0.527,2.505,0.264
		c0.198,0.198,4.813,6.066,3.758,12.857c-0.659,4.022-3.099,7.516-7.253,10.286C145.761,353.108,145.432,353.173,145.102,353.173z"
		/>
	<path fill="#00B497" d="M155.322,394.975c-2.901,4.549-7.78,12.396-14.242,22.681c-7.582,12.132-13.385,29.67-15.956,38.307
		c17.934-14.769,25.187-31.187,28.088-42.725C155.124,405.657,155.454,399.195,155.322,394.975z"/>
	<path fill="#00B497" d="M148.069,399.92c-0.264,0.066-0.462,0.198-0.659,0.33c-1.78,0.923-14.769,8.571-20.505,21.956
		c-3.692,8.505-4.154,20.242-3.89,28.483c2.967-9.428,8.242-24.066,15.099-34.879C142.069,409.547,145.366,404.206,148.069,399.92z"
		/>
	<path fill="#FF8E6C" d="M123.278,351.591c-1.648-0.923-3.099-1.253-4.022-1.253c-0.462,0-0.857,0.132-1.055,0.264
		c-1.187,0.857-1.451,3.956-0.659,6.527c0.462,1.517,1.253,2.571,1.978,2.571c2.835,0.066,7.187-0.725,9.494-1.055
		C128.553,355.679,125.915,353.042,123.278,351.591z"/>
	<path fill="#00B497" d="M192.047,110.472c-3.363-0.593-11.341-1.648-18.725,0c-6.264,1.385-14.769,11.011-20.373,17.406
		c-1.187,1.385-2.242,2.505-3.099,3.494c9.692-1.055,21.297-6.33,27.758-12.989c6.132-6.198,11.67-7.319,14.308-7.516
		C191.981,110.736,191.981,110.604,192.047,110.472z"/>
	<path fill="#00B497" d="M322.464,40.121c-6.33,7.319-7.187,11.407-6.857,12.989c5.802-0.132,11.209,0.462,15.89,1.516
		c0.791-0.923,2.703-3.956,4.615-12.857c1.648-7.45,1.187-13.648,0.462-17.472c-1.187,1.517-2.835,3.297-5.011,5.67
		C329.189,32.538,326.222,35.769,322.464,40.121z"/>
	<path fill="#00B497" d="M319.76,37.813c3.824-4.352,6.791-7.582,9.231-10.22c1.78-1.912,3.165-3.429,4.22-4.681
		c-17.341,7.187-26.637,24.461-29.802,31.516c2.901-0.527,5.802-0.923,8.637-1.121C311.716,50.604,312.903,45.791,319.76,37.813z"/>
	<path fill="#FF9CA7" d="M395.188,194.537c1.385-0.462,2.176-1.451,1.978-2.571s-1.253-2.308-3.297-2.308
		c-3.099-0.066-5.341,2.769-6.396,4.418C390.639,194.735,393.606,195.065,395.188,194.537z"/>
	<path fill="#FF9CA7" d="M392.683,223.68c0.462,0.066,0.659,0,0.725,0c0.066-0.132,0.396-1.055-0.33-3.165
		c-1.121-3.363-3.824-7.187-6.659-8.835c0.066,0.396,0.198,0.791,0.33,1.187C388.793,219.856,389.914,223.218,392.683,223.68z"/>
	<path fill="#00B497" d="M276.244,130.582c-6.461,6.791-9.824,23.143-9.56,33.626c1.78-4.483,4.549-11.275,8.44-20.242
		c6.198-14.242,15.89-16.747,20.439-17.077c-0.132-0.33-0.33-0.659-0.462-0.989C292.332,125.307,282.772,123.725,276.244,130.582z"
		/>
	<path fill="#00B497" d="M279.079,50.868c0.066,7.516,0.066,14.571,0.725,17.538c0.198,0.066,0.396,0.132,0.593,0.198
		c2.967-3.89,6.659-7.187,10.879-9.626c0.33-18.527-4.615-28.549-8.835-33.692c-1.714-2.044-3.429-3.56-4.945-4.549
		c0.659,2.901,1.121,6.857,1.319,12.066C279.079,39.066,279.079,45.329,279.079,50.868z"/>
	<path fill="#FF9CA7" d="M96.773,244.053c1.451-1.978,1.912-4.286,1.912-5.341c-0.066,0-0.132,0.066-0.264,0.132
		c-2.374,1.451-3.297,4.681-3.626,6.857C95.652,245.174,96.377,244.647,96.773,244.053z"/>
	<path fill="#FF9CA7" d="M370.068,210.493c0.132,1.187,0.659,2.044,1.582,2.374c1.253,0.527,2.967,0.132,4.088-0.857
		c0.593-0.527,1.253-1.451,0.989-2.835l-4.352-6.462C370.859,205.416,369.804,208.251,370.068,210.493z"/>
	<path fill="#FF9CA7" d="M100.399,255.658c0.132-1.187,0-1.846-0.066-2.11c-0.659,0.264-2.176,1.516-3.099,3.758
		c-0.593,1.516-0.923,2.571-1.121,3.429C98.355,259.416,100.135,257.702,100.399,255.658z"/>
	<path fill="#FF9CA7" d="M70.861,241.482c-0.659-0.264-1.319-0.396-1.846-0.396c-0.528,0-0.989,0.132-1.385,0.396
		c-0.527,0.396-0.725,1.055-0.659,1.78c0.198,1.516,1.78,2.967,4.22,3.956c1.516,0.593,2.901,1.055,4.154,1.319
		C75.344,246.823,74.751,243.13,70.861,241.482z"/>
	<path fill="#FF9CA7" d="M80.883,218.141c-0.132-0.066-0.33-0.264-0.725-0.264c-0.396,0-0.923,0.198-1.714,0.857
		c-3.165,2.637-2.242,5.077,1.319,11.472c1.121,2.044,2.44,4.352,3.495,6.923C84.839,229.68,83.52,220.185,80.883,218.141z"/>
	<path fill="#00B497" d="M146.487,76.318c2.901,3.494,6.527,7.846,11.407,12.857c11.143,11.472,19.055,12.461,20.769,12.527
		c0.791-0.462,1.516-0.923,2.11-1.319c-2.308-2.176-6.462-6.923-11.341-16.022c-1.253-2.44-3.231-4.681-5.868-6.725
		c-6.989-5.472-17.143-8.439-24.725-9.692C141.278,70.121,143.652,72.89,146.487,76.318z"/>
	<path fill="#00B497" d="M165.805,105.791c2.242,0.396,5.077-0.396,7.78-1.516c-4.286-1.385-10.681-4.681-18.33-12.593
		c-4.945-5.143-8.571-9.494-11.538-13.055c-3.824-4.615-6.527-7.846-9.692-9.956c1.121,3.099,3.494,8.439,8.901,16.681
		C153.344,100.977,159.41,104.736,165.805,105.791z"/>
	<path fill="#00B497" d="M107.652,316.844c1.319-0.659,2.637-1.187,4.022-1.516c-1.055-19.516-21.56-36.593-32.176-44.11
		c2.703,4.879,6.461,12.264,10.418,21.494C95.916,306.69,104.883,314.602,107.652,316.844z"/>
	<path fill="#00B497" d="M270.706,59.373c0.462,1.714,0.989,4.286,1.451,7.187c0.923,0.132,2.308,0.396,3.89,0.725
		c-0.462-3.626-0.462-9.297-0.462-16.417c0-5.538,0-11.736-0.264-17.934c-0.396-8.967-1.451-12.527-2.044-13.846
		c-6.659,5.802-7.582,23.67-7.253,31.187C268.266,53.044,269.849,56.143,270.706,59.373z"/>
	<path fill="#FFAB4D" d="M214.596,85.087c-0.264,0-0.791,0.198-1.319,0.791c-0.725,0.923-1.78,3.494-0.264,10.022
		c0.923,4.154,2.571,6.857,4.681,7.912c1.648,0.857,3.297,0.462,4.088,0.198c2.44-4.22,4.945-10.747,3.297-12.923
		C222.838,88.186,217.036,85.879,214.596,85.087z"/>
	<path fill="#00B497" d="M268.596,169.351c2.242-0.33,5.736-1.253,9.692-3.956c6.132-4.22,14.439-13.648,19.516-34.615
		c-0.066-0.132-0.132-0.198-0.198-0.33c-0.923-0.132-12.264-0.923-19.187,14.967C273.145,157.548,270.046,165.592,268.596,169.351z"
		/>
	<path fill="#00B497" d="M104.421,318.756c-3.758-3.165-12-11.209-17.802-24.725c-4.286-10.022-8.374-17.802-11.011-22.483
		c-0.132,7.714,0.33,21.692,4.615,34.154c5.209,14.901,16.615,17.406,20.11,17.736C101.322,321.789,102.641,320.141,104.421,318.756
		z"/>
	<path fill="#FFAB4D" d="M180.377,85.813c-0.791,4.088-0.198,7.582,1.846,10.417c4.549,6.33,14.637,7.78,14.769,7.78
		c0.593,0.132,1.121,0.527,1.385,1.121c0.198,0.593,0.132,1.253-0.264,1.78c-0.066,0.066-4.483,5.934-3.429,13.187
		c0.725,4.945,3.824,9.428,9.165,13.385c8.703,6.396,16.615,5.143,21.758,2.967c7.846-3.297,14.11-11.011,15.165-18.725
		c1.78-12.791-6.725-15.89-7.121-16.022c-0.923-0.33-1.451-1.319-1.121-2.242c0.33-0.923,1.319-1.451,2.242-1.121
		c0.066,0.066,11.736,4.088,9.494,19.912c-1.253,8.901-8.374,17.736-17.341,21.494c-3.165,1.319-6.462,1.978-9.692,1.978
		c-3.297,0-6.593-0.659-9.758-2.044c0.593,5.341,3.758,12,9.56,16.22c4.088,2.967,10.945,5.736,20.308,1.978
		c18.198-7.253,13.253-23.077,13.055-23.736c-0.198-0.593-0.066-1.319,0.396-1.78c0.396-0.462,1.055-0.659,1.714-0.527
		c0.066,0,8.901,2.11,14.835-2.044c3.099-2.176,4.945-5.736,5.472-10.615c1.912-17.604-13.516-23.67-14.176-23.934
		c-0.725-0.264-1.187-0.989-1.121-1.78c0.066-0.791,0.593-1.451,1.385-1.582c3.297-0.659,5.802-2.374,7.516-5.209
		c3.429-5.472,3.692-15.297,0.857-26.308c-1.516-5.67-5.934-11.011-12.132-14.571c-6.461-3.692-13.978-5.011-19.582-3.429
		c-3.626,1.055-6,2.637-7.055,4.747c-0.725,1.516-0.659,3.033-0.462,3.89c3.165,0.989,12.198,4.945,15.494,17.011
		c3.956,14.505-6.461,22.549-6.923,22.879c-0.33,0.198-0.659,0.33-1.055,0.33c-0.593,0-1.121-0.264-1.451-0.725
		c-0.593-0.791-0.462-1.912,0.33-2.506c0.33-0.264,8.901-6.923,5.604-19.055c-3.363-12.198-13.45-14.703-13.912-14.769
		c-0.066,0-0.066,0-0.066,0c-0.066,0-0.132-0.066-0.198-0.066c-0.396-0.198-10.286-3.56-18.725,4.879
		c-4.813,4.813-4.615,9.429-3.56,12.461c0.066,0,0.066,0.066,0.066,0.132c0.725,1.978,1.714,3.231,1.846,3.363
		c0.396,0.462,0.527,1.055,0.33,1.648c-0.198,0.527-0.593,0.989-1.187,1.187c-0.264,0.132-6.725,2.374-6.396,11.802
		c0.33,9.626,8.637,12.593,8.967,12.725c0.462,0.198,0.857,0.527,1.055,0.989c0.198,0.462,0.198,0.989,0,1.451
		c-0.198,0.396-4.088,9.297,1.582,16.747c1.385,1.846,2.901,2.769,4.681,2.901c3.89,0.198,7.714-3.626,7.78-3.692
		c0.659-0.725,1.78-0.725,2.505-0.066c0.725,0.659,0.725,1.78,0.066,2.505c-0.198,0.264-4.681,4.813-10.022,4.813
		c-0.198,0-0.33,0-0.527,0c-2.835-0.198-5.275-1.648-7.319-4.286c-5.472-7.187-3.758-15.297-2.637-18.725
		c-3.099-1.582-9.363-5.934-9.692-15.231c-0.264-7.978,3.626-12.396,6.857-14.374c-0.264-0.462-0.527-1.055-0.791-1.648
		C196.992,73.153,182.948,72.098,180.377,85.813z M257.519,100.582c0.923-0.132,1.714,0.462,1.846,1.385
		c0.066,0.527,1.582,12.461-3.494,18.461c-1.846,2.176-4.352,3.363-7.319,3.429h-0.066c-0.857,0-1.648-0.659-1.648-1.582
		c-0.066-0.923,0.659-1.714,1.582-1.714c2.044-0.066,3.626-0.791,4.879-2.242c4.154-4.879,2.769-15.758,2.769-15.89
		C255.937,101.505,256.596,100.648,257.519,100.582z M243.145,61.417c-0.132-0.857,0.527-1.714,1.451-1.78
		c0.198-0.066,5.538-0.593,9.494,3.099c2.769,2.637,4.088,6.593,3.89,11.802c-0.066,0.857-0.791,1.582-1.648,1.582h-0.066
		c-0.923-0.066-1.648-0.791-1.582-1.714c0.132-4.22-0.791-7.319-2.835-9.231c-2.769-2.637-6.857-2.242-6.923-2.308
		C244.068,63,243.211,62.34,243.145,61.417z M224.486,106.384c-0.198,0.264-0.396,0.527-0.725,0.659
		c-0.132,0.066-1.78,0.857-3.956,0.857c-1.121,0-2.44-0.198-3.692-0.791c-3.231-1.516-5.472-5.011-6.659-10.352
		c-1.385-6.198-0.989-10.681,1.121-13.187c1.78-2.11,4.088-2.044,4.352-2.044c0.132,0,0.264,0,0.396,0.066
		c0.396,0.132,9.099,2.769,12.593,7.385C231.673,93.923,225.739,104.34,224.486,106.384z"/>
	<path fill="#00B497" d="M169.036,137.571c12.396-5.67,20.769-20.769,21.956-23.011c-2.308,0.396-6.264,1.714-10.879,6.33
		c-7.187,7.385-19.846,13.121-30.461,14.11C153.476,137.9,160.531,141.461,169.036,137.571z"/>
	<path fill="#00B497" d="M341.189,147.988c-0.264,0-0.527-0.066-0.725-0.198c0.791,1.121,1.516,2.44,2.44,4.022
		c3.297,5.736,7.846,13.714,16.22,18.198c0.264,0.132,0.725,0.396,1.385,0.725c1.582,0.791,3.363,1.385,5.275,1.846
		c11.275,2.637,19.78,0.659,24.593-1.253c-8.44-2.44-19.319-8.967-27.626-15.297C353.386,148.845,341.321,147.988,341.189,147.988z"
		/>
	<path fill="#FF9CA7" d="M352.661,194.405c0.132,0.725,0.593,2.044,2.176,2.044h0.066c1.055,0,1.451-0.396,1.714-0.593
		c3.494-2.703,0.659-8.901,0.791-9.626C353.255,188.735,352.266,192.361,352.661,194.405z"/>
	<path fill="#00B497" d="M365.98,125.637c0.198,0.923,0.264,1.846,0.264,2.835c20.571,2.967,28.681-5.209,31.516-9.956
		c-3.626,0.791-9.758,1.978-17.209,2.769C372.243,122.208,367.694,124.516,365.98,125.637z"/>
	<path fill="#00B497" d="M380.221,117.79c6.791-0.725,12.593-1.78,16.22-2.571c-10.088-5.077-25.912-2.703-30.329-1.912
		c-0.462,2.374-1.319,4.681-2.571,6.725c0.396,0.593,0.857,1.319,1.253,2.176C367.232,120.823,372.112,118.648,380.221,117.79z"/>
	<path fill="#00B497" d="M358.595,141.461c-2.242,1.714-5.143,3.297-8.901,4.483c4.483,1.187,10.154,3.363,15.231,7.253
		c7.648,5.868,18.132,12.198,26.044,14.637c-4.352-4.681-11.868-12.659-18.527-19.187
		C364.463,140.867,359.584,141.329,358.595,141.461z"/>
	<path fill="#FF8E6C" d="M335.65,125.307c12.725,2.505,19.384-0.989,22.747-4.418c4.286-4.352,4.879-10.154,4.022-14.11
		c-1.582-7.187-15.692-8.44-20.967-8.308c-0.725,0-1.451-0.462-1.714-1.121c-0.264-0.659-0.066-1.451,0.462-1.978
		c1.187-1.055,4.154-4.483,4.022-7.187c-0.132-2.769-4.22-14.242-20.176-16.549c-14.308-2.044-16.22,7.648-16.286,8.044
		c-0.066,0.527-0.396,0.989-0.857,1.253c-0.462,0.264-0.989,0.33-1.516,0.132c-0.33-0.066-8.242-2.769-12.396,5.209
		c-1.055,2.11-1.253,3.89-0.593,5.407c1.451,3.363,6.527,4.747,6.593,4.747c0.923,0.264,1.516,1.253,1.253,2.176
		c-0.264,0.923-1.253,1.516-2.176,1.253c-0.264-0.066-6.791-1.78-8.967-6.725c-1.121-2.571-0.857-5.472,0.725-8.505
		c3.89-7.45,10.681-8.242,14.967-7.385c1.385-3.626,6-11.077,19.714-9.099c16.879,2.44,22.945,14.439,23.275,19.846
		c0.132,2.637-1.187,5.209-2.571,7.055c1.516,0.132,3.231,0.264,5.143,0.593c0.923-1.253,2.901-4.879,1.385-10.154
		c-1.978-6.857-10.286-10.286-10.352-10.352c-0.659-0.264-1.055-0.857-1.121-1.516c0-0.659,0.264-1.319,0.857-1.648
		c0.725-0.462,4.352-3.099,1.648-7.648c-3.033-5.143-20.571-10.22-39.89-6.066c-9.363,1.978-17.67,8.11-22.154,16.352
		c-3.494,6.461-4.286,13.45-2.11,19.187c4.747,12.527,18.132,8.374,18.725,8.176c0.791-0.264,1.714,0.132,2.11,0.857
		c0.461,0.791,0.264,1.714-0.396,2.242c-3.429,2.835-4.286,9.099-2.11,15.89c3.165,9.89,13.121,22.022,30.791,23.341
		c15.165,1.187,23.736-1.846,28.615-5.538c0.132-0.132,0.264-0.264,0.462-0.33c4.022-3.231,5.341-6.923,5.736-8.769
		c0.527-2.44-0.462-4.879-1.319-6.527c-0.132,0.066-0.198,0.198-0.264,0.264c-3.099,3.099-8.374,6.33-17.209,6.33
		c-2.571,0-5.538-0.264-8.769-0.923c-0.923-0.198-1.582-1.187-1.451-2.11C333.738,125.768,334.661,125.109,335.65,125.307z
		 M316.266,118.318c-0.857-0.462-1.121-1.582-0.659-2.44c0.462-0.857,1.582-1.121,2.44-0.659c11.077,6.198,20.044,5.604,23.67,2.44
		c1.978-1.714,2.44-4.022,1.319-6.791c-1.055-2.571-2.571-4.286-4.483-5.077c-3.231-1.385-6.725,0.066-6.791,0.066
		c-0.659,0.264-1.385,0.132-1.912-0.33c-0.462-0.462-0.659-1.187-0.462-1.846c1.582-4.945,1.055-9.428-1.516-12.659
		c-2.703-3.297-7.319-5.011-12.396-4.549c-2.176,0.198-3.758,0.989-4.747,2.44c-2.176,3.165-1.319,8.439-0.923,10.154
		c0.725,0.528,2.967,1.78,7.582,2.637c3.956,0.791,6.725,2.835,7.582,5.67c0.659,2.242,0,4.681-1.714,6.396
		c-0.857,0.857-1.978,1.253-3.165,1.187c-3.297-0.132-6.593-3.956-7.187-4.681c-0.593-0.725-0.527-1.912,0.264-2.505
		c0.725-0.593,1.912-0.527,2.505,0.264c1.121,1.385,3.363,3.363,4.615,3.429c0.198,0.066,0.33,0,0.462-0.132
		c0.791-0.725,1.055-1.78,0.791-2.769c-0.462-1.516-2.242-2.703-4.813-3.165c-7.187-1.385-9.56-3.56-9.824-3.824
		c-0.198-0.198-0.396-0.462-0.462-0.791s-2.242-8.571,1.319-13.714c1.582-2.308,4.088-3.626,7.319-3.956
		c6.264-0.527,12.066,1.648,15.494,5.934c2.835,3.495,3.824,8.044,2.901,12.989c1.78-0.264,4.022-0.198,6.33,0.725
		c2.835,1.187,5.011,3.56,6.396,7.055c1.648,4.154,0.857,8.11-2.242,10.813c-2.242,1.978-5.802,3.231-10.154,2.901
		C328.925,123.527,322.925,122.01,316.266,118.318z"/>
	<path fill="#353535" d="M131.454,198.559c-5.934-11.077-6.857-13.978-8.044-19.78c-0.264-1.253-2.176-1.055-2.11,0.264
		c0.132,4.681,1.055,11.209,4.352,18.989c4.418,10.352,6.527,13.187,8.044,19.582s-6.461,11.011-6.461,11.011s-1.582-1.978-2.769-6
		c-1.121-3.956-6.593-11.209-8.637-7.253c-2.044,3.956,4.615,8.769,8.439,17.604c3.824,8.769,5.407,34.549,5.407,34.549
		c3.099,5.604,0.527-6.725,5.143-25.714c4.681-18.989,9.56-26.044,9.56-28.417C144.509,210.955,138.773,212.141,131.454,198.559z"/>
	<path fill="#353535" d="M160.662,206.933c3.363-1.121,9.231-2.703,16.088-3.363c10.747-0.989,10.747-1.78,13.912-2.176
		c3.165-0.33,2.835-4.286,2.835-4.286s-22.813-0.725-33.56,8.505C159.278,206.142,159.871,207.196,160.662,206.933z"/>
	<path fill="#353535" d="M297.738,203.504c0.857,0.132,1.187-1.121,0.396-1.451c-6-2.374-16.945-4.945-29.538,0.066
		c0,0,3.099,2.835,5.077,2.835C275.387,204.955,286.134,202.12,297.738,203.504z"/>
	<path fill="#353535" d="M232.794,219.328c1.912,2.835,13.978-7.516,16.352-8.637c2.374-1.121-2.703-3.626-5.538-1.253
		c-2.835,2.308-7.648,5.407-9.231,5.407c-1.582,0-13.385-7.714-16.154-5.011C218.288,209.768,230.882,216.493,232.794,219.328z"/>
	<path fill="#353535" d="M209.915,234.691c-1.187-5.934-3.165-14.967-4.747-16.813c-1.648-1.912-0.462,4.549,0.264,10.286
		c-14.703-12.396-53.604,4.747-57.033,20.967c-3.824,18.198,0.527,42.461,16.352,42.263c15.89-0.132,41.538-17.604,45.692-31.384
		C214.267,247.746,210.772,236.933,209.915,234.691z"/>
	<path fill="#353535" d="M131.454,282.163c0,0,1.846,6.791,5.407,8.835c3.56,2.044,2.835-5.143-0.264-8.703
		C133.498,278.603,131.915,278.998,131.454,282.163z"/>
	<path fill="#353535" d="M235.761,278.471c-0.593-0.923-2.242-0.989-2.901-0.066c-4.22,6.066-16.022,23.868-17.011,34.879
		c-1.187,13.45,5.472,19.516,7.912,20.373c2.44,0.857,6.264,3.297,7.253,1.319c0.989-1.978-0.791-13.121,2.637-15.033
		c3.363,2.044,1.253,13.121,2.176,15.099c0.923,1.978,4.879-0.33,7.253-1.055c2.44-0.725,9.297-6.593,8.571-20.11
		C251.057,302.8,239.783,284.603,235.761,278.471z"/>
	<path fill="#353535" d="M190.333,294.163c-3.165,0.923-22.879,5.802-29.604,5.275c-6.725-0.527-10.879-2.571-10.879-2.571
		c-0.132,7.319,21.494,6.461,20.703,8.505c-0.857,1.978-11.472,11.472-10.879,12.923c0.593,1.451,4.549,0.066,8.176-4.022
		c3.626-4.088,7.846-5.604,10.879-10.352c3.033-4.681,18.395-9.231,18-11.011S193.563,293.24,190.333,294.163z"/>
	<path fill="#353535" d="M233.783,187.153c2.308-2.242,3.626,9.89,6.33,8.835c2.637-1.121,0-1.516-2.505-9.165
		c-2.505-7.648,1.912-17.406-3.89-18.264c-2.374-0.33-0.066,3.429-1.055,10.945c-0.989,7.582-4.681,16.22-4.681,16.22
		C233.255,196.581,231.475,189.394,233.783,187.153z"/>
	<path fill="#353535" d="M322.859,251.899c-3.099-17.275-46.022-36.923-58.813-20.242c-0.264-8.571,2.11-15.033,2.901-16.286
		c1.055-1.714-0.989-3.033-0.989-3.033c-4.352,2.308-5.802,13.121-6.33,21.758c-0.791,0.462-1.516,0.989-2.176,1.648
		c-3.626,3.494-6.396,11.472-10.549,11.736c-4.154,0.264-8.242-7.582-15.692-6.198c-7.451,1.385-11.407,7.582-11.407,7.582
		s0.593,1.78,3.56,0.923s6.923-5.538,12.857-2.505c5.868,3.099,5.868,4.879,9.428,4.286c3.494-0.527,9.099-10.022,13.78-10.483
		c0,2.505,0.066,4.154,0.066,4.154c-0.527,4.352-0.593,9.758,0.989,15.56c3.758,13.912,28.813,32.176,44.703,32.835
		C321.013,294.295,326.156,270.163,322.859,251.899z"/>
	<path fill="#353535" d="M318.112,296.998c-6,1.714-19.055,1.187-29.472,0.989c-4.945-0.066-9.56-1.121-13.055-2.176
		c-1.121-0.33-1.846,1.121-0.923,1.846c2.505,1.912,5.143,3.89,6.527,4.681c2.967,1.846,10.088,2.308,14.769,5.011
		c4.747,2.703,6.461,3.626,8.571,3.692c2.11,0-2.44-4.22-4.286-5.407s-8.967-4.615-8.967-4.615s12.132,2.242,19.582,1.187
		c7.451-1.055,18.857-8.044,18.857-9.231C329.782,291.855,324.046,295.284,318.112,296.998z"/>
	<path fill="#353535" d="M262.53,427.217c-2.703,0.264-6.923,4.352-24.198,5.538c-17.275,1.187-23.143-2.176-23.472-0.659
		c0,0,1.121,2.703,7.648,3.363c6.527,0.725,33.758,0.264,37.252-0.593s1.187-2.637,2.967-3.824
		C264.574,429.92,265.233,426.953,262.53,427.217z"/>
	<path fill="#353535" d="M134.157,333.393c-5.143-1.121-8.769,3.692-10.483,6.857c-1.714-1.582-4.483-3.626-7.714-3.89
		c-2.505-0.198-4.747,0.593-6.791,2.374c-5.077,4.483-4.286,10.286-2.637,13.912c-1.648,0.659-3.758,1.846-5.209,4.154
		c-1.846,2.901-2.044,6.725-0.593,11.275c1.319,4.154,3.494,6.659,6.461,7.516c0.725,0.198,1.385,0.264,2.11,0.264
		c4.418,0,8.374-3.429,8.505-3.56c0.725-0.659,0.791-1.78,0.198-2.505c-0.659-0.725-1.78-0.791-2.505-0.198
		c-1.121,0.989-4.615,3.297-7.319,2.571c-1.714-0.462-3.099-2.242-4.022-5.143c-1.121-3.494-1.055-6.264,0.198-8.242
		c1.648-2.703,5.077-3.165,5.077-3.231c0.593-0.066,1.121-0.462,1.385-1.055c0.264-0.593,0.198-1.253-0.132-1.714
		c-0.198-0.264-4.418-6.593,0.923-11.341c1.319-1.121,2.637-1.648,4.088-1.516c3.758,0.33,7.121,4.483,7.121,4.549
		c0.396,0.527,1.055,0.725,1.648,0.659c0.659-0.066,1.187-0.527,1.385-1.121c0-0.066,3.297-7.978,7.582-7.055
		c4.154,0.923,3.165,8.703,3.165,8.769c-0.132,0.989,0.527,1.846,1.516,2.044c0.989,0.132,1.912-0.527,2.044-1.516
		C140.751,342.031,140.157,334.646,134.157,333.393z"/>
	<path fill="#353535" d="M124.992,348.426c-3.494-1.912-6.923-2.176-8.901-0.725c-2.769,2.044-3.099,6.923-1.912,10.483
		c0.989,3.099,2.967,5.011,5.341,5.011c0.066,0,0.198,0,0.33,0c4.352,0,11.143-1.385,11.407-1.451
		c0.791-0.132,1.385-0.857,1.451-1.648C132.97,354.822,128.751,350.47,124.992,348.426z M119.52,359.701
		c-0.725,0-1.517-1.055-1.978-2.571c-0.791-2.571-0.528-5.67,0.659-6.527c0.198-0.132,0.593-0.264,1.055-0.264
		c0.923,0,2.374,0.33,4.022,1.253c2.637,1.451,5.275,4.088,5.736,7.055C126.707,358.976,122.355,359.767,119.52,359.701z"/>
	<path fill="#353535" d="M153.344,342.558c1.055-6.791-3.56-12.659-3.758-12.857c-0.593-0.791-1.714-0.857-2.505-0.264
		c-0.791,0.593-0.857,1.714-0.264,2.505c0.066,0.066,3.824,4.879,3.033,10.088c-0.462,2.967-2.374,5.67-5.736,7.846
		c-0.791,0.527-1.055,1.648-0.527,2.505c0.33,0.527,0.923,0.791,1.516,0.791c0.33,0,0.659-0.066,0.989-0.33
		C150.245,350.075,152.685,346.58,153.344,342.558z"/>
	<path fill="#353535" d="M227.915,88.978c-3.494-4.615-12.198-7.253-12.593-7.385c-0.132-0.066-0.264-0.066-0.396-0.066
		c-0.264,0-2.571-0.066-4.352,2.044c-2.11,2.505-2.505,6.989-1.121,13.187c1.187,5.341,3.429,8.835,6.659,10.352
		c1.253,0.593,2.571,0.791,3.692,0.791c2.176,0,3.824-0.791,3.956-0.857c0.33-0.132,0.527-0.396,0.725-0.659
		C225.739,104.34,231.673,93.923,227.915,88.978z M221.783,104.01c-0.791,0.264-2.44,0.659-4.088-0.198
		c-2.11-1.055-3.758-3.758-4.681-7.912c-1.516-6.527-0.462-9.099,0.264-10.022c0.527-0.593,1.055-0.791,1.319-0.791
		c2.44,0.791,8.242,3.099,10.483,6C226.728,93.263,224.222,99.791,221.783,104.01z"/>
	<path fill="#353535" d="M343.958,120.626c3.099-2.703,3.89-6.659,2.242-10.813c-1.385-3.494-3.56-5.868-6.396-7.055
		c-2.308-0.923-4.549-0.989-6.33-0.725c0.923-4.945-0.066-9.494-2.901-12.989c-3.429-4.286-9.231-6.461-15.494-5.934
		c-3.231,0.33-5.736,1.648-7.319,3.956c-3.56,5.143-1.385,13.385-1.319,13.714s0.264,0.593,0.462,0.791
		c0.264,0.264,2.637,2.44,9.824,3.824c2.571,0.462,4.352,1.648,4.813,3.165c0.264,0.989,0,2.044-0.791,2.769
		c-0.132,0.132-0.264,0.198-0.462,0.132c-1.253-0.066-3.494-2.044-4.615-3.429c-0.593-0.791-1.78-0.857-2.505-0.264
		c-0.791,0.593-0.857,1.78-0.264,2.505c0.593,0.725,3.89,4.549,7.187,4.681c1.187,0.066,2.308-0.33,3.165-1.187
		c1.714-1.714,2.374-4.154,1.714-6.396c-0.857-2.835-3.626-4.879-7.582-5.67c-4.615-0.857-6.857-2.11-7.582-2.637
		c-0.396-1.714-1.253-6.989,0.923-10.154c0.989-1.451,2.571-2.242,4.747-2.44c5.077-0.462,9.692,1.253,12.396,4.549
		c2.571,3.231,3.099,7.714,1.516,12.659c-0.198,0.659,0,1.385,0.462,1.846c0.527,0.462,1.253,0.593,1.912,0.33
		c0.066,0,3.56-1.451,6.791-0.066c1.912,0.791,3.429,2.505,4.483,5.077c1.121,2.769,0.659,5.077-1.319,6.791
		c-3.626,3.165-12.593,3.758-23.67-2.44c-0.857-0.462-1.978-0.198-2.44,0.659c-0.462,0.857-0.198,1.978,0.659,2.44
		c6.659,3.692,12.659,5.209,17.538,5.209C338.156,123.856,341.716,122.604,343.958,120.626z"/>
	<path fill="#353535" d="M354.178,96.362c1.319-2.374,2.703-6.461,1.121-11.934c-1.714-5.934-6.857-9.626-10.022-11.407
		c1.978-2.308,3.363-6.066,0.659-10.549c-1.648-2.703-5.472-5.143-10.747-6.791c1.319-2.176,2.901-6.066,4.418-13.121
		c2.967-13.714-0.462-23.209-0.593-23.604c0-0.066-0.066-0.066-0.066-0.132c0-0.066-0.066-0.132-0.066-0.132
		c-0.066-0.066-0.066-0.132-0.132-0.132c0-0.066-0.066-0.066-0.066-0.132c-0.066-0.066-0.066-0.066-0.132-0.132
		c-0.066,0-0.066-0.066-0.132-0.066c-0.066-0.066-0.198-0.132-0.264-0.198c-0.066,0-0.066,0-0.132-0.066
		c-0.066,0-0.132-0.066-0.198-0.066s-0.066,0-0.132,0c-0.066,0-0.132,0-0.198-0.066c-0.066,0-0.066,0-0.132,0
		c-0.066,0-0.132,0-0.198,0s-0.066,0-0.132,0c-0.066,0-0.132,0-0.132,0c-24.923,7.121-35.802,32.571-37.78,37.714
		c-1.451,0.462-2.835,0.989-4.22,1.582c-0.066-34.483-17.604-41.143-20.637-42C274.002,15,273.739,15,273.541,15
		c-0.066,0-0.132,0-0.198,0h-0.066c-0.066,0-0.132,0-0.198,0.066c-0.066,0-0.132,0-0.198,0.066c-0.066,0-0.132,0.066-0.132,0.066
		c-0.066,0-0.132,0.066-0.132,0.066s0,0-0.066,0c-8.703,5.275-10.022,22.879-10.154,31.318c-1.648-1.451-3.494-2.769-5.538-3.956
		c-7.385-4.22-15.692-5.604-22.351-3.758c-4.681,1.319-7.846,3.56-9.297,6.659c-0.791,1.582-0.989,3.165-0.923,4.483
		c-4.22-0.725-12.396-0.791-19.648,6.396c-2.703,2.703-4.088,5.407-4.747,7.846c-3.429,0.264-17.934,1.912-34.681,10.22
		c-10.154-7.648-25.978-10.747-33.758-10.813c0,0,0,0-0.066,0c-0.33,0-0.593,0.066-0.923,0.264c0,0-0.066,0-0.066,0.066
		c-0.066,0.066-0.132,0.066-0.132,0.132l-0.066,0.066c-0.066,0.066-0.066,0.066-0.132,0.132c-0.066,0.066-0.066,0.066-0.132,0.132
		c0,0.066-0.066,0.066-0.066,0.132c0,0.066-0.066,0.132-0.066,0.198c0,0,0,0,0,0.066c0,0.066,0,0.066,0,0.132
		c0,0.066-0.066,0.132-0.066,0.198c0,0.066,0,0.132,0,0.198c0,0.066,0,0.066,0,0.132c0,0.659,0.198,6.659,10.352,22.022
		c0.659,0.989,1.253,1.912,1.912,2.835c-5.472,4.879-9.824,10.022-14.044,16.549c-1.78,1.121-5.472,5.209-14.176,20.439
		c-12.132,21.231-13.516,75.89-12,94.021c1.451,17.472,12.461,41.538,16.022,48.857c-2.176,0.593-5.341,1.912-7.45,4.945
		c-2.505,3.626-2.835,8.703-0.857,14.901c1.055,3.231,6.198,9.297,13.912,18.132c3.956,4.549,7.714,8.901,9.165,11.077
		c-0.396,0.396-0.725,0.725-1.055,1.121c-1.912-1.846-5.077-3.56-8.439-4.615c-2.637-0.791-5.275-1.055-7.78-0.923
		c-0.857-13.385-9.758-25.384-18.923-34.351c-0.593-1.582-2.769-7.121-5.011-13.78c3.89-1.121,11.934-4.22,12.725-10.549
		c0.527-4.549-1.385-5.736-2.571-6c-2.835-0.725-6,2.44-7.385,5.934c-1.187,2.835-1.714,5.077-1.648,6.527
		c-0.791,0.264-1.517,0.527-2.176,0.725c-1.187-3.626-2.308-7.45-3.165-11.011c3.429-0.791,10.352-2.703,12.791-6.066
		c1.978-2.769,3.692-7.978,1.582-10.22c-0.527-0.593-2.044-1.714-4.747-0.066c-4.813,2.967-5.407,9.956-5.538,11.538
		c-1.648,0.593-3.363,1.055-4.879,1.385c-0.264-1.319-0.527-2.637-0.659-3.824c-0.132-0.725-0.264-1.451-0.396-2.11
		c0.132-0.132,0.264-0.33,0.33-0.527c3.429-8.176,2.901-23.011-2.374-26.901c-0.923-0.725-3.56-2.044-6.857,0.659
		c-5.736,4.747-2.703,10.154,0.462,15.956c2.11,3.89,4.549,8.242,5.275,13.45c0.198,1.253,0.396,2.571,0.725,3.956
		c-0.923,0.066-2.11,0.066-3.692-0.066c0.198-3.165-0.989-8.571-6.659-11.011c-2.505-1.055-5.011-0.923-6.791,0.462
		c-1.516,1.187-2.308,3.099-2.044,5.077c0.396,2.835,2.703,5.341,6.462,6.791c4.813,1.912,8.769,2.374,11.407,2.374
		c0.857,0,1.516-0.066,2.11-0.132c1.912,7.714,4.879,16.352,6.989,22.22c-8.044-6.857-14.901-10.945-15.56-11.341h-0.066
		c-0.066-0.066-0.198-0.066-0.264-0.132c-0.066,0-0.066,0-0.132-0.066c-0.132-0.066-0.264-0.066-0.396-0.066
		c-0.132,0-0.264,0-0.396,0.066c-0.066,0-0.066,0-0.132,0c-0.066,0-0.198,0.066-0.264,0.066h-0.066c0,0-0.066,0-0.066,0.066
		c0,0-0.066,0-0.066,0.066c-0.066,0.066-0.132,0.066-0.132,0.132l-0.066,0.066c-0.132,0.066-0.198,0.198-0.264,0.33
		c-0.066,0.132-0.132,0.198-0.198,0.33c0,0.066,0,0.066-0.066,0.132c0,0.066-0.066,0.198-0.066,0.264v0.066
		c-0.066,0.923-2.11,22.549,4.483,41.538c5.341,15.428,17.143,19.121,22.22,20.044c-1.121,4.418-0.264,9.033,0.989,12.461
		c-4.747,0.066-13.253,1.78-16.088,13.385c-2.835,11.67,3.89,17.406,7.978,19.78c-2.44,2.835-3.626,7.912-2.769,12.923
		c1.385,8.176,7.582,13.187,16.615,13.45c5.407,0.132,9.89-0.791,13.319-2.835c1.385,1.385,7.912,7.187,17.011,7.187
		c0.264,0,0.527,0,0.791,0c-4.681,3.956-10.088,9.89-13.385,17.604c-6.593,15.363-3.56,39.165-3.429,40.154
		c0,0.132,0.066,0.264,0.132,0.396c0,0.066,0,0.066,0.066,0.132c0.066,0.066,0.066,0.198,0.132,0.264
		c0,0.066,0.066,0.066,0.066,0.132c0.066,0.066,0.132,0.198,0.264,0.264c0.132,0.066,0.264,0.132,0.33,0.198c0,0,0,0,0.066,0h0.066
		c0.066,0,0.132,0.066,0.198,0.066c0.066,0,0.066,0,0.132,0c0.066,0,0.132,0,0.198,0c0.066,0,0.066,0,0.132,0
		c0.066,0,0.132,0,0.132,0h0.066c0.132,0,0.264-0.066,0.396-0.066c0,0,0.066,0,0.066-0.066c0.132-0.066,0.198-0.132,0.33-0.198
		c11.934-8.769,19.846-18.396,25.121-27.362c3.165,14.374,12.527,27.494,27.297,38.11c12.198,8.703,23.538,12.659,24,12.791
		c0.066,0,0.066,0,0.132,0.066c0.066,0,0.066,0,0.132,0c0.066,0,0.198,0,0.264,0c0.066,0,0.132,0,0.198,0
		c0.132,0,0.198-0.066,0.33-0.066c0,0,0,0,0.066,0c0.066,0,0.198-0.066,0.264-0.132c0.066,0,0.066-0.066,0.132-0.066
		c0.066,0,0.066-0.066,0.132-0.066c0.066-0.066,0.198-0.198,0.264-0.264c0.066-0.132,0.132-0.198,0.198-0.33
		c0-0.066,0-0.066,0.066-0.132c0.066-0.066,0.066-0.198,0.066-0.264c0-0.066,0-0.066,0-0.132c0-0.066,0-0.198,0-0.264v-0.066
		c-1.121-13.648-4.418-26.373-8.571-37.648c0.725,0.527,1.516,1.121,2.242,1.582c12.791,8.703,28.022,13.253,43.582,13.253
		c8.835,0,17.802-1.451,26.439-4.418c33.296-11.472,54.131-37.582,59.67-45.362c0.989-1.385,1.516-3.099,1.319-4.813
		c-0.527-6.33-1.912-22.945-3.56-40.483c-0.725-7.714-0.659-16.483-0.264-24.593c27.824-13.78,33.296-44.176,33.494-45.428
		c0.066-0.527-0.066-0.989-0.33-1.385c5.077-4.352,8.703-8.835,9.428-12.725c1.121-6.132-1.978-10.286-4.483-12.198
		c10.879-33.296,2.044-88.153,1.648-90.527c0-0.066-0.066-0.198-0.066-0.264c0.132-0.659,0.33-1.319,0.462-1.912
		c3.231,2.835,7.648,7.648,12.132,15.824c-2.505,2.967-9.231,11.472-8.505,18.132c0.264,2.571,1.714,4.483,3.89,5.341
		c0.791,0.33,1.648,0.462,2.505,0.462c1.846,0,3.824-0.725,5.275-1.978c1.912-1.714,2.637-4.154,1.978-6.659
		c-0.066-0.198-0.132-0.396-0.264-0.593l-5.209-7.648c-0.066-0.132-0.198-0.264-0.264-0.33c0.857-1.253,1.648-2.374,2.44-3.297
		c3.297,6.791,5.077,12.791,6.593,17.736c2.11,7.253,3.692,12.461,8.769,13.319c0.33,0.066,0.659,0.066,0.923,0.066
		c2.11,0,3.626-1.253,3.956-3.363c0.791-4.879-5.011-15.231-11.934-16.549c-1.121-3.429-2.505-7.253-4.418-11.407
		c4.615,1.385,11.802,3.165,15.626,1.912c3.56-1.187,4.747-4.088,4.352-6.527c-0.396-2.505-2.637-5.275-6.791-5.341
		c-0.066,0-0.066,0-0.132,0c-5.604,0-8.901,5.275-9.956,7.121c-1.978-0.527-3.89-1.121-5.472-1.714
		c-3.692-6.857-7.385-11.604-10.549-14.835c3.165,0.593,6.132,0.791,8.835,0.791c12.593,0,19.912-5.077,20.242-5.341l0.066-0.066
		c0.066-0.066,0.132-0.066,0.132-0.132c0.066-0.066,0.066-0.066,0.066-0.132c0.066-0.066,0.066-0.132,0.132-0.198
		c0-0.066,0.066-0.066,0.066-0.132c0.066-0.066,0.066-0.132,0.066-0.198c0-0.066,0.066-0.066,0.066-0.132
		c0-0.066,0.066-0.132,0.066-0.198c0-0.066,0-0.066,0-0.132c0,0,0,0,0-0.066v-0.066c0-0.066,0-0.132,0-0.132
		c0-0.066,0-0.132,0-0.198c0-0.066,0-0.132-0.066-0.198c0-0.066,0-0.066-0.066-0.132c0-0.066-0.066-0.132-0.132-0.198
		c0-0.066,0-0.066-0.066-0.132c-0.066-0.132-0.132-0.198-0.198-0.264c-0.132-0.132-12.132-13.45-22.286-23.34
		c-5.407-5.275-9.758-7.319-12.791-7.978c1.846-2.242,2.901-4.483,3.429-6.132c3.231,0.462,6.132,0.659,8.835,0.659
		c10.549,0,17.143-3.231,21.099-6.33c5.67-4.483,7.121-9.692,7.187-9.89c0-0.066,0-0.132,0.066-0.132v-0.066c0-0.132,0-0.198,0-0.33
		c0.396,0.066,0.396,0,0.396,0c0-0.066,0-0.198-0.066-0.264c0,0,0,0,0-0.066c0-0.132-0.066-0.198-0.132-0.33c0,0,0,0,0-0.066
		c-0.066-0.066-0.066-0.132-0.132-0.264l-0.066-0.066c-0.066-0.066-0.132-0.132-0.198-0.198l-0.066-0.066
		c-10.286-8.505-29.143-6.132-35.67-5.011c0-1.187-0.132-2.374-0.396-3.56C364.793,100.582,359.518,97.747,354.178,96.362z
		 M97.234,257.306c0.923-2.242,2.44-3.494,3.099-3.758c0.066,0.264,0.198,0.923,0.066,2.11c-0.264,2.044-2.044,3.758-4.286,5.077
		C96.311,259.877,96.641,258.822,97.234,257.306z M98.421,238.845c0.132-0.066,0.198-0.132,0.264-0.132
		c0,1.055-0.462,3.363-1.912,5.341c-0.396,0.593-1.121,1.121-1.978,1.648C95.124,243.526,96.048,240.295,98.421,238.845z
		 M71.191,247.218c-2.44-0.989-4.022-2.44-4.22-3.956c-0.066-0.725,0.132-1.385,0.659-1.78c0.396-0.264,0.857-0.396,1.385-0.396
		c0.527,0,1.187,0.132,1.846,0.396c3.89,1.648,4.483,5.341,4.483,7.055C74.092,248.273,72.707,247.812,71.191,247.218z
		 M83.256,237.13c-1.055-2.571-2.374-4.879-3.495-6.923c-3.56-6.396-4.483-8.835-1.319-11.472c0.791-0.659,1.319-0.857,1.714-0.857
		c0.396,0,0.593,0.198,0.725,0.264C83.52,220.185,84.839,229.68,83.256,237.13z M376.727,209.174
		c0.264,1.385-0.396,2.308-0.989,2.835c-1.121,0.989-2.835,1.385-4.088,0.857c-0.923-0.33-1.451-1.187-1.582-2.374
		c-0.264-2.242,0.791-5.077,2.308-7.78L376.727,209.174z M393.078,220.515c0.725,2.11,0.396,3.033,0.33,3.165
		c-0.066,0-0.264,0.066-0.725,0c-2.769-0.462-3.89-3.824-5.934-10.813c-0.132-0.396-0.264-0.791-0.33-1.187
		C389.254,213.328,391.958,217.152,393.078,220.515z M393.87,189.658c2.044,0,3.099,1.187,3.297,2.308s-0.593,2.11-1.978,2.571
		c-1.582,0.527-4.549,0.198-7.714-0.462C388.529,192.427,390.771,189.592,393.87,189.658z M336.112,41.769
		c-1.912,8.901-3.824,11.934-4.615,12.857c-4.681-1.055-10.088-1.648-15.89-1.516c-0.33-1.582,0.527-5.67,6.857-12.989
		c3.758-4.352,6.725-7.582,9.099-10.154c2.176-2.374,3.824-4.154,5.011-5.67C337.299,28.121,337.76,34.319,336.112,41.769z
		 M333.211,22.912c-1.055,1.253-2.44,2.769-4.22,4.681c-2.44,2.637-5.407,5.868-9.231,10.22c-6.857,7.978-8.044,12.791-7.714,15.494
		c-2.835,0.198-5.736,0.593-8.637,1.121C306.574,47.373,315.87,30.099,333.211,22.912z M282.442,25.286
		c4.22,5.143,9.165,15.165,8.835,33.692c-4.22,2.44-7.912,5.736-10.879,9.626c-0.198-0.066-0.396-0.132-0.593-0.198
		c-0.659-2.967-0.659-10.022-0.725-17.538c0-5.538,0-11.802-0.264-18.066c-0.198-5.209-0.659-9.165-1.319-12.066
		C279.013,21.725,280.728,23.242,282.442,25.286z M275.321,95.043c3.692,9.824,12.066,11.802,18.461,11.275
		c-1.978,4.088-2.044,9.692-0.198,15.692c-4.681-0.659-13.385-0.725-19.912,6.132c-0.132,0.132-0.198,0.198-0.264,0.33
		c1.516-2.44,2.505-5.407,2.901-8.901c1.582-14.505-7.319-22.351-12.659-25.714c2.374-1.187,4.286-3.033,5.802-5.407
		c3.231-5.209,3.626-12.198,3.165-18.198c1.582,0.264,3.758,0.725,5.868,1.385c-0.264,0.396-0.527,0.791-0.725,1.253
		C273.607,80.274,272.75,88.318,275.321,95.043z M275.123,143.966c-3.89,8.967-6.659,15.758-8.44,20.242
		c-0.264-10.483,3.099-26.835,9.56-33.626c6.527-6.857,16.088-5.275,18.857-4.681c0.132,0.33,0.33,0.659,0.462,0.989
		C291.013,127.219,281.321,129.724,275.123,143.966z M297.607,130.45c0.066,0.132,0.132,0.198,0.198,0.33
		c-5.077,20.967-13.385,30.395-19.516,34.615c-3.956,2.703-7.451,3.626-9.692,3.956c1.451-3.758,4.549-11.802,9.824-23.934
		C285.343,129.527,296.684,130.318,297.607,130.45z M273.277,19.088c0.593,1.319,1.648,4.879,2.044,13.846
		c0.264,6.198,0.264,12.396,0.264,17.934c0,7.121,0,12.791,0.462,16.417c-1.582-0.33-2.967-0.593-3.89-0.725
		c-0.462-2.901-0.989-5.473-1.451-7.187c-0.857-3.231-2.44-6.33-4.681-9.099C265.695,42.758,266.618,24.89,273.277,19.088z
		 M200.75,73.681c0.264,0.593,0.527,1.187,0.791,1.648c-3.231,1.978-7.121,6.396-6.857,14.374c0.33,9.297,6.593,13.648,9.692,15.231
		c-1.121,3.429-2.835,11.538,2.637,18.725c2.044,2.637,4.483,4.088,7.319,4.286c0.198,0,0.33,0,0.527,0
		c5.341,0,9.824-4.549,10.022-4.813c0.659-0.725,0.659-1.846-0.066-2.505c-0.725-0.659-1.846-0.659-2.505,0.066
		c-0.066,0.066-3.89,3.89-7.78,3.692c-1.78-0.132-3.297-1.055-4.681-2.901c-5.67-7.45-1.78-16.352-1.582-16.747
		c0.198-0.462,0.198-0.989,0-1.451c-0.198-0.462-0.593-0.791-1.055-0.989c-0.33-0.132-8.637-3.099-8.967-12.725
		c-0.33-9.428,6.132-11.67,6.396-11.802c0.593-0.198,0.989-0.659,1.187-1.187c0.198-0.593,0.066-1.187-0.33-1.648
		c-0.132-0.132-1.121-1.385-1.846-3.363c0-0.066,0-0.132-0.066-0.132c-1.055-3.033-1.253-7.648,3.56-12.461
		c8.439-8.439,18.33-5.077,18.725-4.879c0.066,0,0.132,0.066,0.198,0.066c0,0,0,0,0.066,0c0.462,0.066,10.549,2.571,13.912,14.769
		c3.297,12.132-5.275,18.791-5.604,19.055c-0.791,0.593-0.923,1.714-0.33,2.506c0.33,0.462,0.857,0.725,1.451,0.725
		c0.396,0,0.725-0.132,1.055-0.33c0.462-0.33,10.879-8.374,6.923-22.879c-3.297-12.066-12.33-16.022-15.494-17.011
		c-0.198-0.857-0.264-2.374,0.462-3.89c1.055-2.11,3.429-3.692,7.055-4.747c5.604-1.582,13.121-0.264,19.582,3.429
		c6.198,3.56,10.615,8.901,12.132,14.571c2.835,11.011,2.571,20.835-0.857,26.308c-1.714,2.835-4.22,4.549-7.516,5.209
		c-0.791,0.132-1.319,0.791-1.385,1.582c-0.066,0.791,0.396,1.516,1.121,1.78c0.659,0.264,16.088,6.33,14.176,23.934
		c-0.527,4.879-2.374,8.439-5.472,10.615c-5.934,4.154-14.769,2.044-14.835,2.044c-0.659-0.132-1.319,0.066-1.714,0.527
		c-0.462,0.462-0.593,1.187-0.396,1.78c0.198,0.659,5.143,16.483-13.055,23.736c-9.363,3.758-16.22,0.989-20.308-1.978
		c-5.802-4.22-8.967-10.879-9.56-16.22c3.165,1.385,6.461,2.044,9.758,2.044c3.231,0,6.527-0.659,9.692-1.978
		c8.967-3.758,16.088-12.593,17.341-21.494c2.242-15.824-9.428-19.846-9.494-19.912c-0.923-0.33-1.912,0.198-2.242,1.121
		c-0.33,0.923,0.198,1.912,1.121,2.242c0.396,0.132,8.901,3.231,7.121,16.022c-1.055,7.714-7.319,15.428-15.165,18.725
		c-5.143,2.176-13.055,3.429-21.758-2.967c-5.341-3.956-8.439-8.439-9.165-13.385c-1.055-7.253,3.363-13.121,3.429-13.187
		c0.396-0.528,0.462-1.187,0.264-1.78c-0.264-0.593-0.791-0.989-1.385-1.121c-0.132,0-10.22-1.451-14.769-7.78
		c-2.044-2.835-2.637-6.33-1.846-10.417C182.948,72.098,196.992,73.153,200.75,73.681z M177.607,118.384
		c-6.461,6.659-18.066,11.934-27.758,12.989c0.857-0.989,1.912-2.11,3.099-3.494c5.604-6.396,14.11-16.022,20.373-17.406
		c7.385-1.648,15.363-0.593,18.725,0c-0.066,0.132-0.066,0.264-0.132,0.396C189.278,111.065,183.739,112.186,177.607,118.384z
		 M190.992,114.56c-1.187,2.242-9.56,17.341-21.956,23.011c-8.505,3.89-15.56,0.33-19.384-2.571
		c10.615-0.989,23.275-6.725,30.461-14.11C184.728,116.274,188.684,114.955,190.992,114.56z M177.871,106.252
		c2.505-1.319,4.549-2.703,5.802-3.56c3.494,2.44,7.45,3.692,9.956,4.286c0,0.066-0.066,0.132-0.066,0.132
		C191.19,106.714,184.86,105.659,177.871,106.252z M199.431,67.879c0,0.725,0.066,1.451,0.198,2.11
		c-3.626-0.33-10.154-0.198-15.428,3.297c-3.956,2.571-6.461,6.593-7.516,11.802c-0.264,1.319-0.396,2.637-0.396,3.89
		c-1.121-1.78-2.374-3.89-3.626-6.264c-1.121-2.044-2.571-3.956-4.418-5.736C182.618,70.055,195.41,68.274,199.431,67.879z
		 M163.564,77.637c2.637,2.044,4.615,4.286,5.868,6.725c4.879,9.099,9.033,13.846,11.341,16.022
		c-0.593,0.396-1.319,0.857-2.11,1.319c-1.714-0.066-9.626-1.055-20.769-12.527c-4.879-5.011-8.505-9.363-11.407-12.857
		c-2.835-3.429-5.209-6.198-7.648-8.374C146.421,69.197,156.575,72.164,163.564,77.637z M134.025,68.67
		c3.165,2.11,5.868,5.341,9.692,9.956c2.967,3.56,6.593,7.912,11.538,13.055c7.648,7.912,14.044,11.209,18.33,12.593
		c-2.703,1.121-5.538,1.912-7.78,1.516c-6.396-1.055-12.461-4.813-22.879-20.439C137.52,77.109,135.146,71.769,134.025,68.67z
		 M111.674,315.328c-1.385,0.33-2.703,0.857-4.022,1.516c-2.769-2.242-11.736-10.154-17.736-24.132
		c-3.956-9.231-7.714-16.615-10.418-21.494C90.114,278.734,110.619,295.811,111.674,315.328z M80.223,305.701
		c-4.286-12.461-4.747-26.439-4.615-34.154c2.637,4.681,6.725,12.461,11.011,22.483c5.802,13.516,14.044,21.56,17.802,24.725
		c-1.78,1.385-3.099,3.033-4.088,4.681C96.839,323.108,85.432,320.602,80.223,305.701z M122.025,393.92
		c0.066-0.066,0.066-0.066,0.132-0.132c2.637-2.571,3.758-5.538,4.22-7.582c2.637,0.725,7.319,0.923,13.055-2.967
		c7.319-4.945,6.593-12,5.209-15.033c-0.396-0.857-1.451-1.253-2.374-0.857c-0.923,0.396-1.253,1.451-0.857,2.374
		c0.264,0.593,2.571,6.198-3.956,10.615c-6.857,4.615-11.407,2.044-11.538,1.912c-0.527-0.33-1.253-0.33-1.78-0.066
		c-0.527,0.264-0.923,0.923-0.923,1.582c0,0.066-0.066,4.286-3.494,7.516c-2.967,2.835-7.582,4.22-13.714,4.088
		c-9.956-0.264-12.527-6.659-13.187-10.483c-0.857-5.209,1.055-10.154,3.231-11.011c0.725-0.264,1.187-0.923,1.121-1.714
		c0-0.791-0.528-1.451-1.253-1.648c-0.462-0.132-11.604-3.89-8.439-16.879c3.165-12.923,14.637-10.615,15.099-10.483
		c0.659,0.132,1.385-0.132,1.78-0.659c0.396-0.593,0.462-1.319,0.132-1.912c-0.264-0.527-6.791-12.527,2.571-19.253
		c2.242-1.582,4.484-2.44,6.659-2.769h0.066c3.033-0.462,5.868-0.066,8.11,0.593c4.418,1.319,7.385,3.824,7.78,4.747
		c0.264,0.659,0.791,1.055,1.516,1.121c0.659,0.066,1.319-0.264,1.648-0.857c0.264-0.396,6.066-9.363,15.824-4.615
		c9.692,4.681,7.912,10.417,7.846,10.615c-0.198,0.462-0.132,1.055,0.132,1.516c0.264,0.462,0.725,0.791,1.253,0.857
		c0.593,0.132,13.78,2.769,14.176,14.769c0.33,12.066-16.022,16.549-16.22,16.615c-0.527,0.132-0.989,0.527-1.187,1.055
		c-0.198,0.527-0.132,1.121,0.132,1.582c0.396,0.659,9.89,16.22-5.407,28.088c-1.253,0.989-2.505,1.78-3.758,2.44c0,0,0,0-0.066,0
		C133.696,403.613,124.399,396.096,122.025,393.92z M126.904,422.206c5.736-13.384,18.725-21.033,20.505-21.956
		c0.198-0.132,0.396-0.264,0.659-0.33c-2.703,4.286-6,9.626-9.956,15.89c-6.857,10.813-12.132,25.45-15.099,34.879
		C122.751,442.448,123.212,430.711,126.904,422.206z M125.124,455.964c2.571-8.637,8.374-26.176,15.956-38.307
		c6.461-10.286,11.341-18.132,14.242-22.681c0.132,4.22-0.198,10.681-2.11,18.264C150.311,424.777,143.058,441.195,125.124,455.964z
		 M177.476,469.876c-10.681-7.714-24-20.835-26.505-39.89c0-0.066,0-0.198-0.066-0.264c2.11-4.286,3.692-8.374,4.813-12.132
		c1.319,5.538,3.956,13.319,9.56,20.044c1.978,2.374,4.483,5.209,7.187,8.242c9.363,10.549,21.89,24.725,25.187,35.143
		C193.431,479.37,185.519,475.678,177.476,469.876z M196.398,470.601c-5.538-9.165-14.308-19.055-21.362-26.967
		c-2.637-3.033-5.209-5.868-7.055-8.176c-8.835-10.747-9.89-24.989-9.89-25.121c0-0.396-0.198-0.725-0.396-0.989
		c1.121-6.066,1.253-11.077,1.187-14.637C167.454,404.668,189.344,433.283,196.398,470.601z M322.991,406.712
		c0.066,0.857-0.198,1.714-0.659,2.44c-0.923,1.253-2.176,2.967-3.89,5.011c-0.462-0.198-0.857-0.527-1.319-0.923
		c-1.451-1.516-4.022-8.967-5.67-16.747c-1.648-7.78-2.242-9.231-3.165-8.637c-0.923,0.593-0.066,5.934,2.11,19.055
		c1.253,7.516,1.187,12.461,0.989,15.297c-10.022,10.483-25.978,23.802-47.011,31.055c-22.681,7.846-47.67,4.681-66.791-8.374
		c-2.308-1.582-4.549-3.297-6.527-5.077c-0.132-0.066-0.198-0.132-0.33-0.198c-3.956-9.494-8.439-17.736-12.461-24.329
		c-8.571-13.912-16.615-23.077-19.319-25.978c5.077-9.165,1.912-18.593,0-22.549c1.78-0.593,4.352-1.714,6.989-3.363
		c0.593,0.725,1.187,1.451,1.846,2.11c1.319,1.714,3.165,4.418,4.352,7.714c1.187,3.165,1.714,6.396,1.978,8.703
		c-0.066,2.308,0.066,3.692,0.857,5.802c1.451,3.824,4.483,5.934,6.659,6.527c0.593,0.132,1.121,0.264,1.648,0.264
		c0.396,1.648,1.319,4.088,3.363,5.67c1.319,1.055,2.967,1.582,4.747,1.516c0.527,1.516,1.78,4.088,4.154,5.341
		c1.582,0.857,3.429,0.989,5.472,0.396c2.044,2.505,5.934,5.472,10.154,3.626c1.055,1.121,3.165,2.835,5.868,3.033
		c2.11,0.132,4.088-0.593,6-2.242c1.253,1.187,3.297,2.835,5.802,2.835c0.132,0,0.264,0,0.396,0
		c1.648-0.132,3.099-0.923,4.286-2.505c1.187,1.582,2.637,2.505,4.22,2.637c0.132,0,0.264,0,0.396,0
		c2.242,0,4.154-1.451,5.275-2.637c1.846,1.648,3.824,2.505,5.868,2.374c2.703-0.132,4.813-1.78,5.934-2.901
		c4.154,1.978,8.176-0.857,10.286-3.297c1.978,0.659,3.824,0.593,5.473-0.198c2.44-1.187,3.692-3.692,4.286-5.209
		c1.78,0.066,3.429-0.396,4.813-1.385c2.11-1.516,3.099-3.956,3.56-5.604c0.527,0,1.055-0.066,1.648-0.198
		c2.176-0.527,5.275-2.505,6.857-6.33c0.989-2.308,1.121-3.824,1.055-6.593c1.055-5.538,1.582-8.44,3.429-11.407
		c0.659-1.055,1.253-1.978,1.912-2.835c1.187-1.055,2.374-2.44,3.626-3.89c5.275-6.264,10.417-14.769,10.417-14.769
		c-0.857-8.637-0.527-15.626,0.066-20.374c0.264-2.176,1.187-4.286,2.571-6c1.912-2.308,3.956-4.483,6.132-6.461
		c-0.923,8.044-3.297,31.318-1.648,49.055C321.145,383.767,322.529,400.382,322.991,406.712z M180.904,359.701
		c0.923-0.264,1.714-0.198,2.176,0.198c0.593,0.462,0.857,1.319,0.857,1.648l-0.725,11.736c-0.132,2.637-3.626,3.56-5.011,1.319
		l-0.066-0.066c-0.132-0.264,0-8.769,0-9.033c0-0.198,0-0.264,0-0.33C178.135,364.976,177.673,360.492,180.904,359.701z
		 M182.157,380.668c0.527,0.198,0.857,0.725,0.857,1.253l-0.132,9.494c-0.198,0-0.527-0.066-0.857-0.198
		c-1.451-0.527-3.363-2.044-4.352-4.615c-0.659-1.78-0.791-2.835-0.659-5.209c0.066-0.593,0.527-1.121,1.055-1.253
		C179.388,379.877,180.97,380.272,182.157,380.668z M187.695,381.789c1.451,0.396,2.505,1.253,3.165,1.846
		c0.264,0.264,0.396,0.593,0.396,0.989l-0.264,13.187c0,0.462-0.462,0.857-0.923,0.725c-0.593-0.132-1.187-0.396-1.648-0.791
		c-2.044-1.582-2.505-4.747-2.571-5.275l0.132-9.494C186.047,382.184,186.904,381.591,187.695,381.789z M186.047,375.723
		l0.857-13.78c0.33-0.527,1.121-1.582,2.44-1.253c2.374,0.527,3.165,2.967,3.297,3.626l-0.462,11.868
		c-0.066,1.714-1.648,3.033-3.363,2.703c-0.33-0.066-0.593-0.132-0.923-0.264C186.706,378.162,185.981,376.976,186.047,375.723z
		 M195.739,384.756c1.714,0.264,3.429,1.253,4.418,2.044c0.33,0.264,0.593,0.659,0.527,1.121l-0.659,15.165
		c-0.066,0.923-0.791,1.714-1.78,1.714c-0.527,0-0.989-0.132-1.451-0.396c-1.253-0.659-2.044-2.044-2.505-3.099
		c-0.33-0.725-0.462-1.516-0.462-2.308l0.264-12.923C194.223,385.217,194.948,384.624,195.739,384.756z M195.08,378.888
		l0.527-14.308c0.33-0.462,1.253-1.385,2.769-1.385c0,0,0,0,0.066,0c2.44,0,2.901,3.824,2.901,4.22l-0.066,12.066
		c0,1.385-1.253,2.505-2.637,2.308c-0.857-0.132-1.78-0.396-2.505-0.857C195.41,380.536,195.014,379.679,195.08,378.888z
		 M204.442,386.932c2.242-0.989,4.352,0.066,5.604,0.989c0.33,0.264,0.527,0.659,0.527,1.121l-0.527,18
		c0,0.791-0.659,1.451-1.451,1.516c-2.308,0.132-4.22-1.78-5.209-2.967c-0.264-0.33-0.396-0.659-0.396-1.055l0.725-16.483
		C203.717,387.591,203.981,387.129,204.442,386.932z M204.245,380.8l0.066-13.319c0.066-0.527,0.659-3.297,2.901-3.297
		c0,0,0,0,0.066,0c2.308,0.066,3.231,2.505,3.429,3.165l-0.066,13.846c0,1.253-1.055,2.374-2.308,2.308
		c-0.659,0-1.516-0.132-2.374-0.462C204.904,382.712,204.245,381.789,204.245,380.8z M214.596,388.382
		c2.703-0.527,5.341,0.791,6.725,1.714c0.396,0.264,0.593,0.659,0.593,1.121l-0.33,15.956c0,1.319-0.659,2.505-1.78,3.165
		c-0.857,0.527-1.78,0.725-2.637,0.659c-0.923-0.066-1.78-0.462-2.44-0.923c-1.121-0.725-1.714-1.978-1.714-3.297l0.527-17.143
		C213.541,389.041,214.003,388.514,214.596,388.382z M213.541,382.052l0.066-14.835c0.132-0.593,0.923-3.56,3.626-3.758
		c2.571-0.198,3.89,3.165,4.22,4.022l-0.264,14.835c0,1.055-0.791,1.978-1.846,2.242c-1.319,0.33-3.033,0.396-4.615-0.396
		C214.003,383.767,213.541,382.976,213.541,382.052z M232.003,385.349c-0.066,0.527-0.989,1.451-3.824,1.451
		c-0.066,0-0.132,0-0.198,0c-3.363-0.066-3.56-1.055-3.692-1.78c0-0.132-0.066-0.33-0.132-0.462l0.264-17.209
		c0.132-0.659,1.121-4.154,3.626-3.956c3.626,0.33,4.154,4.615,4.22,5.209L232.003,385.349z M232.2,391.481l-0.264,17.406
		c0,0.066,0,0.132-0.066,0.198c-0.923,1.582-1.912,2.505-2.967,2.571c-0.066,0-0.132,0-0.198,0c-1.055,0-2.11-0.659-2.967-1.319
		c-0.791-0.659-1.253-1.582-1.187-2.637l0.33-15.692c0-0.725,0.527-1.385,1.187-1.582c3.099-0.791,5.011,0,6,0.659
		C232.135,391.217,232.2,391.349,232.2,391.481z M235.299,391.547c0-0.132,0.066-0.264,0.132-0.33
		c0.527-0.33,1.451-0.923,2.967-0.923c0.725,0,1.648,0.132,2.703,0.462c0.527,0.198,0.857,0.659,0.857,1.187l-0.198,15.824
		c0,1.253-0.593,2.374-1.582,3.165c-0.725,0.527-1.582,0.923-2.308,0.857c-0.989-0.066-1.978-0.989-2.835-2.637
		c0-0.066-0.066-0.132-0.066-0.198L235.299,391.547z M235.036,385.415l0.264-16.747c0.066-0.593,0.791-4.879,4.418-5.077
		c2.505-0.132,3.363,3.429,3.494,4.088l-0.264,17.209c-0.066,0.132-0.066,0.33-0.132,0.462c-0.198,0.725-0.396,1.714-3.758,1.648
		C236.025,386.997,235.167,385.943,235.036,385.415z M252.376,388.975c0.593,0.132,1.055,0.659,1.055,1.319l-0.066,18.33
		c0,0.396-0.132,0.791-0.462,1.055c-0.791,0.791-2.176,1.846-3.824,1.912c-1.253,0.066-2.571-0.527-3.824-1.648
		c-0.33-0.264-0.527-0.725-0.527-1.121l0.198-17.143c0-0.462,0.264-0.857,0.659-1.121
		C247.036,389.635,249.673,388.382,252.376,388.975z M245.915,382.91l0.264-15.033c0.33-0.857,1.78-4.154,4.286-3.824
		c2.703,0.33,3.429,3.297,3.494,3.89l-0.396,15.033c0,0.725-0.396,1.385-1.055,1.714c-1.78,0.989-3.758,0.725-5.209,0.264
		C246.508,384.624,245.915,383.833,245.915,382.91z M256.926,388.646c1.253-0.857,3.363-1.912,5.604-0.791
		c0.462,0.198,0.725,0.659,0.725,1.121l0.198,16.483c0,0.396-0.132,0.725-0.396,0.989c-1.055,1.187-3.165,3.099-5.538,2.769
		c-0.725-0.132-1.187-0.725-1.187-1.451l0.066-18.132C256.398,389.305,256.596,388.91,256.926,388.646z M256.596,382.118
		l0.396-14.11c0.198-0.659,1.187-3.033,3.429-3.033h0.066c2.242,0.066,2.769,2.901,2.835,3.429l-0.396,13.516
		c0,0.857-0.593,1.648-1.385,1.912c-1.187,0.396-2.242,0.462-3.033,0.396C257.387,384.162,256.596,383.173,256.596,382.118z
		 M271.629,381.723c-1.187,0.923-2.769,1.187-4.088,1.187c-0.923,0-1.648-0.725-1.582-1.648l0.33-12.857
		c0.066-0.462,0.659-4.22,3.099-4.088c1.516,0.066,2.374,0.989,2.703,1.451l0.132,14.703
		C272.222,380.997,272.024,381.459,271.629,381.723z M272.816,387.261l-0.132,13.912c-0.198,0.659-1.055,3.363-3.099,4.352
		c-0.725,0.33-1.516,0.462-2.44,0.264c-0.396-0.066-0.725-0.462-0.725-0.857l-0.198-15.956c0-0.462,0.198-0.857,0.593-1.121
		c1.055-0.725,2.769-1.648,4.483-1.912C272.09,385.877,272.816,386.47,272.816,387.261z M280.596,379.481
		c-0.989,0.593-2.44,0.857-3.758,0.923c-0.923,0.066-1.648-0.659-1.648-1.582l-0.066-13.253c0.198-0.593,0.989-3.033,3.429-3.494
		c1.319-0.264,2.11,0.857,2.374,1.385l0.462,14.637C281.321,378.624,281.057,379.151,280.596,379.481z M281.057,384.558
		l-0.132,9.494c-0.066,0.462-0.659,3.626-2.703,5.143c-0.462,0.33-0.923,0.527-1.451,0.659c-0.593,0.132-1.121-0.264-1.121-0.857
		l0.132-12.989c0-0.396,0.198-0.725,0.462-0.989c0.659-0.593,1.78-1.385,3.231-1.714
		C280.266,383.041,281.123,383.701,281.057,384.558z M289.826,375.723c-0.198,0.132-0.462,0.264-0.593,0.527
		c-1.055,1.648-2.176,2.242-3.165,2.374c-0.923,0.132-1.78-0.593-1.78-1.516l-0.462-13.912c0.066-0.396,0.33-1.253,0.923-1.648
		c0.462-0.33,1.253-0.33,2.176-0.132c3.231,0.923,2.637,5.341,2.637,5.538c0,0.066,0,0.198,0,0.264
		C289.497,367.481,289.761,373.811,289.826,375.723z M290.09,383.173c0.066,2.374-0.066,3.429-0.791,5.209
		c-1.055,2.505-3.033,3.956-4.483,4.483c-0.396,0.132-0.659,0.198-0.857,0.198l0.132-9.494c0-0.527,0.396-1.055,0.923-1.253
		c1.253-0.396,2.769-0.725,4.154-0.396C289.695,382.052,290.09,382.58,290.09,383.173z M322.991,337.218
		c0.725-12.396,2.044-22.286,2.044-22.417c0.066-0.264,0-0.527-0.066-0.791c2.308-1.78,4.681-3.297,7.121-4.418
		c6.923-3.297,14.176-7.582,20.176-12.132C350.551,304.251,343.628,325.943,322.991,337.218z M356.947,269.702
		c-0.264,0.857,0.066,1.78,0.857,2.176c0.198,0.132,5.077,2.835,3.956,9.297c-1.121,6.33-14.571,17.209-31.253,25.187
		c-7.714,3.692-31.318,21.297-36.329,36.989c-1.451,4.483-2.505,13.253-2.967,17.802c-0.725-1.121-1.846-2.11-3.494-2.571
		c-1.846-0.527-3.429-0.33-4.681,0.527c-0.462,0.33-0.857,0.725-1.121,1.121c-0.989-0.791-2.308-1.319-4.022-0.989
		c-2.505,0.462-3.956,2.11-4.813,3.494c-0.857-0.659-2.044-1.187-3.626-1.319c-2.308-0.132-3.89,1.187-4.813,2.769
		c-0.923-1.187-2.242-2.044-4.154-2.11c-2.242,0-3.758,1.055-4.813,2.242c-0.989-1.516-2.505-2.967-4.945-3.231
		c-2.769-0.33-4.681,1.253-5.868,2.901c-1.055-1.846-2.769-3.429-5.407-3.297c-2.769,0.132-4.549,1.714-5.67,3.494
		c-1.055-1.846-2.835-3.429-5.604-3.692c-2.637-0.198-4.418,1.319-5.472,3.099c-1.121-1.648-3.033-3.297-5.802-3.099
		c-2.374,0.198-4.022,1.516-5.011,3.033c-0.989-1.253-2.44-2.374-4.747-2.44c-1.912,0-3.297,0.857-4.22,1.978
		c-0.923-1.582-2.374-2.901-4.615-2.901c-0.066,0-0.066,0-0.132,0c-1.582,0-2.769,0.527-3.626,1.187
		c-0.791-1.451-2.242-3.099-4.681-3.692c-1.648-0.396-3.033,0.132-4.022,0.857c-0.264-0.396-0.659-0.791-1.121-1.121
		c-1.253-0.923-2.769-1.121-4.615-0.659c-1.451,0.33-2.571,1.121-3.297,2.044c-0.198-3.165-0.527-7.582-1.253-11.736
		c-0.132-3.494-8.308-25.121-25.318-30.791c-6.396-2.176-11.275-1.78-15.033,0.593c-1.648-2.505-5.209-6.527-9.297-11.209
		c-5.472-6.264-12.33-14.11-13.187-16.879c-1.648-5.143-1.516-9.099,0.33-11.802c2.44-3.56,7.253-3.89,7.253-3.89
		c0.593,0,1.121-0.396,1.451-0.857c0.33-0.527,0.33-1.187,0.066-1.714c-0.132-0.33-15.099-30-16.681-49.714
		c-1.714-21.297,0.725-72.988,11.538-91.977c2.505-4.418,4.549-7.78,6.264-10.418c-2.044,6.791-4.549,16.088-4.615,21.89
		c0,0.989,0.791,1.78,1.78,1.78c0.989,0,1.78-0.791,1.78-1.78c0.132-8.637,6.396-26.967,7.055-28.879
		c0.462-0.791,0.989-1.582,1.451-2.374c0.066-0.066,0.132-0.198,0.198-0.33c4.022-6.264,8.11-11.143,13.319-15.824
		c7.714,10.483,13.78,15.099,21.231,16.286c0.593,0.066,1.187,0.132,1.78,0.132c0,0,0,0,0.066,0
		c-5.934,3.758-12.066,10.681-16.813,16.154c-2.571,2.901-4.945,5.67-6,6.264c-0.264,0.198-0.527,0.396-0.659,0.725
		c0,0.066-0.066,0.066-0.066,0.132c0,0.066-0.066,0.132-0.066,0.198c0,0.066-0.066,0.132-0.066,0.198v0.066v0.066
		c0,0.066,0,0.066,0,0.132c0,0.066,0,0.066,0,0.066c0,0.066,0,0.132,0,0.132c0,0.066,0,0.132,0.066,0.198
		c0,0.066,0,0.066,0.066,0.132c0,0.066,0.066,0.132,0.066,0.198s0.066,0.066,0.066,0.132c0.066,0.066,0.066,0.132,0.132,0.198
		l0.066,0.066c0.066,0.132,7.253,8.308,17.736,8.308c2.769,0,5.736-0.593,8.901-1.978c9.56-4.352,16.681-13.45,20.571-19.384
		c1.055,5.604,4.549,10.615,10.417,14.901c0.725,0.527,1.451,0.989,2.176,1.451c-0.132,7.582,4.352,16.088,11.143,21.033
		c4.088,2.967,8.703,4.418,13.582,4.418c3.297,0,6.725-0.659,10.154-2.044c16.483-6.593,16.549-19.714,15.692-25.384
		c3.56,0.396,9.956,0.527,15.033-3.033c0.857-0.593,1.582-1.253,2.242-1.978c-7.319,10.747-10.022,32.373-7.319,40.945v0.066
		c0,0.066,0.066,0.132,0.066,0.198v0.066c0.066,0.066,0.132,0.198,0.132,0.264l0.066,0.066c0.066,0.066,0.132,0.132,0.132,0.198
		l0.066,0.066c0.066,0.066,0.132,0.132,0.198,0.132c0,0,0,0,0.066,0c0.066,0.066,0.198,0.066,0.264,0.132h0.066
		c0.066,0,0.132,0.066,0.198,0.066c0.066,0,0.066,0,0.132,0h0.066c0.066,0,0.33,0,0.791,0c1.912,0,7.319-0.396,13.45-4.615
		c9.231-6.198,16.154-17.67,20.505-34.088c5.341,6.33,13.45,11.67,24.395,13.187c0.132,2.176,0,6.989-1.714,17.077
		c-2.637,15.428-16.088,39.033-16.088,39.033c36,30.329,31.45,80.966,31.45,80.966c11.407-7.385,22.088-30.989,20.505-31.384
		c-1.582-0.396-4.615,11.011-12.461,13.385c-1.187,0-3.165-1.253-3.89-4.418c-0.725-3.165,4.549-13.516,9.033-23.34
		c4.549-9.824,5.209-21.297,3.89-21.363c-1.253,0-2.11,5.143-5.011,12.659c-2.901,7.516-10.681,18.264-10.681,18.264
		s-3.099-12.066-3.824-16.088c-0.725-3.956,4.418-11.934,7.319-21.363c2.308-7.516,4.483-21.824,4.286-28.022
		c0-0.725-1.055-0.791-1.187-0.066c-0.857,4.352-1.78,9.231-4.945,19.319c-2.637,8.505-5.868,14.967-8.242,17.934
		c-0.462,0.659-1.516,0.198-1.385-0.593c0.132-1.319,0.33-2.835,0.33-4.22c0.066-2.44,2.901-14.439,2.374-19.516
		c-0.066-0.659-1.055-0.725-1.187-0.066c-1.187,6.396-5.143,15.56-6.593,18.066c-1.648,2.769-8.703-3.297-8.637-6.857
		c0.066-3.56,2.505-11.077,7.121-27.626c3.89-13.978,4.945-27.428,5.209-31.318c1.187,0.066,2.308,0.066,3.429,0.066
		c0.725,0,1.385,0,2.11-0.066c0.989,0.923,2.308,3.165,3.692,5.604c3.692,6.396,8.967,15.626,19.187,20.308
		c0.264,0.132,0.527,0.33,0.791,0.527c-0.462,1.648-1.187,4.615-1.78,7.45c-0.132,0-0.264,0.066-0.396,0.132
		c-7.055,3.033-9.363,8.901-8.505,12.989c0.593,2.967,2.835,4.879,5.67,4.945c0.066,0,0.066,0,0.132,0
		c1.78,0,3.297-0.593,4.352-1.714c0.857-0.923,1.385-2.176,1.648-3.494C362.815,214.185,364.661,247.68,356.947,269.702z
		 M356.617,195.856c-0.264,0.198-0.659,0.593-1.714,0.593h-0.066c-1.582,0-2.044-1.319-2.176-2.044
		c-0.396-2.044,0.593-5.67,4.747-8.176C357.277,186.955,360.112,193.153,356.617,195.856z M365.782,172.581
		c-1.912-0.462-3.692-1.055-5.275-1.846c-0.659-0.33-1.121-0.593-1.385-0.725c-8.374-4.483-12.923-12.461-16.22-18.198
		c-0.923-1.582-1.648-2.901-2.44-4.022c0.198,0.132,0.462,0.198,0.725,0.198c0.132,0,12.198,0.857,21.56,8.044
		c8.308,6.33,19.187,12.857,27.626,15.297C385.562,173.241,377.057,175.219,365.782,172.581z M372.441,148.647
		c6.659,6.527,14.176,14.505,18.527,19.187c-7.912-2.44-18.395-8.769-26.044-14.637c-5.077-3.89-10.747-6.066-15.231-7.253
		c3.758-1.187,6.659-2.769,8.901-4.483C359.584,141.329,364.463,140.867,372.441,148.647z M334.991,128.801
		c3.231,0.659,6.198,0.923,8.769,0.923c8.835,0,14.11-3.231,17.209-6.33c0.066-0.066,0.132-0.198,0.264-0.264
		c0.857,1.648,1.846,4.088,1.319,6.527c-0.396,1.846-1.714,5.538-5.736,8.769c-0.198,0.066-0.33,0.198-0.462,0.33
		c-4.879,3.692-13.45,6.725-28.615,5.538c-17.67-1.319-27.626-13.45-30.791-23.341c-2.176-6.791-1.319-13.055,2.11-15.89
		c0.659-0.527,0.857-1.451,0.396-2.242c-0.396-0.725-1.319-1.121-2.11-0.857c-0.593,0.198-13.978,4.352-18.725-8.176
		c-2.176-5.736-1.385-12.725,2.11-19.187c4.483-8.242,12.791-14.374,22.154-16.352c19.319-4.154,36.857,0.923,39.89,6.066
		c2.703,4.549-0.923,7.187-1.648,7.648c-0.593,0.33-0.857,0.989-0.857,1.648c0.066,0.659,0.462,1.253,1.121,1.516
		c0.066,0.066,8.374,3.495,10.352,10.352c1.516,5.275-0.462,8.901-1.385,10.154c-1.912-0.33-3.626-0.462-5.143-0.593
		c1.385-1.846,2.703-4.418,2.571-7.055c-0.33-5.407-6.396-17.406-23.275-19.846c-13.714-1.978-18.33,5.472-19.714,9.099
		c-4.286-0.857-11.077-0.066-14.967,7.385c-1.582,3.033-1.846,5.934-0.725,8.505c2.176,4.945,8.703,6.659,8.967,6.725
		c0.923,0.264,1.912-0.33,2.176-1.253c0.264-0.923-0.33-1.912-1.253-2.176c-0.066,0-5.143-1.385-6.593-4.747
		c-0.659-1.517-0.462-3.297,0.593-5.407c4.154-7.978,12.066-5.275,12.396-5.209c0.527,0.198,1.055,0.132,1.516-0.132
		c0.462-0.264,0.791-0.725,0.857-1.253c0.066-0.396,1.978-10.088,16.286-8.044c15.956,2.308,20.044,13.78,20.176,16.549
		c0.132,2.703-2.835,6.132-4.022,7.187c-0.527,0.528-0.725,1.319-0.462,1.978c0.264,0.659,0.989,1.121,1.714,1.121
		c5.275-0.132,19.385,1.121,20.967,8.308c0.857,3.956,0.264,9.758-4.022,14.11c-3.363,3.429-10.022,6.923-22.747,4.418
		c-0.989-0.198-1.912,0.462-2.11,1.385C333.409,127.615,334.068,128.604,334.991,128.801z M366.243,128.472
		c0-0.989-0.066-1.912-0.264-2.835c1.714-1.121,6.264-3.429,14.571-4.352c7.451-0.791,13.582-1.978,17.209-2.769
		C394.925,123.263,386.815,131.439,366.243,128.472z M366.112,113.307c4.418-0.791,20.242-3.165,30.329,1.912
		c-3.626,0.791-9.428,1.846-16.22,2.571c-8.11,0.857-12.989,3.033-15.428,4.418c-0.396-0.857-0.857-1.582-1.253-2.176
		C364.793,117.988,365.65,115.681,366.112,113.307z"/>
	<path fill="#353535" d="M257.321,339.196c0,0-1.78,18.066,0,19.121c1.78,1.055,1.78-10.22,3.56-20.308
		C262.728,327.855,258.508,333.855,257.321,339.196z"/>
	<path fill="#353535" d="M210.311,354.558c0.066,2.11,0.659,4.549,1.714,3.56c0,0,1.055-16.286-1.319-18.198
		C208.398,338.009,210.311,352.448,210.311,354.558z"/>
	<path fill="#353535" d="M142.003,171.658c-1.78-5.209-4.154-0.989-4.154-0.989c1.78,12.857,12.066,24.593,12.066,24.593
		C154.201,193.482,143.783,176.801,142.003,171.658z"/>
	<path fill="#353535" d="M220.662,351.327c-0.791,6.066,1.978,6.066,1.978,6.066s1.978-7.516-0.396-11.472
		C219.871,341.965,221.453,345.327,220.662,351.327z"/>
	<path fill="#353535" d="M232.2,427.217c10.286,0,18.659-4.747,14.242-4.352c-4.352,0.396-24.461,0-24.461,0
		S221.849,427.217,232.2,427.217z"/>
	<path fill="#353535" d="M256.068,102.428c0,0.132,1.385,11.011-2.769,15.89c-1.253,1.451-2.835,2.176-4.879,2.242
		c-0.923,0-1.648,0.791-1.582,1.714c0,0.923,0.791,1.582,1.648,1.582h0.066c2.967-0.066,5.472-1.253,7.319-3.429
		c5.077-6,3.56-17.934,3.494-18.461c-0.132-0.923-0.923-1.517-1.846-1.385C256.596,100.648,255.937,101.505,256.068,102.428z"/>
	<path fill="#353535" d="M244.926,62.868c0.066,0.066,4.154-0.33,6.923,2.308c2.044,1.912,2.967,5.011,2.835,9.231
		c-0.066,0.923,0.659,1.648,1.582,1.714h0.066c0.857,0,1.582-0.725,1.648-1.582c0.198-5.209-1.121-9.165-3.89-11.802
		c-3.956-3.692-9.297-3.165-9.494-3.099c-0.923,0.066-1.582,0.923-1.451,1.78C243.211,62.34,244.068,63,244.926,62.868z"/>
</g>
<g>
</g>
<g>
</g>
<g>
</g>
<g>
</g>
<g>
</g>
<g>
</g>
<g>
</g>
<g>
</g>
<g>
</g>
<g>
</g>
<g>
</g>
<g>
</g>
<g>
</g>
<g>
</g>
<g>
</g>
</svg>
